%TF.GenerationSoftware,KiCad,Pcbnew,8.0.6*%
%TF.CreationDate,2024-11-20T17:32:44-08:00*%
%TF.ProjectId,hardware_password,68617264-7761-4726-955f-70617373776f,rev?*%
%TF.SameCoordinates,Original*%
%TF.FileFunction,Legend,Top*%
%TF.FilePolarity,Positive*%
%FSLAX46Y46*%
G04 Gerber Fmt 4.6, Leading zero omitted, Abs format (unit mm)*
G04 Created by KiCad (PCBNEW 8.0.6) date 2024-11-20 17:32:44*
%MOMM*%
%LPD*%
G01*
G04 APERTURE LIST*
%ADD10C,0.200000*%
%ADD11C,0.150000*%
%ADD12C,0.152400*%
%ADD13C,0.254000*%
%ADD14C,0.127000*%
%ADD15C,0.120000*%
%TA.AperFunction,Profile*%
%ADD16C,0.100000*%
%TD*%
G04 APERTURE END LIST*
D10*
X123868423Y-58476196D02*
X124725566Y-58476196D01*
X124296994Y-59976196D02*
X124296994Y-58476196D01*
X125796994Y-59904768D02*
X125654137Y-59976196D01*
X125654137Y-59976196D02*
X125368423Y-59976196D01*
X125368423Y-59976196D02*
X125225565Y-59904768D01*
X125225565Y-59904768D02*
X125154137Y-59761910D01*
X125154137Y-59761910D02*
X125154137Y-59190482D01*
X125154137Y-59190482D02*
X125225565Y-59047625D01*
X125225565Y-59047625D02*
X125368423Y-58976196D01*
X125368423Y-58976196D02*
X125654137Y-58976196D01*
X125654137Y-58976196D02*
X125796994Y-59047625D01*
X125796994Y-59047625D02*
X125868423Y-59190482D01*
X125868423Y-59190482D02*
X125868423Y-59333339D01*
X125868423Y-59333339D02*
X125154137Y-59476196D01*
X127154137Y-59976196D02*
X127154137Y-59190482D01*
X127154137Y-59190482D02*
X127082708Y-59047625D01*
X127082708Y-59047625D02*
X126939851Y-58976196D01*
X126939851Y-58976196D02*
X126654137Y-58976196D01*
X126654137Y-58976196D02*
X126511279Y-59047625D01*
X127154137Y-59904768D02*
X127011279Y-59976196D01*
X127011279Y-59976196D02*
X126654137Y-59976196D01*
X126654137Y-59976196D02*
X126511279Y-59904768D01*
X126511279Y-59904768D02*
X126439851Y-59761910D01*
X126439851Y-59761910D02*
X126439851Y-59619053D01*
X126439851Y-59619053D02*
X126511279Y-59476196D01*
X126511279Y-59476196D02*
X126654137Y-59404768D01*
X126654137Y-59404768D02*
X127011279Y-59404768D01*
X127011279Y-59404768D02*
X127154137Y-59333339D01*
X127868422Y-59976196D02*
X127868422Y-58976196D01*
X127868422Y-59119053D02*
X127939851Y-59047625D01*
X127939851Y-59047625D02*
X128082708Y-58976196D01*
X128082708Y-58976196D02*
X128296994Y-58976196D01*
X128296994Y-58976196D02*
X128439851Y-59047625D01*
X128439851Y-59047625D02*
X128511280Y-59190482D01*
X128511280Y-59190482D02*
X128511280Y-59976196D01*
X128511280Y-59190482D02*
X128582708Y-59047625D01*
X128582708Y-59047625D02*
X128725565Y-58976196D01*
X128725565Y-58976196D02*
X128939851Y-58976196D01*
X128939851Y-58976196D02*
X129082708Y-59047625D01*
X129082708Y-59047625D02*
X129154137Y-59190482D01*
X129154137Y-59190482D02*
X129154137Y-59976196D01*
X130939851Y-58976196D02*
X132011279Y-58976196D01*
X131368422Y-58333339D02*
X130939851Y-60261910D01*
X131868422Y-59619053D02*
X130796994Y-59619053D01*
X131439851Y-60261910D02*
X131868422Y-58333339D01*
X133296994Y-59976196D02*
X132439851Y-59976196D01*
X132868422Y-59976196D02*
X132868422Y-58476196D01*
X132868422Y-58476196D02*
X132725565Y-58690482D01*
X132725565Y-58690482D02*
X132582708Y-58833339D01*
X132582708Y-58833339D02*
X132439851Y-58904768D01*
X134654136Y-58476196D02*
X133939850Y-58476196D01*
X133939850Y-58476196D02*
X133868422Y-59190482D01*
X133868422Y-59190482D02*
X133939850Y-59119053D01*
X133939850Y-59119053D02*
X134082708Y-59047625D01*
X134082708Y-59047625D02*
X134439850Y-59047625D01*
X134439850Y-59047625D02*
X134582708Y-59119053D01*
X134582708Y-59119053D02*
X134654136Y-59190482D01*
X134654136Y-59190482D02*
X134725565Y-59333339D01*
X134725565Y-59333339D02*
X134725565Y-59690482D01*
X134725565Y-59690482D02*
X134654136Y-59833339D01*
X134654136Y-59833339D02*
X134582708Y-59904768D01*
X134582708Y-59904768D02*
X134439850Y-59976196D01*
X134439850Y-59976196D02*
X134082708Y-59976196D01*
X134082708Y-59976196D02*
X133939850Y-59904768D01*
X133939850Y-59904768D02*
X133868422Y-59833339D01*
X135439850Y-59904768D02*
X135439850Y-59976196D01*
X135439850Y-59976196D02*
X135368421Y-60119053D01*
X135368421Y-60119053D02*
X135296993Y-60190482D01*
X128796995Y-60891112D02*
X129296995Y-62391112D01*
X129296995Y-62391112D02*
X129796995Y-60891112D01*
X130868423Y-62319684D02*
X130725566Y-62391112D01*
X130725566Y-62391112D02*
X130439852Y-62391112D01*
X130439852Y-62391112D02*
X130296994Y-62319684D01*
X130296994Y-62319684D02*
X130225566Y-62176826D01*
X130225566Y-62176826D02*
X130225566Y-61605398D01*
X130225566Y-61605398D02*
X130296994Y-61462541D01*
X130296994Y-61462541D02*
X130439852Y-61391112D01*
X130439852Y-61391112D02*
X130725566Y-61391112D01*
X130725566Y-61391112D02*
X130868423Y-61462541D01*
X130868423Y-61462541D02*
X130939852Y-61605398D01*
X130939852Y-61605398D02*
X130939852Y-61748255D01*
X130939852Y-61748255D02*
X130225566Y-61891112D01*
X131582708Y-62391112D02*
X131582708Y-61391112D01*
X131582708Y-61676826D02*
X131654137Y-61533969D01*
X131654137Y-61533969D02*
X131725566Y-61462541D01*
X131725566Y-61462541D02*
X131868423Y-61391112D01*
X131868423Y-61391112D02*
X132011280Y-61391112D01*
X134439851Y-62391112D02*
X133582708Y-62391112D01*
X134011279Y-62391112D02*
X134011279Y-60891112D01*
X134011279Y-60891112D02*
X133868422Y-61105398D01*
X133868422Y-61105398D02*
X133725565Y-61248255D01*
X133725565Y-61248255D02*
X133582708Y-61319684D01*
X135082707Y-62248255D02*
X135154136Y-62319684D01*
X135154136Y-62319684D02*
X135082707Y-62391112D01*
X135082707Y-62391112D02*
X135011279Y-62319684D01*
X135011279Y-62319684D02*
X135082707Y-62248255D01*
X135082707Y-62248255D02*
X135082707Y-62391112D01*
X136082708Y-60891112D02*
X136225565Y-60891112D01*
X136225565Y-60891112D02*
X136368422Y-60962541D01*
X136368422Y-60962541D02*
X136439851Y-61033969D01*
X136439851Y-61033969D02*
X136511279Y-61176826D01*
X136511279Y-61176826D02*
X136582708Y-61462541D01*
X136582708Y-61462541D02*
X136582708Y-61819684D01*
X136582708Y-61819684D02*
X136511279Y-62105398D01*
X136511279Y-62105398D02*
X136439851Y-62248255D01*
X136439851Y-62248255D02*
X136368422Y-62319684D01*
X136368422Y-62319684D02*
X136225565Y-62391112D01*
X136225565Y-62391112D02*
X136082708Y-62391112D01*
X136082708Y-62391112D02*
X135939851Y-62319684D01*
X135939851Y-62319684D02*
X135868422Y-62248255D01*
X135868422Y-62248255D02*
X135796993Y-62105398D01*
X135796993Y-62105398D02*
X135725565Y-61819684D01*
X135725565Y-61819684D02*
X135725565Y-61462541D01*
X135725565Y-61462541D02*
X135796993Y-61176826D01*
X135796993Y-61176826D02*
X135868422Y-61033969D01*
X135868422Y-61033969D02*
X135939851Y-60962541D01*
X135939851Y-60962541D02*
X136082708Y-60891112D01*
X123439853Y-64806028D02*
X122582710Y-64806028D01*
X123011281Y-64806028D02*
X123011281Y-63306028D01*
X123011281Y-63306028D02*
X122868424Y-63520314D01*
X122868424Y-63520314D02*
X122725567Y-63663171D01*
X122725567Y-63663171D02*
X122582710Y-63734600D01*
X124868424Y-64806028D02*
X124011281Y-64806028D01*
X124439852Y-64806028D02*
X124439852Y-63306028D01*
X124439852Y-63306028D02*
X124296995Y-63520314D01*
X124296995Y-63520314D02*
X124154138Y-63663171D01*
X124154138Y-63663171D02*
X124011281Y-63734600D01*
X126582709Y-63234600D02*
X125296995Y-65163171D01*
X127011281Y-63448885D02*
X127082709Y-63377457D01*
X127082709Y-63377457D02*
X127225567Y-63306028D01*
X127225567Y-63306028D02*
X127582709Y-63306028D01*
X127582709Y-63306028D02*
X127725567Y-63377457D01*
X127725567Y-63377457D02*
X127796995Y-63448885D01*
X127796995Y-63448885D02*
X127868424Y-63591742D01*
X127868424Y-63591742D02*
X127868424Y-63734600D01*
X127868424Y-63734600D02*
X127796995Y-63948885D01*
X127796995Y-63948885D02*
X126939852Y-64806028D01*
X126939852Y-64806028D02*
X127868424Y-64806028D01*
X128796995Y-63306028D02*
X128939852Y-63306028D01*
X128939852Y-63306028D02*
X129082709Y-63377457D01*
X129082709Y-63377457D02*
X129154138Y-63448885D01*
X129154138Y-63448885D02*
X129225566Y-63591742D01*
X129225566Y-63591742D02*
X129296995Y-63877457D01*
X129296995Y-63877457D02*
X129296995Y-64234600D01*
X129296995Y-64234600D02*
X129225566Y-64520314D01*
X129225566Y-64520314D02*
X129154138Y-64663171D01*
X129154138Y-64663171D02*
X129082709Y-64734600D01*
X129082709Y-64734600D02*
X128939852Y-64806028D01*
X128939852Y-64806028D02*
X128796995Y-64806028D01*
X128796995Y-64806028D02*
X128654138Y-64734600D01*
X128654138Y-64734600D02*
X128582709Y-64663171D01*
X128582709Y-64663171D02*
X128511280Y-64520314D01*
X128511280Y-64520314D02*
X128439852Y-64234600D01*
X128439852Y-64234600D02*
X128439852Y-63877457D01*
X128439852Y-63877457D02*
X128511280Y-63591742D01*
X128511280Y-63591742D02*
X128582709Y-63448885D01*
X128582709Y-63448885D02*
X128654138Y-63377457D01*
X128654138Y-63377457D02*
X128796995Y-63306028D01*
X131011280Y-63234600D02*
X129725566Y-65163171D01*
X131439852Y-63448885D02*
X131511280Y-63377457D01*
X131511280Y-63377457D02*
X131654138Y-63306028D01*
X131654138Y-63306028D02*
X132011280Y-63306028D01*
X132011280Y-63306028D02*
X132154138Y-63377457D01*
X132154138Y-63377457D02*
X132225566Y-63448885D01*
X132225566Y-63448885D02*
X132296995Y-63591742D01*
X132296995Y-63591742D02*
X132296995Y-63734600D01*
X132296995Y-63734600D02*
X132225566Y-63948885D01*
X132225566Y-63948885D02*
X131368423Y-64806028D01*
X131368423Y-64806028D02*
X132296995Y-64806028D01*
X133225566Y-63306028D02*
X133368423Y-63306028D01*
X133368423Y-63306028D02*
X133511280Y-63377457D01*
X133511280Y-63377457D02*
X133582709Y-63448885D01*
X133582709Y-63448885D02*
X133654137Y-63591742D01*
X133654137Y-63591742D02*
X133725566Y-63877457D01*
X133725566Y-63877457D02*
X133725566Y-64234600D01*
X133725566Y-64234600D02*
X133654137Y-64520314D01*
X133654137Y-64520314D02*
X133582709Y-64663171D01*
X133582709Y-64663171D02*
X133511280Y-64734600D01*
X133511280Y-64734600D02*
X133368423Y-64806028D01*
X133368423Y-64806028D02*
X133225566Y-64806028D01*
X133225566Y-64806028D02*
X133082709Y-64734600D01*
X133082709Y-64734600D02*
X133011280Y-64663171D01*
X133011280Y-64663171D02*
X132939851Y-64520314D01*
X132939851Y-64520314D02*
X132868423Y-64234600D01*
X132868423Y-64234600D02*
X132868423Y-63877457D01*
X132868423Y-63877457D02*
X132939851Y-63591742D01*
X132939851Y-63591742D02*
X133011280Y-63448885D01*
X133011280Y-63448885D02*
X133082709Y-63377457D01*
X133082709Y-63377457D02*
X133225566Y-63306028D01*
X134296994Y-63448885D02*
X134368422Y-63377457D01*
X134368422Y-63377457D02*
X134511280Y-63306028D01*
X134511280Y-63306028D02*
X134868422Y-63306028D01*
X134868422Y-63306028D02*
X135011280Y-63377457D01*
X135011280Y-63377457D02*
X135082708Y-63448885D01*
X135082708Y-63448885D02*
X135154137Y-63591742D01*
X135154137Y-63591742D02*
X135154137Y-63734600D01*
X135154137Y-63734600D02*
X135082708Y-63948885D01*
X135082708Y-63948885D02*
X134225565Y-64806028D01*
X134225565Y-64806028D02*
X135154137Y-64806028D01*
X136439851Y-63806028D02*
X136439851Y-64806028D01*
X136082708Y-63234600D02*
X135725565Y-64306028D01*
X135725565Y-64306028D02*
X136654136Y-64306028D01*
D11*
X112166667Y-61262101D02*
X112309524Y-61309720D01*
X112309524Y-61309720D02*
X112547619Y-61309720D01*
X112547619Y-61309720D02*
X112642857Y-61262101D01*
X112642857Y-61262101D02*
X112690476Y-61214481D01*
X112690476Y-61214481D02*
X112738095Y-61119243D01*
X112738095Y-61119243D02*
X112738095Y-61024005D01*
X112738095Y-61024005D02*
X112690476Y-60928767D01*
X112690476Y-60928767D02*
X112642857Y-60881148D01*
X112642857Y-60881148D02*
X112547619Y-60833529D01*
X112547619Y-60833529D02*
X112357143Y-60785910D01*
X112357143Y-60785910D02*
X112261905Y-60738291D01*
X112261905Y-60738291D02*
X112214286Y-60690672D01*
X112214286Y-60690672D02*
X112166667Y-60595434D01*
X112166667Y-60595434D02*
X112166667Y-60500196D01*
X112166667Y-60500196D02*
X112214286Y-60404958D01*
X112214286Y-60404958D02*
X112261905Y-60357339D01*
X112261905Y-60357339D02*
X112357143Y-60309720D01*
X112357143Y-60309720D02*
X112595238Y-60309720D01*
X112595238Y-60309720D02*
X112738095Y-60357339D01*
X113071429Y-60309720D02*
X113309524Y-61309720D01*
X113309524Y-61309720D02*
X113500000Y-60595434D01*
X113500000Y-60595434D02*
X113690476Y-61309720D01*
X113690476Y-61309720D02*
X113928572Y-60309720D01*
X114261905Y-60404958D02*
X114309524Y-60357339D01*
X114309524Y-60357339D02*
X114404762Y-60309720D01*
X114404762Y-60309720D02*
X114642857Y-60309720D01*
X114642857Y-60309720D02*
X114738095Y-60357339D01*
X114738095Y-60357339D02*
X114785714Y-60404958D01*
X114785714Y-60404958D02*
X114833333Y-60500196D01*
X114833333Y-60500196D02*
X114833333Y-60595434D01*
X114833333Y-60595434D02*
X114785714Y-60738291D01*
X114785714Y-60738291D02*
X114214286Y-61309720D01*
X114214286Y-61309720D02*
X114833333Y-61309720D01*
X97186128Y-111749999D02*
X98257557Y-111749999D01*
X98257557Y-111749999D02*
X98471842Y-111821428D01*
X98471842Y-111821428D02*
X98614700Y-111964285D01*
X98614700Y-111964285D02*
X98686128Y-112178571D01*
X98686128Y-112178571D02*
X98686128Y-112321428D01*
X98686128Y-110249999D02*
X98686128Y-111107142D01*
X98686128Y-110678571D02*
X97186128Y-110678571D01*
X97186128Y-110678571D02*
X97400414Y-110821428D01*
X97400414Y-110821428D02*
X97543271Y-110964285D01*
X97543271Y-110964285D02*
X97614700Y-111107142D01*
X102652142Y-94991128D02*
X102652142Y-96205414D01*
X102652142Y-96205414D02*
X102723571Y-96348271D01*
X102723571Y-96348271D02*
X102795000Y-96419700D01*
X102795000Y-96419700D02*
X102937857Y-96491128D01*
X102937857Y-96491128D02*
X103223571Y-96491128D01*
X103223571Y-96491128D02*
X103366428Y-96419700D01*
X103366428Y-96419700D02*
X103437857Y-96348271D01*
X103437857Y-96348271D02*
X103509285Y-96205414D01*
X103509285Y-96205414D02*
X103509285Y-94991128D01*
X105009286Y-96491128D02*
X104152143Y-96491128D01*
X104580714Y-96491128D02*
X104580714Y-94991128D01*
X104580714Y-94991128D02*
X104437857Y-95205414D01*
X104437857Y-95205414D02*
X104295000Y-95348271D01*
X104295000Y-95348271D02*
X104152143Y-95419700D01*
X112166667Y-84762101D02*
X112309524Y-84809720D01*
X112309524Y-84809720D02*
X112547619Y-84809720D01*
X112547619Y-84809720D02*
X112642857Y-84762101D01*
X112642857Y-84762101D02*
X112690476Y-84714481D01*
X112690476Y-84714481D02*
X112738095Y-84619243D01*
X112738095Y-84619243D02*
X112738095Y-84524005D01*
X112738095Y-84524005D02*
X112690476Y-84428767D01*
X112690476Y-84428767D02*
X112642857Y-84381148D01*
X112642857Y-84381148D02*
X112547619Y-84333529D01*
X112547619Y-84333529D02*
X112357143Y-84285910D01*
X112357143Y-84285910D02*
X112261905Y-84238291D01*
X112261905Y-84238291D02*
X112214286Y-84190672D01*
X112214286Y-84190672D02*
X112166667Y-84095434D01*
X112166667Y-84095434D02*
X112166667Y-84000196D01*
X112166667Y-84000196D02*
X112214286Y-83904958D01*
X112214286Y-83904958D02*
X112261905Y-83857339D01*
X112261905Y-83857339D02*
X112357143Y-83809720D01*
X112357143Y-83809720D02*
X112595238Y-83809720D01*
X112595238Y-83809720D02*
X112738095Y-83857339D01*
X113071429Y-83809720D02*
X113309524Y-84809720D01*
X113309524Y-84809720D02*
X113500000Y-84095434D01*
X113500000Y-84095434D02*
X113690476Y-84809720D01*
X113690476Y-84809720D02*
X113928572Y-83809720D01*
X114738095Y-84143053D02*
X114738095Y-84809720D01*
X114500000Y-83762101D02*
X114261905Y-84476386D01*
X114261905Y-84476386D02*
X114880952Y-84476386D01*
X129186128Y-119473999D02*
X130257557Y-119473999D01*
X130257557Y-119473999D02*
X130471842Y-119545428D01*
X130471842Y-119545428D02*
X130614700Y-119688285D01*
X130614700Y-119688285D02*
X130686128Y-119902571D01*
X130686128Y-119902571D02*
X130686128Y-120045428D01*
X129328985Y-118831142D02*
X129257557Y-118759714D01*
X129257557Y-118759714D02*
X129186128Y-118616857D01*
X129186128Y-118616857D02*
X129186128Y-118259714D01*
X129186128Y-118259714D02*
X129257557Y-118116857D01*
X129257557Y-118116857D02*
X129328985Y-118045428D01*
X129328985Y-118045428D02*
X129471842Y-117973999D01*
X129471842Y-117973999D02*
X129614700Y-117973999D01*
X129614700Y-117973999D02*
X129828985Y-118045428D01*
X129828985Y-118045428D02*
X130686128Y-118902571D01*
X130686128Y-118902571D02*
X130686128Y-117973999D01*
X95043271Y-154249999D02*
X95114700Y-154321427D01*
X95114700Y-154321427D02*
X95186128Y-154535713D01*
X95186128Y-154535713D02*
X95186128Y-154678570D01*
X95186128Y-154678570D02*
X95114700Y-154892856D01*
X95114700Y-154892856D02*
X94971842Y-155035713D01*
X94971842Y-155035713D02*
X94828985Y-155107142D01*
X94828985Y-155107142D02*
X94543271Y-155178570D01*
X94543271Y-155178570D02*
X94328985Y-155178570D01*
X94328985Y-155178570D02*
X94043271Y-155107142D01*
X94043271Y-155107142D02*
X93900414Y-155035713D01*
X93900414Y-155035713D02*
X93757557Y-154892856D01*
X93757557Y-154892856D02*
X93686128Y-154678570D01*
X93686128Y-154678570D02*
X93686128Y-154535713D01*
X93686128Y-154535713D02*
X93757557Y-154321427D01*
X93757557Y-154321427D02*
X93828985Y-154249999D01*
X95186128Y-152821427D02*
X95186128Y-153678570D01*
X95186128Y-153249999D02*
X93686128Y-153249999D01*
X93686128Y-153249999D02*
X93900414Y-153392856D01*
X93900414Y-153392856D02*
X94043271Y-153535713D01*
X94043271Y-153535713D02*
X94114700Y-153678570D01*
X123166667Y-73262101D02*
X123309524Y-73309720D01*
X123309524Y-73309720D02*
X123547619Y-73309720D01*
X123547619Y-73309720D02*
X123642857Y-73262101D01*
X123642857Y-73262101D02*
X123690476Y-73214481D01*
X123690476Y-73214481D02*
X123738095Y-73119243D01*
X123738095Y-73119243D02*
X123738095Y-73024005D01*
X123738095Y-73024005D02*
X123690476Y-72928767D01*
X123690476Y-72928767D02*
X123642857Y-72881148D01*
X123642857Y-72881148D02*
X123547619Y-72833529D01*
X123547619Y-72833529D02*
X123357143Y-72785910D01*
X123357143Y-72785910D02*
X123261905Y-72738291D01*
X123261905Y-72738291D02*
X123214286Y-72690672D01*
X123214286Y-72690672D02*
X123166667Y-72595434D01*
X123166667Y-72595434D02*
X123166667Y-72500196D01*
X123166667Y-72500196D02*
X123214286Y-72404958D01*
X123214286Y-72404958D02*
X123261905Y-72357339D01*
X123261905Y-72357339D02*
X123357143Y-72309720D01*
X123357143Y-72309720D02*
X123595238Y-72309720D01*
X123595238Y-72309720D02*
X123738095Y-72357339D01*
X124071429Y-72309720D02*
X124309524Y-73309720D01*
X124309524Y-73309720D02*
X124500000Y-72595434D01*
X124500000Y-72595434D02*
X124690476Y-73309720D01*
X124690476Y-73309720D02*
X124928572Y-72309720D01*
X125833333Y-73309720D02*
X125261905Y-73309720D01*
X125547619Y-73309720D02*
X125547619Y-72309720D01*
X125547619Y-72309720D02*
X125452381Y-72452577D01*
X125452381Y-72452577D02*
X125357143Y-72547815D01*
X125357143Y-72547815D02*
X125261905Y-72595434D01*
X101166667Y-73262101D02*
X101309524Y-73309720D01*
X101309524Y-73309720D02*
X101547619Y-73309720D01*
X101547619Y-73309720D02*
X101642857Y-73262101D01*
X101642857Y-73262101D02*
X101690476Y-73214481D01*
X101690476Y-73214481D02*
X101738095Y-73119243D01*
X101738095Y-73119243D02*
X101738095Y-73024005D01*
X101738095Y-73024005D02*
X101690476Y-72928767D01*
X101690476Y-72928767D02*
X101642857Y-72881148D01*
X101642857Y-72881148D02*
X101547619Y-72833529D01*
X101547619Y-72833529D02*
X101357143Y-72785910D01*
X101357143Y-72785910D02*
X101261905Y-72738291D01*
X101261905Y-72738291D02*
X101214286Y-72690672D01*
X101214286Y-72690672D02*
X101166667Y-72595434D01*
X101166667Y-72595434D02*
X101166667Y-72500196D01*
X101166667Y-72500196D02*
X101214286Y-72404958D01*
X101214286Y-72404958D02*
X101261905Y-72357339D01*
X101261905Y-72357339D02*
X101357143Y-72309720D01*
X101357143Y-72309720D02*
X101595238Y-72309720D01*
X101595238Y-72309720D02*
X101738095Y-72357339D01*
X102071429Y-72309720D02*
X102309524Y-73309720D01*
X102309524Y-73309720D02*
X102500000Y-72595434D01*
X102500000Y-72595434D02*
X102690476Y-73309720D01*
X102690476Y-73309720D02*
X102928572Y-72309720D01*
X103214286Y-72309720D02*
X103833333Y-72309720D01*
X103833333Y-72309720D02*
X103500000Y-72690672D01*
X103500000Y-72690672D02*
X103642857Y-72690672D01*
X103642857Y-72690672D02*
X103738095Y-72738291D01*
X103738095Y-72738291D02*
X103785714Y-72785910D01*
X103785714Y-72785910D02*
X103833333Y-72881148D01*
X103833333Y-72881148D02*
X103833333Y-73119243D01*
X103833333Y-73119243D02*
X103785714Y-73214481D01*
X103785714Y-73214481D02*
X103738095Y-73262101D01*
X103738095Y-73262101D02*
X103642857Y-73309720D01*
X103642857Y-73309720D02*
X103357143Y-73309720D01*
X103357143Y-73309720D02*
X103261905Y-73262101D01*
X103261905Y-73262101D02*
X103214286Y-73214481D01*
D12*
%TO.C,SW2*%
X110372998Y-59684656D02*
X110372998Y-62025145D01*
X110891771Y-63981902D02*
X116108229Y-63981902D01*
X116108229Y-57727899D02*
X110891771Y-57727899D01*
X116627002Y-62025145D02*
X116627002Y-59684656D01*
D13*
X110376999Y-56064900D02*
G75*
G02*
X110122999Y-56064900I-127000J0D01*
G01*
X110122999Y-56064900D02*
G75*
G02*
X110376999Y-56064900I127000J0D01*
G01*
D14*
%TO.C,J1*%
X94230000Y-108940000D02*
X94230000Y-119600000D01*
X94230000Y-119600000D02*
X96770000Y-119600000D01*
X96770000Y-108940000D02*
X94230000Y-108940000D01*
X96770000Y-119600000D02*
X96770000Y-108940000D01*
D10*
X95550000Y-108310000D02*
G75*
G02*
X95350000Y-108310000I-100000J0D01*
G01*
X95350000Y-108310000D02*
G75*
G02*
X95550000Y-108310000I100000J0D01*
G01*
D14*
%TO.C,U1*%
X100870000Y-104040000D02*
X126270000Y-104040000D01*
X100870000Y-166780000D02*
X100870000Y-104040000D01*
X126270000Y-104040000D02*
X126270000Y-166780000D01*
X126270000Y-166780000D02*
X100870000Y-166780000D01*
D10*
X99954000Y-105438000D02*
G75*
G02*
X99754000Y-105438000I-100000J0D01*
G01*
X99754000Y-105438000D02*
G75*
G02*
X99954000Y-105438000I100000J0D01*
G01*
D12*
%TO.C,SW4*%
X110372998Y-83184656D02*
X110372998Y-85525145D01*
X110891771Y-87481902D02*
X116108229Y-87481902D01*
X116108229Y-81227899D02*
X110891771Y-81227899D01*
X116627002Y-85525145D02*
X116627002Y-83184656D01*
D13*
X110376999Y-79564900D02*
G75*
G02*
X110122999Y-79564900I-127000J0D01*
G01*
X110122999Y-79564900D02*
G75*
G02*
X110376999Y-79564900I127000J0D01*
G01*
D14*
%TO.C,J2*%
X131230000Y-106659000D02*
X131230000Y-122399000D01*
X131230000Y-122399000D02*
X133770000Y-122399000D01*
X133770000Y-106659000D02*
X131230000Y-106659000D01*
X133770000Y-122399000D02*
X133770000Y-106659000D01*
D10*
X132600000Y-123029000D02*
G75*
G02*
X132400000Y-123029000I-100000J0D01*
G01*
X132400000Y-123029000D02*
G75*
G02*
X132600000Y-123029000I100000J0D01*
G01*
D15*
%TO.C,C1*%
X97265000Y-153738748D02*
X97265000Y-154261252D01*
X98735000Y-153738748D02*
X98735000Y-154261252D01*
D12*
%TO.C,SW1*%
X121372998Y-71684656D02*
X121372998Y-74025145D01*
X121891771Y-75981902D02*
X127108229Y-75981902D01*
X127108229Y-69727899D02*
X121891771Y-69727899D01*
X127627002Y-74025145D02*
X127627002Y-71684656D01*
D13*
X121376999Y-68064900D02*
G75*
G02*
X121122999Y-68064900I-127000J0D01*
G01*
X121122999Y-68064900D02*
G75*
G02*
X121376999Y-68064900I127000J0D01*
G01*
D12*
%TO.C,SW3*%
X99372998Y-71684656D02*
X99372998Y-74025145D01*
X99891771Y-75981902D02*
X105108229Y-75981902D01*
X105108229Y-69727899D02*
X99891771Y-69727899D01*
X105627002Y-74025145D02*
X105627002Y-71684656D01*
D13*
X99376999Y-68064900D02*
G75*
G02*
X99122999Y-68064900I-127000J0D01*
G01*
X99122999Y-68064900D02*
G75*
G02*
X99376999Y-68064900I127000J0D01*
G01*
%TD*%
D16*
X92500000Y-53500000D02*
G75*
G02*
X89500000Y-53500000I-1500000J0D01*
G01*
X89500000Y-53500000D02*
G75*
G02*
X92500000Y-53500000I1500000J0D01*
G01*
X136500000Y-53500000D02*
G75*
G02*
X133500000Y-53500000I-1500000J0D01*
G01*
X133500000Y-53500000D02*
G75*
G02*
X136500000Y-53500000I1500000J0D01*
G01*
X88000000Y-50500000D02*
X138000000Y-50500000D01*
X138000000Y-163500000D01*
X88000000Y-163500000D01*
X88000000Y-50500000D01*
X92500000Y-160500000D02*
G75*
G02*
X89500000Y-160500000I-1500000J0D01*
G01*
X89500000Y-160500000D02*
G75*
G02*
X92500000Y-160500000I1500000J0D01*
G01*
X136500000Y-160500000D02*
G75*
G02*
X133500000Y-160500000I-1500000J0D01*
G01*
X133500000Y-160500000D02*
G75*
G02*
X136500000Y-160500000I1500000J0D01*
G01*
M02*
