%TF.GenerationSoftware,KiCad,Pcbnew,8.0.6*%
%TF.CreationDate,2024-11-20T17:32:44-08:00*%
%TF.ProjectId,hardware_password,68617264-7761-4726-955f-70617373776f,rev?*%
%TF.SameCoordinates,Original*%
%TF.FileFunction,Copper,L2,Inr*%
%TF.FilePolarity,Positive*%
%FSLAX46Y46*%
G04 Gerber Fmt 4.6, Leading zero omitted, Abs format (unit mm)*
G04 Created by KiCad (PCBNEW 8.0.6) date 2024-11-20 17:32:44*
%MOMM*%
%LPD*%
G01*
G04 APERTURE LIST*
%TA.AperFunction,ComponentPad*%
%ADD10C,1.507998*%
%TD*%
%TA.AperFunction,ComponentPad*%
%ADD11R,1.605000X1.605000*%
%TD*%
%TA.AperFunction,ComponentPad*%
%ADD12C,1.605000*%
%TD*%
%TA.AperFunction,ComponentPad*%
%ADD13R,1.530000X1.530000*%
%TD*%
%TA.AperFunction,ComponentPad*%
%ADD14C,1.530000*%
%TD*%
%TA.AperFunction,ViaPad*%
%ADD15C,0.600000*%
%TD*%
%TA.AperFunction,Profile*%
%ADD16C,0.100000*%
%TD*%
G04 APERTURE END LIST*
D10*
%TO.N,/IO10*%
%TO.C,SW2*%
X110249999Y-58604900D03*
X116750001Y-58604900D03*
%TO.N,GND*%
X110249999Y-63104901D03*
X116750001Y-63104901D03*
%TD*%
D11*
%TO.N,/5V*%
%TO.C,J1*%
X95500000Y-110460000D03*
D12*
%TO.N,/SDA*%
X95500000Y-113000000D03*
%TO.N,/SCL*%
X95500000Y-115540000D03*
%TO.N,GND*%
X95500000Y-118080000D03*
%TD*%
D13*
%TO.N,Net-(U1-3V3-PadJ1_1)*%
%TO.C,U1*%
X102140000Y-105440000D03*
D14*
X102140000Y-107980000D03*
%TO.N,unconnected-(U1-RST-PadJ1_3)*%
X102140000Y-110520000D03*
%TO.N,/SDA*%
X102140000Y-113060000D03*
%TO.N,/SCL*%
X102140000Y-115600000D03*
%TO.N,unconnected-(U1-GPIO6-PadJ1_6)*%
X102140000Y-118140000D03*
%TO.N,unconnected-(U1-GPIO7-PadJ1_7)*%
X102140000Y-120680000D03*
%TO.N,/IO15*%
X102140000Y-123220000D03*
%TO.N,unconnected-(U1-GPIO16-PadJ1_9)*%
X102140000Y-125760000D03*
%TO.N,unconnected-(U1-GPIO17-PadJ1_10)*%
X102140000Y-128300000D03*
%TO.N,unconnected-(U1-GPIO18-PadJ1_11)*%
X102140000Y-130840000D03*
%TO.N,unconnected-(U1-GPIO8-PadJ1_12)*%
X102140000Y-133380000D03*
%TO.N,unconnected-(U1-GPIO3-PadJ1_13)*%
X102140000Y-135920000D03*
%TO.N,unconnected-(U1-GPIO46-PadJ1_14)*%
X102140000Y-138460000D03*
%TO.N,unconnected-(U1-GPIO9-PadJ1_15)*%
X102140000Y-141000000D03*
%TO.N,/IO10*%
X102140000Y-143540000D03*
%TO.N,unconnected-(U1-GPIO11-PadJ1_17)*%
X102140000Y-146080000D03*
%TO.N,unconnected-(U1-GPIO12-PadJ1_18)*%
X102140000Y-148620000D03*
%TO.N,/IO13*%
X102140000Y-151160000D03*
%TO.N,/IO14*%
X102140000Y-153700000D03*
%TO.N,/5V*%
X102140000Y-156240000D03*
%TO.N,GND*%
X102140000Y-158780000D03*
X125000000Y-105440000D03*
%TO.N,unconnected-(U1-U0TXD{slash}GPIO43-PadJ3_2)*%
X125000000Y-107980000D03*
%TO.N,unconnected-(U1-U0RXD{slash}GPIO44-PadJ3_3)*%
X125000000Y-110520000D03*
%TO.N,/MISO*%
X125000000Y-113060000D03*
%TO.N,/MOSI*%
X125000000Y-115600000D03*
%TO.N,/SCK*%
X125000000Y-118140000D03*
%TO.N,/CS*%
X125000000Y-120680000D03*
%TO.N,unconnected-(U1-MTDO{slash}GPIO40-PadJ3_8)*%
X125000000Y-123220000D03*
%TO.N,unconnected-(U1-MTCK{slash}GPIO39-PadJ3_9)*%
X125000000Y-125760000D03*
%TO.N,unconnected-(U1-GPIO38-PadJ3_10)*%
X125000000Y-128300000D03*
%TO.N,unconnected-(U1-GPIO37-PadJ3_11)*%
X125000000Y-130840000D03*
%TO.N,unconnected-(U1-GPIO36-PadJ3_12)*%
X125000000Y-133380000D03*
%TO.N,unconnected-(U1-GPIO35-PadJ3_13)*%
X125000000Y-135920000D03*
%TO.N,unconnected-(U1-GPIO0-PadJ3_14)*%
X125000000Y-138460000D03*
%TO.N,unconnected-(U1-GPIO45-PadJ3_15)*%
X125000000Y-141000000D03*
%TO.N,unconnected-(U1-GPIO48-PadJ3_16)*%
X125000000Y-143540000D03*
%TO.N,unconnected-(U1-GPIO47-PadJ3_17)*%
X125000000Y-146080000D03*
%TO.N,unconnected-(U1-GPIO21-PadJ3_18)*%
X125000000Y-148620000D03*
%TO.N,unconnected-(U1-USB_D+{slash}GPIO20-PadJ3_19)*%
X125000000Y-151160000D03*
%TO.N,unconnected-(U1-USB_D-{slash}GPIO19-PadJ3_20)*%
X125000000Y-153700000D03*
%TO.N,GND*%
X125000000Y-156240000D03*
X125000000Y-158780000D03*
%TD*%
D10*
%TO.N,/IO13*%
%TO.C,SW4*%
X110249999Y-82104900D03*
X116750001Y-82104900D03*
%TO.N,GND*%
X110249999Y-86604901D03*
X116750001Y-86604901D03*
%TD*%
D11*
%TO.N,/CS*%
%TO.C,J2*%
X132500000Y-120879000D03*
D12*
%TO.N,/SCK*%
X132500000Y-118339000D03*
%TO.N,/MOSI*%
X132500000Y-115799000D03*
%TO.N,/MISO*%
X132500000Y-113259000D03*
%TO.N,/5V*%
X132500000Y-110719000D03*
%TO.N,GND*%
X132500000Y-108179000D03*
%TD*%
D10*
%TO.N,/IO14*%
%TO.C,SW1*%
X121249999Y-70604900D03*
X127750001Y-70604900D03*
%TO.N,GND*%
X121249999Y-75104901D03*
X127750001Y-75104901D03*
%TD*%
%TO.N,/IO15*%
%TO.C,SW3*%
X99249999Y-70604900D03*
X105750001Y-70604900D03*
%TO.N,GND*%
X99249999Y-75104901D03*
X105750001Y-75104901D03*
%TD*%
D15*
%TO.N,GND*%
X98000000Y-151500000D03*
%TD*%
%TA.AperFunction,Conductor*%
%TO.N,GND*%
G36*
X135012374Y-51000695D02*
G01*
X135063817Y-51003583D01*
X135328949Y-51018473D01*
X135342748Y-51020027D01*
X135660695Y-51074049D01*
X135674252Y-51077143D01*
X135984148Y-51166423D01*
X135997272Y-51171016D01*
X136295215Y-51294427D01*
X136307737Y-51300456D01*
X136590006Y-51456461D01*
X136601779Y-51463859D01*
X136864789Y-51650475D01*
X136875649Y-51659135D01*
X137116127Y-51874039D01*
X137125958Y-51883870D01*
X137304534Y-52083697D01*
X137340859Y-52124344D01*
X137349519Y-52135204D01*
X137476629Y-52314347D01*
X137499369Y-52380412D01*
X137499500Y-52386102D01*
X137499500Y-161584075D01*
X137479815Y-161651114D01*
X137476347Y-161656227D01*
X137341532Y-161844657D01*
X137332760Y-161855560D01*
X137115382Y-162096546D01*
X137105437Y-162106392D01*
X136862287Y-162321352D01*
X136851301Y-162330011D01*
X136756557Y-162396375D01*
X136585473Y-162516210D01*
X136573577Y-162523578D01*
X136288473Y-162678634D01*
X136275821Y-162684616D01*
X135975054Y-162806563D01*
X135961810Y-162811081D01*
X135649219Y-162898363D01*
X135635549Y-162901360D01*
X135315112Y-162952865D01*
X135301193Y-162954302D01*
X134973505Y-162969537D01*
X134966506Y-162969665D01*
X91924223Y-162539242D01*
X91857384Y-162518888D01*
X91812159Y-162465629D01*
X91802908Y-162396375D01*
X91832567Y-162333112D01*
X91866036Y-162306416D01*
X91951815Y-162259576D01*
X92084315Y-162187226D01*
X92313395Y-162015739D01*
X92515739Y-161813395D01*
X92687226Y-161584315D01*
X92824367Y-161333161D01*
X92924369Y-161065046D01*
X92985196Y-160785428D01*
X93005610Y-160500000D01*
X93005610Y-160499998D01*
X132994390Y-160499998D01*
X132994390Y-160500001D01*
X133014804Y-160785433D01*
X133075628Y-161065037D01*
X133075630Y-161065043D01*
X133075631Y-161065046D01*
X133128485Y-161206753D01*
X133175635Y-161333166D01*
X133312770Y-161584309D01*
X133312775Y-161584317D01*
X133484254Y-161813387D01*
X133484270Y-161813405D01*
X133686594Y-162015729D01*
X133686612Y-162015745D01*
X133915682Y-162187224D01*
X133915690Y-162187229D01*
X134166833Y-162324364D01*
X134166832Y-162324364D01*
X134166836Y-162324365D01*
X134166839Y-162324367D01*
X134434954Y-162424369D01*
X134434960Y-162424370D01*
X134434962Y-162424371D01*
X134714566Y-162485195D01*
X134714568Y-162485195D01*
X134714572Y-162485196D01*
X134968220Y-162503337D01*
X134999999Y-162505610D01*
X135000000Y-162505610D01*
X135000001Y-162505610D01*
X135028595Y-162503564D01*
X135285428Y-162485196D01*
X135375377Y-162465629D01*
X135565037Y-162424371D01*
X135565037Y-162424370D01*
X135565046Y-162424369D01*
X135833161Y-162324367D01*
X136084315Y-162187226D01*
X136313395Y-162015739D01*
X136515739Y-161813395D01*
X136687226Y-161584315D01*
X136824367Y-161333161D01*
X136924369Y-161065046D01*
X136985196Y-160785428D01*
X137005610Y-160500000D01*
X136985196Y-160214572D01*
X136945162Y-160030540D01*
X136924371Y-159934962D01*
X136924370Y-159934960D01*
X136924369Y-159934954D01*
X136824367Y-159666839D01*
X136744025Y-159519705D01*
X136687229Y-159415690D01*
X136687224Y-159415682D01*
X136515745Y-159186612D01*
X136515729Y-159186594D01*
X136313405Y-158984270D01*
X136313387Y-158984254D01*
X136084317Y-158812775D01*
X136084309Y-158812770D01*
X135833166Y-158675635D01*
X135833167Y-158675635D01*
X135725915Y-158635632D01*
X135565046Y-158575631D01*
X135565043Y-158575630D01*
X135565037Y-158575628D01*
X135285433Y-158514804D01*
X135000001Y-158494390D01*
X134999999Y-158494390D01*
X134714566Y-158514804D01*
X134434962Y-158575628D01*
X134166833Y-158675635D01*
X133915690Y-158812770D01*
X133915682Y-158812775D01*
X133686612Y-158984254D01*
X133686594Y-158984270D01*
X133484270Y-159186594D01*
X133484254Y-159186612D01*
X133312775Y-159415682D01*
X133312770Y-159415690D01*
X133175635Y-159666833D01*
X133075628Y-159934962D01*
X133014804Y-160214566D01*
X132994390Y-160499998D01*
X93005610Y-160499998D01*
X92985196Y-160214572D01*
X92945162Y-160030540D01*
X92924371Y-159934962D01*
X92924370Y-159934960D01*
X92924369Y-159934954D01*
X92824367Y-159666839D01*
X92744025Y-159519705D01*
X92687229Y-159415690D01*
X92687224Y-159415682D01*
X92515745Y-159186612D01*
X92515729Y-159186594D01*
X92313405Y-158984270D01*
X92313387Y-158984254D01*
X92084317Y-158812775D01*
X92084309Y-158812770D01*
X91833166Y-158675635D01*
X91833167Y-158675635D01*
X91725915Y-158635632D01*
X91565046Y-158575631D01*
X91565043Y-158575630D01*
X91565037Y-158575628D01*
X91285433Y-158514804D01*
X91000001Y-158494390D01*
X90999999Y-158494390D01*
X90714566Y-158514804D01*
X90434962Y-158575628D01*
X90166833Y-158675635D01*
X89915690Y-158812770D01*
X89915682Y-158812775D01*
X89686612Y-158984254D01*
X89686594Y-158984270D01*
X89484270Y-159186594D01*
X89484254Y-159186612D01*
X89312775Y-159415682D01*
X89312770Y-159415690D01*
X89175635Y-159666833D01*
X89075628Y-159934962D01*
X89014804Y-160214566D01*
X88994390Y-160499998D01*
X88994390Y-160500001D01*
X89014804Y-160785433D01*
X89075628Y-161065037D01*
X89075630Y-161065043D01*
X89075631Y-161065046D01*
X89128485Y-161206753D01*
X89175635Y-161333166D01*
X89312770Y-161584309D01*
X89312775Y-161584317D01*
X89484254Y-161813387D01*
X89484270Y-161813405D01*
X89528264Y-161857399D01*
X89561749Y-161918722D01*
X89556765Y-161988414D01*
X89514893Y-162044347D01*
X89449429Y-162068764D01*
X89381156Y-162053912D01*
X89368215Y-162045772D01*
X89121778Y-161868656D01*
X89111025Y-161859980D01*
X88873233Y-161645174D01*
X88863512Y-161635355D01*
X88651098Y-161395431D01*
X88642529Y-161384591D01*
X88523089Y-161214846D01*
X88500609Y-161148692D01*
X88500500Y-161143489D01*
X88500500Y-112999998D01*
X94192023Y-112999998D01*
X94192023Y-113000001D01*
X94211893Y-113227122D01*
X94211894Y-113227129D01*
X94270902Y-113447349D01*
X94270903Y-113447351D01*
X94270904Y-113447354D01*
X94292882Y-113494486D01*
X94367259Y-113653989D01*
X94367261Y-113653993D01*
X94498027Y-113840746D01*
X94498032Y-113840752D01*
X94659247Y-114001967D01*
X94659253Y-114001972D01*
X94846006Y-114132738D01*
X94846008Y-114132739D01*
X94846011Y-114132741D01*
X94890688Y-114153574D01*
X94899360Y-114157618D01*
X94951800Y-114203790D01*
X94970952Y-114270983D01*
X94950737Y-114337865D01*
X94899361Y-114382382D01*
X94846013Y-114407258D01*
X94846011Y-114407259D01*
X94659246Y-114538032D01*
X94498032Y-114699246D01*
X94367259Y-114886011D01*
X94367258Y-114886013D01*
X94270905Y-115092642D01*
X94211894Y-115312870D01*
X94211893Y-115312877D01*
X94192023Y-115539998D01*
X94192023Y-115540001D01*
X94211893Y-115767122D01*
X94211894Y-115767129D01*
X94270902Y-115987349D01*
X94270903Y-115987351D01*
X94270904Y-115987354D01*
X94292882Y-116034486D01*
X94367259Y-116193989D01*
X94367261Y-116193993D01*
X94498027Y-116380746D01*
X94498032Y-116380752D01*
X94659247Y-116541967D01*
X94659253Y-116541972D01*
X94846006Y-116672738D01*
X94846008Y-116672739D01*
X94846011Y-116672741D01*
X94899948Y-116697892D01*
X94899950Y-116697893D01*
X94952390Y-116744065D01*
X94971542Y-116811258D01*
X94951327Y-116878139D01*
X94899953Y-116922656D01*
X94846268Y-116947690D01*
X94772732Y-116999179D01*
X95342013Y-117568459D01*
X95293498Y-117581460D01*
X95171503Y-117651894D01*
X95071894Y-117751503D01*
X95001460Y-117873498D01*
X94988460Y-117922013D01*
X94419179Y-117352732D01*
X94367691Y-117426267D01*
X94271376Y-117632815D01*
X94271372Y-117632824D01*
X94212388Y-117852956D01*
X94212388Y-117852960D01*
X94192525Y-118079997D01*
X94192525Y-118080002D01*
X94212388Y-118307039D01*
X94212388Y-118307043D01*
X94271372Y-118527175D01*
X94271376Y-118527184D01*
X94367692Y-118733736D01*
X94367693Y-118733738D01*
X94419178Y-118807266D01*
X94419179Y-118807267D01*
X94988459Y-118237986D01*
X95001460Y-118286502D01*
X95071894Y-118408497D01*
X95171503Y-118508106D01*
X95293498Y-118578540D01*
X95342012Y-118591539D01*
X94772731Y-119160820D01*
X94846266Y-119212308D01*
X95052815Y-119308623D01*
X95052824Y-119308627D01*
X95272958Y-119367611D01*
X95499998Y-119387475D01*
X95500002Y-119387475D01*
X95727039Y-119367611D01*
X95727043Y-119367611D01*
X95947175Y-119308627D01*
X95947184Y-119308623D01*
X96153737Y-119212307D01*
X96227267Y-119160820D01*
X95657987Y-118591539D01*
X95706502Y-118578540D01*
X95828497Y-118508106D01*
X95928106Y-118408497D01*
X95998540Y-118286502D01*
X96011539Y-118237986D01*
X96580820Y-118807267D01*
X96632307Y-118733737D01*
X96728623Y-118527184D01*
X96728627Y-118527175D01*
X96787611Y-118307043D01*
X96787611Y-118307039D01*
X96807475Y-118080002D01*
X96807475Y-118079997D01*
X96787611Y-117852960D01*
X96787611Y-117852956D01*
X96728627Y-117632824D01*
X96728623Y-117632815D01*
X96632307Y-117426263D01*
X96632305Y-117426259D01*
X96580820Y-117352732D01*
X96011539Y-117922012D01*
X95998540Y-117873498D01*
X95928106Y-117751503D01*
X95828497Y-117651894D01*
X95706502Y-117581460D01*
X95657986Y-117568460D01*
X96227267Y-116999179D01*
X96227266Y-116999178D01*
X96153738Y-116947693D01*
X96153736Y-116947692D01*
X96100048Y-116922657D01*
X96047609Y-116876484D01*
X96028457Y-116809291D01*
X96048673Y-116742410D01*
X96100047Y-116697894D01*
X96153989Y-116672741D01*
X96340751Y-116541969D01*
X96501969Y-116380751D01*
X96632741Y-116193989D01*
X96729096Y-115987354D01*
X96788106Y-115767128D01*
X96807977Y-115540000D01*
X96788106Y-115312872D01*
X96729096Y-115092646D01*
X96632741Y-114886012D01*
X96501969Y-114699249D01*
X96340751Y-114538031D01*
X96340747Y-114538028D01*
X96340746Y-114538027D01*
X96153993Y-114407261D01*
X96153985Y-114407257D01*
X96100640Y-114382382D01*
X96048200Y-114336210D01*
X96029048Y-114269017D01*
X96049263Y-114202135D01*
X96100640Y-114157618D01*
X96105021Y-114155574D01*
X96153989Y-114132741D01*
X96340751Y-114001969D01*
X96501969Y-113840751D01*
X96632741Y-113653989D01*
X96729096Y-113447354D01*
X96788106Y-113227128D01*
X96807977Y-113000000D01*
X96788106Y-112772872D01*
X96729096Y-112552646D01*
X96632741Y-112346012D01*
X96501969Y-112159249D01*
X96340751Y-111998031D01*
X96340747Y-111998028D01*
X96340746Y-111998027D01*
X96340743Y-111998024D01*
X96321741Y-111984719D01*
X96278116Y-111930142D01*
X96270924Y-111860643D01*
X96302447Y-111798289D01*
X96362677Y-111762876D01*
X96379608Y-111759856D01*
X96409983Y-111756591D01*
X96544831Y-111706296D01*
X96660046Y-111620046D01*
X96746296Y-111504831D01*
X96796591Y-111369983D01*
X96803000Y-111310373D01*
X96802999Y-109609628D01*
X96796591Y-109550017D01*
X96774170Y-109489904D01*
X96746297Y-109415171D01*
X96746293Y-109415164D01*
X96660047Y-109299955D01*
X96660044Y-109299952D01*
X96544835Y-109213706D01*
X96544828Y-109213702D01*
X96409982Y-109163408D01*
X96409983Y-109163408D01*
X96350383Y-109157001D01*
X96350381Y-109157000D01*
X96350373Y-109157000D01*
X96350364Y-109157000D01*
X94649629Y-109157000D01*
X94649623Y-109157001D01*
X94590016Y-109163408D01*
X94455171Y-109213702D01*
X94455164Y-109213706D01*
X94339955Y-109299952D01*
X94339952Y-109299955D01*
X94253706Y-109415164D01*
X94253702Y-109415171D01*
X94203408Y-109550017D01*
X94199512Y-109586259D01*
X94197001Y-109609623D01*
X94197000Y-109609635D01*
X94197000Y-111310370D01*
X94197001Y-111310376D01*
X94203408Y-111369983D01*
X94253702Y-111504828D01*
X94253706Y-111504835D01*
X94339952Y-111620044D01*
X94339955Y-111620047D01*
X94455164Y-111706293D01*
X94455171Y-111706297D01*
X94494504Y-111720967D01*
X94590017Y-111756591D01*
X94620391Y-111759856D01*
X94684939Y-111786592D01*
X94724788Y-111843984D01*
X94727283Y-111913809D01*
X94691631Y-111973899D01*
X94678260Y-111984718D01*
X94659247Y-111998031D01*
X94498032Y-112159246D01*
X94367259Y-112346011D01*
X94367258Y-112346013D01*
X94270905Y-112552642D01*
X94211894Y-112772870D01*
X94211893Y-112772877D01*
X94192023Y-112999998D01*
X88500500Y-112999998D01*
X88500500Y-107979998D01*
X100869666Y-107979998D01*
X100869666Y-107980001D01*
X100888964Y-108200585D01*
X100888965Y-108200592D01*
X100946275Y-108414475D01*
X100946279Y-108414486D01*
X101036099Y-108607106D01*
X101039858Y-108615167D01*
X101166868Y-108796555D01*
X101323445Y-108953132D01*
X101504833Y-109080142D01*
X101566828Y-109109050D01*
X101628091Y-109137618D01*
X101680531Y-109183790D01*
X101699683Y-109250983D01*
X101679467Y-109317865D01*
X101628091Y-109362382D01*
X101504836Y-109419856D01*
X101504834Y-109419857D01*
X101323444Y-109546868D01*
X101166868Y-109703444D01*
X101039857Y-109884834D01*
X101039856Y-109884836D01*
X100946279Y-110085513D01*
X100946275Y-110085524D01*
X100888965Y-110299407D01*
X100888964Y-110299414D01*
X100869666Y-110519998D01*
X100869666Y-110520001D01*
X100888964Y-110740585D01*
X100888965Y-110740592D01*
X100946275Y-110954475D01*
X100946279Y-110954486D01*
X101039856Y-111155163D01*
X101039858Y-111155167D01*
X101166868Y-111336555D01*
X101323445Y-111493132D01*
X101504833Y-111620142D01*
X101566828Y-111649050D01*
X101628091Y-111677618D01*
X101680531Y-111723790D01*
X101699683Y-111790983D01*
X101679467Y-111857865D01*
X101628091Y-111902382D01*
X101504836Y-111959856D01*
X101504834Y-111959857D01*
X101323444Y-112086868D01*
X101166868Y-112243444D01*
X101039857Y-112424834D01*
X101039856Y-112424836D01*
X100946279Y-112625513D01*
X100946275Y-112625524D01*
X100888965Y-112839407D01*
X100888964Y-112839414D01*
X100869666Y-113059998D01*
X100869666Y-113060001D01*
X100888964Y-113280585D01*
X100888965Y-113280592D01*
X100946275Y-113494475D01*
X100946279Y-113494486D01*
X101020658Y-113653993D01*
X101039858Y-113695167D01*
X101166868Y-113876555D01*
X101323445Y-114033132D01*
X101504833Y-114160142D01*
X101566828Y-114189050D01*
X101628091Y-114217618D01*
X101680531Y-114263790D01*
X101699683Y-114330983D01*
X101679467Y-114397865D01*
X101628091Y-114442382D01*
X101504836Y-114499856D01*
X101504834Y-114499857D01*
X101323444Y-114626868D01*
X101166868Y-114783444D01*
X101039857Y-114964834D01*
X101039856Y-114964836D01*
X100946279Y-115165513D01*
X100946275Y-115165524D01*
X100888965Y-115379407D01*
X100888964Y-115379414D01*
X100869666Y-115599998D01*
X100869666Y-115600001D01*
X100888964Y-115820585D01*
X100888965Y-115820592D01*
X100946275Y-116034475D01*
X100946279Y-116034486D01*
X101020658Y-116193993D01*
X101039858Y-116235167D01*
X101166868Y-116416555D01*
X101323445Y-116573132D01*
X101504833Y-116700142D01*
X101566828Y-116729050D01*
X101628091Y-116757618D01*
X101680531Y-116803790D01*
X101699683Y-116870983D01*
X101679467Y-116937865D01*
X101628091Y-116982382D01*
X101504836Y-117039856D01*
X101504834Y-117039857D01*
X101323444Y-117166868D01*
X101166868Y-117323444D01*
X101039857Y-117504834D01*
X101039856Y-117504836D01*
X100946279Y-117705513D01*
X100946275Y-117705524D01*
X100888965Y-117919407D01*
X100888964Y-117919414D01*
X100869666Y-118139998D01*
X100869666Y-118140001D01*
X100888964Y-118360585D01*
X100888965Y-118360592D01*
X100946275Y-118574475D01*
X100946279Y-118574486D01*
X101039856Y-118775163D01*
X101039858Y-118775167D01*
X101166868Y-118956555D01*
X101323445Y-119113132D01*
X101504833Y-119240142D01*
X101566828Y-119269050D01*
X101628091Y-119297618D01*
X101680531Y-119343790D01*
X101699683Y-119410983D01*
X101679467Y-119477865D01*
X101628091Y-119522382D01*
X101504836Y-119579856D01*
X101504834Y-119579857D01*
X101323444Y-119706868D01*
X101166868Y-119863444D01*
X101039857Y-120044834D01*
X101039856Y-120044836D01*
X100946279Y-120245513D01*
X100946275Y-120245524D01*
X100888965Y-120459407D01*
X100888964Y-120459414D01*
X100869666Y-120679998D01*
X100869666Y-120680001D01*
X100888964Y-120900585D01*
X100888965Y-120900592D01*
X100946275Y-121114475D01*
X100946279Y-121114486D01*
X101039856Y-121315163D01*
X101039858Y-121315167D01*
X101166868Y-121496555D01*
X101323445Y-121653132D01*
X101504833Y-121780142D01*
X101523791Y-121788982D01*
X101628091Y-121837618D01*
X101680531Y-121883790D01*
X101699683Y-121950983D01*
X101679467Y-122017865D01*
X101628091Y-122062382D01*
X101504836Y-122119856D01*
X101504834Y-122119857D01*
X101323444Y-122246868D01*
X101166868Y-122403444D01*
X101039857Y-122584834D01*
X101039856Y-122584836D01*
X100946279Y-122785513D01*
X100946275Y-122785524D01*
X100888965Y-122999407D01*
X100888964Y-122999414D01*
X100869666Y-123219998D01*
X100869666Y-123220001D01*
X100888964Y-123440585D01*
X100888965Y-123440592D01*
X100946275Y-123654475D01*
X100946279Y-123654486D01*
X101039856Y-123855163D01*
X101039858Y-123855167D01*
X101166868Y-124036555D01*
X101323445Y-124193132D01*
X101504833Y-124320142D01*
X101566828Y-124349050D01*
X101628091Y-124377618D01*
X101680531Y-124423790D01*
X101699683Y-124490983D01*
X101679467Y-124557865D01*
X101628091Y-124602382D01*
X101504836Y-124659856D01*
X101504834Y-124659857D01*
X101323444Y-124786868D01*
X101166868Y-124943444D01*
X101039857Y-125124834D01*
X101039856Y-125124836D01*
X100946279Y-125325513D01*
X100946275Y-125325524D01*
X100888965Y-125539407D01*
X100888964Y-125539414D01*
X100869666Y-125759998D01*
X100869666Y-125760001D01*
X100888964Y-125980585D01*
X100888965Y-125980592D01*
X100946275Y-126194475D01*
X100946279Y-126194486D01*
X101039856Y-126395163D01*
X101039858Y-126395167D01*
X101166868Y-126576555D01*
X101323445Y-126733132D01*
X101504833Y-126860142D01*
X101566828Y-126889050D01*
X101628091Y-126917618D01*
X101680531Y-126963790D01*
X101699683Y-127030983D01*
X101679467Y-127097865D01*
X101628091Y-127142382D01*
X101504836Y-127199856D01*
X101504834Y-127199857D01*
X101323444Y-127326868D01*
X101166868Y-127483444D01*
X101039857Y-127664834D01*
X101039856Y-127664836D01*
X100946279Y-127865513D01*
X100946275Y-127865524D01*
X100888965Y-128079407D01*
X100888964Y-128079414D01*
X100869666Y-128299998D01*
X100869666Y-128300001D01*
X100888964Y-128520585D01*
X100888965Y-128520592D01*
X100946275Y-128734475D01*
X100946279Y-128734486D01*
X101039856Y-128935163D01*
X101039858Y-128935167D01*
X101166868Y-129116555D01*
X101323445Y-129273132D01*
X101504833Y-129400142D01*
X101566828Y-129429050D01*
X101628091Y-129457618D01*
X101680531Y-129503790D01*
X101699683Y-129570983D01*
X101679467Y-129637865D01*
X101628091Y-129682382D01*
X101504836Y-129739856D01*
X101504834Y-129739857D01*
X101323444Y-129866868D01*
X101166868Y-130023444D01*
X101039857Y-130204834D01*
X101039856Y-130204836D01*
X100946279Y-130405513D01*
X100946275Y-130405524D01*
X100888965Y-130619407D01*
X100888964Y-130619414D01*
X100869666Y-130839998D01*
X100869666Y-130840001D01*
X100888964Y-131060585D01*
X100888965Y-131060592D01*
X100946275Y-131274475D01*
X100946279Y-131274486D01*
X101039856Y-131475163D01*
X101039858Y-131475167D01*
X101166868Y-131656555D01*
X101323445Y-131813132D01*
X101504833Y-131940142D01*
X101566828Y-131969050D01*
X101628091Y-131997618D01*
X101680531Y-132043790D01*
X101699683Y-132110983D01*
X101679467Y-132177865D01*
X101628091Y-132222382D01*
X101504836Y-132279856D01*
X101504834Y-132279857D01*
X101323444Y-132406868D01*
X101166868Y-132563444D01*
X101039857Y-132744834D01*
X101039856Y-132744836D01*
X100946279Y-132945513D01*
X100946275Y-132945524D01*
X100888965Y-133159407D01*
X100888964Y-133159414D01*
X100869666Y-133379998D01*
X100869666Y-133380001D01*
X100888964Y-133600585D01*
X100888965Y-133600592D01*
X100946275Y-133814475D01*
X100946279Y-133814486D01*
X101039856Y-134015163D01*
X101039858Y-134015167D01*
X101166868Y-134196555D01*
X101323445Y-134353132D01*
X101504833Y-134480142D01*
X101566828Y-134509050D01*
X101628091Y-134537618D01*
X101680531Y-134583790D01*
X101699683Y-134650983D01*
X101679467Y-134717865D01*
X101628091Y-134762382D01*
X101504836Y-134819856D01*
X101504834Y-134819857D01*
X101323444Y-134946868D01*
X101166868Y-135103444D01*
X101039857Y-135284834D01*
X101039856Y-135284836D01*
X100946279Y-135485513D01*
X100946275Y-135485524D01*
X100888965Y-135699407D01*
X100888964Y-135699414D01*
X100869666Y-135919998D01*
X100869666Y-135920001D01*
X100888964Y-136140585D01*
X100888965Y-136140592D01*
X100946275Y-136354475D01*
X100946279Y-136354486D01*
X101039856Y-136555163D01*
X101039858Y-136555167D01*
X101166868Y-136736555D01*
X101323445Y-136893132D01*
X101504833Y-137020142D01*
X101566828Y-137049050D01*
X101628091Y-137077618D01*
X101680531Y-137123790D01*
X101699683Y-137190983D01*
X101679467Y-137257865D01*
X101628091Y-137302382D01*
X101504836Y-137359856D01*
X101504834Y-137359857D01*
X101323444Y-137486868D01*
X101166868Y-137643444D01*
X101039857Y-137824834D01*
X101039856Y-137824836D01*
X100946279Y-138025513D01*
X100946275Y-138025524D01*
X100888965Y-138239407D01*
X100888964Y-138239414D01*
X100869666Y-138459998D01*
X100869666Y-138460001D01*
X100888964Y-138680585D01*
X100888965Y-138680592D01*
X100946275Y-138894475D01*
X100946279Y-138894486D01*
X101039856Y-139095163D01*
X101039858Y-139095167D01*
X101166868Y-139276555D01*
X101323445Y-139433132D01*
X101504833Y-139560142D01*
X101566828Y-139589050D01*
X101628091Y-139617618D01*
X101680531Y-139663790D01*
X101699683Y-139730983D01*
X101679467Y-139797865D01*
X101628091Y-139842382D01*
X101504836Y-139899856D01*
X101504834Y-139899857D01*
X101323444Y-140026868D01*
X101166868Y-140183444D01*
X101039857Y-140364834D01*
X101039856Y-140364836D01*
X100946279Y-140565513D01*
X100946275Y-140565524D01*
X100888965Y-140779407D01*
X100888964Y-140779414D01*
X100869666Y-140999998D01*
X100869666Y-141000001D01*
X100888964Y-141220585D01*
X100888965Y-141220592D01*
X100946275Y-141434475D01*
X100946279Y-141434486D01*
X101039856Y-141635163D01*
X101039858Y-141635167D01*
X101166868Y-141816555D01*
X101323445Y-141973132D01*
X101504833Y-142100142D01*
X101566828Y-142129050D01*
X101628091Y-142157618D01*
X101680531Y-142203790D01*
X101699683Y-142270983D01*
X101679467Y-142337865D01*
X101628091Y-142382382D01*
X101504836Y-142439856D01*
X101504834Y-142439857D01*
X101323444Y-142566868D01*
X101166868Y-142723444D01*
X101039857Y-142904834D01*
X101039856Y-142904836D01*
X100946279Y-143105513D01*
X100946275Y-143105524D01*
X100888965Y-143319407D01*
X100888964Y-143319414D01*
X100869666Y-143539998D01*
X100869666Y-143540001D01*
X100888964Y-143760585D01*
X100888965Y-143760592D01*
X100946275Y-143974475D01*
X100946279Y-143974486D01*
X101039856Y-144175163D01*
X101039858Y-144175167D01*
X101166868Y-144356555D01*
X101323445Y-144513132D01*
X101504833Y-144640142D01*
X101566828Y-144669050D01*
X101628091Y-144697618D01*
X101680531Y-144743790D01*
X101699683Y-144810983D01*
X101679467Y-144877865D01*
X101628091Y-144922382D01*
X101504836Y-144979856D01*
X101504834Y-144979857D01*
X101323444Y-145106868D01*
X101166868Y-145263444D01*
X101039857Y-145444834D01*
X101039856Y-145444836D01*
X100946279Y-145645513D01*
X100946275Y-145645524D01*
X100888965Y-145859407D01*
X100888964Y-145859414D01*
X100869666Y-146079998D01*
X100869666Y-146080001D01*
X100888964Y-146300585D01*
X100888965Y-146300592D01*
X100946275Y-146514475D01*
X100946279Y-146514486D01*
X101039856Y-146715163D01*
X101039858Y-146715167D01*
X101166868Y-146896555D01*
X101323445Y-147053132D01*
X101504833Y-147180142D01*
X101566828Y-147209050D01*
X101628091Y-147237618D01*
X101680531Y-147283790D01*
X101699683Y-147350983D01*
X101679467Y-147417865D01*
X101628091Y-147462382D01*
X101504836Y-147519856D01*
X101504834Y-147519857D01*
X101323444Y-147646868D01*
X101166868Y-147803444D01*
X101039857Y-147984834D01*
X101039856Y-147984836D01*
X100946279Y-148185513D01*
X100946275Y-148185524D01*
X100888965Y-148399407D01*
X100888964Y-148399414D01*
X100869666Y-148619998D01*
X100869666Y-148620001D01*
X100888964Y-148840585D01*
X100888965Y-148840592D01*
X100946275Y-149054475D01*
X100946279Y-149054486D01*
X101039856Y-149255163D01*
X101039858Y-149255167D01*
X101166868Y-149436555D01*
X101323445Y-149593132D01*
X101504833Y-149720142D01*
X101566828Y-149749050D01*
X101628091Y-149777618D01*
X101680531Y-149823790D01*
X101699683Y-149890983D01*
X101679467Y-149957865D01*
X101628091Y-150002382D01*
X101504836Y-150059856D01*
X101504834Y-150059857D01*
X101323444Y-150186868D01*
X101166868Y-150343444D01*
X101039857Y-150524834D01*
X101039856Y-150524836D01*
X100946279Y-150725513D01*
X100946275Y-150725524D01*
X100888965Y-150939407D01*
X100888964Y-150939414D01*
X100869666Y-151159998D01*
X100869666Y-151160001D01*
X100888964Y-151380585D01*
X100888965Y-151380592D01*
X100946275Y-151594475D01*
X100946279Y-151594486D01*
X101039856Y-151795163D01*
X101039858Y-151795167D01*
X101166868Y-151976555D01*
X101323445Y-152133132D01*
X101504833Y-152260142D01*
X101566828Y-152289050D01*
X101628091Y-152317618D01*
X101680531Y-152363790D01*
X101699683Y-152430983D01*
X101679467Y-152497865D01*
X101628091Y-152542382D01*
X101504836Y-152599856D01*
X101504834Y-152599857D01*
X101323444Y-152726868D01*
X101166868Y-152883444D01*
X101039857Y-153064834D01*
X101039856Y-153064836D01*
X100946279Y-153265513D01*
X100946275Y-153265524D01*
X100888965Y-153479407D01*
X100888964Y-153479414D01*
X100869666Y-153699998D01*
X100869666Y-153700001D01*
X100888964Y-153920585D01*
X100888965Y-153920592D01*
X100946275Y-154134475D01*
X100946279Y-154134486D01*
X101039856Y-154335163D01*
X101039858Y-154335167D01*
X101166868Y-154516555D01*
X101323445Y-154673132D01*
X101504833Y-154800142D01*
X101566828Y-154829050D01*
X101628091Y-154857618D01*
X101680531Y-154903790D01*
X101699683Y-154970983D01*
X101679467Y-155037865D01*
X101628091Y-155082382D01*
X101504836Y-155139856D01*
X101504834Y-155139857D01*
X101323444Y-155266868D01*
X101166868Y-155423444D01*
X101039857Y-155604834D01*
X101039856Y-155604836D01*
X100946279Y-155805513D01*
X100946275Y-155805524D01*
X100888965Y-156019407D01*
X100888964Y-156019414D01*
X100869666Y-156239998D01*
X100869666Y-156240001D01*
X100888964Y-156460585D01*
X100888965Y-156460592D01*
X100946275Y-156674475D01*
X100946279Y-156674486D01*
X100981492Y-156750000D01*
X101039858Y-156875167D01*
X101166868Y-157056555D01*
X101323445Y-157213132D01*
X101504833Y-157340142D01*
X101628682Y-157397893D01*
X101681122Y-157444065D01*
X101700274Y-157511258D01*
X101680059Y-157578139D01*
X101628683Y-157622657D01*
X101505084Y-157680293D01*
X101439657Y-157726104D01*
X102002424Y-158288871D01*
X101943147Y-158304755D01*
X101826853Y-158371898D01*
X101731898Y-158466853D01*
X101664755Y-158583147D01*
X101648871Y-158642424D01*
X101086104Y-158079657D01*
X101040293Y-158145084D01*
X100946749Y-158345690D01*
X100946745Y-158345699D01*
X100889461Y-158559490D01*
X100889459Y-158559500D01*
X100870168Y-158779999D01*
X100870168Y-158780000D01*
X100889459Y-159000499D01*
X100889461Y-159000509D01*
X100946745Y-159214300D01*
X100946749Y-159214309D01*
X101040295Y-159414919D01*
X101086103Y-159480341D01*
X101086105Y-159480342D01*
X101648871Y-158917575D01*
X101664755Y-158976853D01*
X101731898Y-159093147D01*
X101826853Y-159188102D01*
X101943147Y-159255245D01*
X102002424Y-159271128D01*
X101439656Y-159833894D01*
X101505083Y-159879706D01*
X101505085Y-159879707D01*
X101705690Y-159973250D01*
X101705699Y-159973254D01*
X101919490Y-160030538D01*
X101919500Y-160030540D01*
X102139999Y-160049832D01*
X102140001Y-160049832D01*
X102360499Y-160030540D01*
X102360509Y-160030538D01*
X102574300Y-159973254D01*
X102574309Y-159973250D01*
X102774915Y-159879706D01*
X102840342Y-159833894D01*
X102277575Y-159271127D01*
X102336853Y-159255245D01*
X102453147Y-159188102D01*
X102548102Y-159093147D01*
X102615245Y-158976853D01*
X102631128Y-158917575D01*
X103193894Y-159480342D01*
X103239706Y-159414915D01*
X103333250Y-159214309D01*
X103333254Y-159214300D01*
X103390538Y-159000509D01*
X103390540Y-159000499D01*
X103409832Y-158780000D01*
X103409832Y-158779999D01*
X103390540Y-158559500D01*
X103390538Y-158559490D01*
X103333254Y-158345699D01*
X103333250Y-158345690D01*
X103239707Y-158145085D01*
X103239706Y-158145083D01*
X103193894Y-158079657D01*
X103193894Y-158079656D01*
X102631127Y-158642423D01*
X102615245Y-158583147D01*
X102548102Y-158466853D01*
X102453147Y-158371898D01*
X102336853Y-158304755D01*
X102277575Y-158288872D01*
X102840342Y-157726105D01*
X102840341Y-157726103D01*
X102774919Y-157680295D01*
X102651316Y-157622657D01*
X102598877Y-157576484D01*
X102579725Y-157509291D01*
X102599941Y-157442410D01*
X102651312Y-157397895D01*
X102775167Y-157340142D01*
X102956555Y-157213132D01*
X103113132Y-157056555D01*
X103240142Y-156875167D01*
X103333723Y-156674480D01*
X103391035Y-156460591D01*
X103410334Y-156240000D01*
X103391035Y-156019409D01*
X103333723Y-155805520D01*
X103240142Y-155604833D01*
X103113132Y-155423445D01*
X102956555Y-155266868D01*
X102775167Y-155139858D01*
X102651907Y-155082381D01*
X102599468Y-155036210D01*
X102580316Y-154969017D01*
X102600531Y-154902136D01*
X102651908Y-154857618D01*
X102775167Y-154800142D01*
X102956555Y-154673132D01*
X103113132Y-154516555D01*
X103240142Y-154335167D01*
X103333723Y-154134480D01*
X103391035Y-153920591D01*
X103410334Y-153700000D01*
X103391035Y-153479409D01*
X103333723Y-153265520D01*
X103240142Y-153064833D01*
X103113132Y-152883445D01*
X102956555Y-152726868D01*
X102775167Y-152599858D01*
X102651907Y-152542381D01*
X102599468Y-152496210D01*
X102580316Y-152429017D01*
X102600531Y-152362136D01*
X102651908Y-152317618D01*
X102775167Y-152260142D01*
X102956555Y-152133132D01*
X103113132Y-151976555D01*
X103240142Y-151795167D01*
X103333723Y-151594480D01*
X103391035Y-151380591D01*
X103410334Y-151160000D01*
X103391035Y-150939409D01*
X103333723Y-150725520D01*
X103240142Y-150524833D01*
X103113132Y-150343445D01*
X102956555Y-150186868D01*
X102775167Y-150059858D01*
X102651907Y-150002381D01*
X102599468Y-149956210D01*
X102580316Y-149889017D01*
X102600531Y-149822136D01*
X102651908Y-149777618D01*
X102775167Y-149720142D01*
X102956555Y-149593132D01*
X103113132Y-149436555D01*
X103240142Y-149255167D01*
X103333723Y-149054480D01*
X103391035Y-148840591D01*
X103410334Y-148620000D01*
X103391035Y-148399409D01*
X103333723Y-148185520D01*
X103240142Y-147984833D01*
X103113132Y-147803445D01*
X102956555Y-147646868D01*
X102775167Y-147519858D01*
X102651907Y-147462381D01*
X102599468Y-147416210D01*
X102580316Y-147349017D01*
X102600531Y-147282136D01*
X102651908Y-147237618D01*
X102775167Y-147180142D01*
X102956555Y-147053132D01*
X103113132Y-146896555D01*
X103240142Y-146715167D01*
X103333723Y-146514480D01*
X103391035Y-146300591D01*
X103410334Y-146080000D01*
X103391035Y-145859409D01*
X103333723Y-145645520D01*
X103240142Y-145444833D01*
X103113132Y-145263445D01*
X102956555Y-145106868D01*
X102775167Y-144979858D01*
X102651907Y-144922381D01*
X102599468Y-144876210D01*
X102580316Y-144809017D01*
X102600531Y-144742136D01*
X102651908Y-144697618D01*
X102775167Y-144640142D01*
X102956555Y-144513132D01*
X103113132Y-144356555D01*
X103240142Y-144175167D01*
X103333723Y-143974480D01*
X103391035Y-143760591D01*
X103410334Y-143540000D01*
X103391035Y-143319409D01*
X103333723Y-143105520D01*
X103240142Y-142904833D01*
X103113132Y-142723445D01*
X102956555Y-142566868D01*
X102775167Y-142439858D01*
X102651907Y-142382381D01*
X102599468Y-142336210D01*
X102580316Y-142269017D01*
X102600531Y-142202136D01*
X102651908Y-142157618D01*
X102775167Y-142100142D01*
X102956555Y-141973132D01*
X103113132Y-141816555D01*
X103240142Y-141635167D01*
X103333723Y-141434480D01*
X103391035Y-141220591D01*
X103410334Y-141000000D01*
X103391035Y-140779409D01*
X103333723Y-140565520D01*
X103240142Y-140364833D01*
X103113132Y-140183445D01*
X102956555Y-140026868D01*
X102775167Y-139899858D01*
X102651907Y-139842381D01*
X102599468Y-139796210D01*
X102580316Y-139729017D01*
X102600531Y-139662136D01*
X102651908Y-139617618D01*
X102775167Y-139560142D01*
X102956555Y-139433132D01*
X103113132Y-139276555D01*
X103240142Y-139095167D01*
X103333723Y-138894480D01*
X103391035Y-138680591D01*
X103410334Y-138460000D01*
X103391035Y-138239409D01*
X103333723Y-138025520D01*
X103240142Y-137824833D01*
X103113132Y-137643445D01*
X102956555Y-137486868D01*
X102775167Y-137359858D01*
X102651907Y-137302381D01*
X102599468Y-137256210D01*
X102580316Y-137189017D01*
X102600531Y-137122136D01*
X102651908Y-137077618D01*
X102775167Y-137020142D01*
X102956555Y-136893132D01*
X103113132Y-136736555D01*
X103240142Y-136555167D01*
X103333723Y-136354480D01*
X103391035Y-136140591D01*
X103410334Y-135920000D01*
X103391035Y-135699409D01*
X103333723Y-135485520D01*
X103240142Y-135284833D01*
X103113132Y-135103445D01*
X102956555Y-134946868D01*
X102775167Y-134819858D01*
X102651907Y-134762381D01*
X102599468Y-134716210D01*
X102580316Y-134649017D01*
X102600531Y-134582136D01*
X102651908Y-134537618D01*
X102775167Y-134480142D01*
X102956555Y-134353132D01*
X103113132Y-134196555D01*
X103240142Y-134015167D01*
X103333723Y-133814480D01*
X103391035Y-133600591D01*
X103410334Y-133380000D01*
X103391035Y-133159409D01*
X103333723Y-132945520D01*
X103240142Y-132744833D01*
X103113132Y-132563445D01*
X102956555Y-132406868D01*
X102775167Y-132279858D01*
X102651907Y-132222381D01*
X102599468Y-132176210D01*
X102580316Y-132109017D01*
X102600531Y-132042136D01*
X102651908Y-131997618D01*
X102775167Y-131940142D01*
X102956555Y-131813132D01*
X103113132Y-131656555D01*
X103240142Y-131475167D01*
X103333723Y-131274480D01*
X103391035Y-131060591D01*
X103410334Y-130840000D01*
X103391035Y-130619409D01*
X103333723Y-130405520D01*
X103240142Y-130204833D01*
X103113132Y-130023445D01*
X102956555Y-129866868D01*
X102775167Y-129739858D01*
X102651907Y-129682381D01*
X102599468Y-129636210D01*
X102580316Y-129569017D01*
X102600531Y-129502136D01*
X102651908Y-129457618D01*
X102775167Y-129400142D01*
X102956555Y-129273132D01*
X103113132Y-129116555D01*
X103240142Y-128935167D01*
X103333723Y-128734480D01*
X103391035Y-128520591D01*
X103410334Y-128300000D01*
X103391035Y-128079409D01*
X103333723Y-127865520D01*
X103240142Y-127664833D01*
X103113132Y-127483445D01*
X102956555Y-127326868D01*
X102775167Y-127199858D01*
X102651907Y-127142381D01*
X102599468Y-127096210D01*
X102580316Y-127029017D01*
X102600531Y-126962136D01*
X102651908Y-126917618D01*
X102775167Y-126860142D01*
X102956555Y-126733132D01*
X103113132Y-126576555D01*
X103240142Y-126395167D01*
X103333723Y-126194480D01*
X103391035Y-125980591D01*
X103410334Y-125760000D01*
X103391035Y-125539409D01*
X103333723Y-125325520D01*
X103240142Y-125124833D01*
X103113132Y-124943445D01*
X102956555Y-124786868D01*
X102775167Y-124659858D01*
X102651907Y-124602381D01*
X102599468Y-124556210D01*
X102580316Y-124489017D01*
X102600531Y-124422136D01*
X102651908Y-124377618D01*
X102775167Y-124320142D01*
X102956555Y-124193132D01*
X103113132Y-124036555D01*
X103240142Y-123855167D01*
X103333723Y-123654480D01*
X103391035Y-123440591D01*
X103410334Y-123220000D01*
X103391035Y-122999409D01*
X103333723Y-122785520D01*
X103240142Y-122584833D01*
X103113132Y-122403445D01*
X102956555Y-122246868D01*
X102775167Y-122119858D01*
X102651907Y-122062381D01*
X102599468Y-122016210D01*
X102580316Y-121949017D01*
X102600531Y-121882136D01*
X102651908Y-121837618D01*
X102775167Y-121780142D01*
X102956555Y-121653132D01*
X103113132Y-121496555D01*
X103240142Y-121315167D01*
X103333723Y-121114480D01*
X103391035Y-120900591D01*
X103410334Y-120680000D01*
X103391035Y-120459409D01*
X103333723Y-120245520D01*
X103240142Y-120044833D01*
X103113132Y-119863445D01*
X102956555Y-119706868D01*
X102775167Y-119579858D01*
X102766893Y-119576000D01*
X102651908Y-119522382D01*
X102599468Y-119476210D01*
X102580316Y-119409017D01*
X102600531Y-119342136D01*
X102651908Y-119297618D01*
X102775167Y-119240142D01*
X102956555Y-119113132D01*
X103113132Y-118956555D01*
X103240142Y-118775167D01*
X103333723Y-118574480D01*
X103391035Y-118360591D01*
X103410334Y-118140000D01*
X103391035Y-117919409D01*
X103333723Y-117705520D01*
X103240142Y-117504833D01*
X103113132Y-117323445D01*
X102956555Y-117166868D01*
X102775167Y-117039858D01*
X102651907Y-116982381D01*
X102599468Y-116936210D01*
X102580316Y-116869017D01*
X102600531Y-116802136D01*
X102651908Y-116757618D01*
X102775167Y-116700142D01*
X102956555Y-116573132D01*
X103113132Y-116416555D01*
X103240142Y-116235167D01*
X103333723Y-116034480D01*
X103391035Y-115820591D01*
X103410334Y-115600000D01*
X103391035Y-115379409D01*
X103333723Y-115165520D01*
X103240142Y-114964833D01*
X103113132Y-114783445D01*
X102956555Y-114626868D01*
X102775167Y-114499858D01*
X102651907Y-114442381D01*
X102599468Y-114396210D01*
X102580316Y-114329017D01*
X102600531Y-114262136D01*
X102651908Y-114217618D01*
X102775167Y-114160142D01*
X102956555Y-114033132D01*
X103113132Y-113876555D01*
X103240142Y-113695167D01*
X103333723Y-113494480D01*
X103391035Y-113280591D01*
X103410334Y-113060000D01*
X103391035Y-112839409D01*
X103333723Y-112625520D01*
X103240142Y-112424833D01*
X103113132Y-112243445D01*
X102956555Y-112086868D01*
X102775167Y-111959858D01*
X102651907Y-111902381D01*
X102599468Y-111856210D01*
X102580316Y-111789017D01*
X102600531Y-111722136D01*
X102651908Y-111677618D01*
X102775167Y-111620142D01*
X102956555Y-111493132D01*
X103113132Y-111336555D01*
X103240142Y-111155167D01*
X103333723Y-110954480D01*
X103391035Y-110740591D01*
X103410334Y-110520000D01*
X103391035Y-110299409D01*
X103333723Y-110085520D01*
X103240142Y-109884833D01*
X103113132Y-109703445D01*
X102956555Y-109546868D01*
X102775167Y-109419858D01*
X102765111Y-109415169D01*
X102651908Y-109362382D01*
X102599468Y-109316210D01*
X102580316Y-109249017D01*
X102600531Y-109182136D01*
X102651908Y-109137618D01*
X102775167Y-109080142D01*
X102956555Y-108953132D01*
X103113132Y-108796555D01*
X103240142Y-108615167D01*
X103333723Y-108414480D01*
X103391035Y-108200591D01*
X103410334Y-107980000D01*
X103410334Y-107979998D01*
X123729666Y-107979998D01*
X123729666Y-107980001D01*
X123748964Y-108200585D01*
X123748965Y-108200592D01*
X123806275Y-108414475D01*
X123806279Y-108414486D01*
X123896099Y-108607106D01*
X123899858Y-108615167D01*
X124026868Y-108796555D01*
X124183445Y-108953132D01*
X124364833Y-109080142D01*
X124426828Y-109109050D01*
X124488091Y-109137618D01*
X124540531Y-109183790D01*
X124559683Y-109250983D01*
X124539467Y-109317865D01*
X124488091Y-109362382D01*
X124364836Y-109419856D01*
X124364834Y-109419857D01*
X124183444Y-109546868D01*
X124026868Y-109703444D01*
X123899857Y-109884834D01*
X123899856Y-109884836D01*
X123806279Y-110085513D01*
X123806275Y-110085524D01*
X123748965Y-110299407D01*
X123748964Y-110299414D01*
X123729666Y-110519998D01*
X123729666Y-110520001D01*
X123748964Y-110740585D01*
X123748965Y-110740592D01*
X123806275Y-110954475D01*
X123806279Y-110954486D01*
X123899856Y-111155163D01*
X123899858Y-111155167D01*
X124026868Y-111336555D01*
X124183445Y-111493132D01*
X124364833Y-111620142D01*
X124426828Y-111649050D01*
X124488091Y-111677618D01*
X124540531Y-111723790D01*
X124559683Y-111790983D01*
X124539467Y-111857865D01*
X124488091Y-111902382D01*
X124364836Y-111959856D01*
X124364834Y-111959857D01*
X124183444Y-112086868D01*
X124026868Y-112243444D01*
X123899857Y-112424834D01*
X123899856Y-112424836D01*
X123806279Y-112625513D01*
X123806275Y-112625524D01*
X123748965Y-112839407D01*
X123748964Y-112839414D01*
X123729666Y-113059998D01*
X123729666Y-113060001D01*
X123748964Y-113280585D01*
X123748965Y-113280592D01*
X123806275Y-113494475D01*
X123806279Y-113494486D01*
X123880658Y-113653993D01*
X123899858Y-113695167D01*
X124026868Y-113876555D01*
X124183445Y-114033132D01*
X124364833Y-114160142D01*
X124426828Y-114189050D01*
X124488091Y-114217618D01*
X124540531Y-114263790D01*
X124559683Y-114330983D01*
X124539467Y-114397865D01*
X124488091Y-114442382D01*
X124364836Y-114499856D01*
X124364834Y-114499857D01*
X124183444Y-114626868D01*
X124026868Y-114783444D01*
X123899857Y-114964834D01*
X123899856Y-114964836D01*
X123806279Y-115165513D01*
X123806275Y-115165524D01*
X123748965Y-115379407D01*
X123748964Y-115379414D01*
X123729666Y-115599998D01*
X123729666Y-115600001D01*
X123748964Y-115820585D01*
X123748965Y-115820592D01*
X123806275Y-116034475D01*
X123806279Y-116034486D01*
X123880658Y-116193993D01*
X123899858Y-116235167D01*
X124026868Y-116416555D01*
X124183445Y-116573132D01*
X124364833Y-116700142D01*
X124426828Y-116729050D01*
X124488091Y-116757618D01*
X124540531Y-116803790D01*
X124559683Y-116870983D01*
X124539467Y-116937865D01*
X124488091Y-116982382D01*
X124364836Y-117039856D01*
X124364834Y-117039857D01*
X124183444Y-117166868D01*
X124026868Y-117323444D01*
X123899857Y-117504834D01*
X123899856Y-117504836D01*
X123806279Y-117705513D01*
X123806275Y-117705524D01*
X123748965Y-117919407D01*
X123748964Y-117919414D01*
X123729666Y-118139998D01*
X123729666Y-118140001D01*
X123748964Y-118360585D01*
X123748965Y-118360592D01*
X123806275Y-118574475D01*
X123806279Y-118574486D01*
X123899856Y-118775163D01*
X123899858Y-118775167D01*
X124026868Y-118956555D01*
X124183445Y-119113132D01*
X124364833Y-119240142D01*
X124426828Y-119269050D01*
X124488091Y-119297618D01*
X124540531Y-119343790D01*
X124559683Y-119410983D01*
X124539467Y-119477865D01*
X124488091Y-119522382D01*
X124364836Y-119579856D01*
X124364834Y-119579857D01*
X124183444Y-119706868D01*
X124026868Y-119863444D01*
X123899857Y-120044834D01*
X123899856Y-120044836D01*
X123806279Y-120245513D01*
X123806275Y-120245524D01*
X123748965Y-120459407D01*
X123748964Y-120459414D01*
X123729666Y-120679998D01*
X123729666Y-120680001D01*
X123748964Y-120900585D01*
X123748965Y-120900592D01*
X123806275Y-121114475D01*
X123806279Y-121114486D01*
X123899856Y-121315163D01*
X123899858Y-121315167D01*
X124026868Y-121496555D01*
X124183445Y-121653132D01*
X124364833Y-121780142D01*
X124383791Y-121788982D01*
X124488091Y-121837618D01*
X124540531Y-121883790D01*
X124559683Y-121950983D01*
X124539467Y-122017865D01*
X124488091Y-122062382D01*
X124364836Y-122119856D01*
X124364834Y-122119857D01*
X124183444Y-122246868D01*
X124026868Y-122403444D01*
X123899857Y-122584834D01*
X123899856Y-122584836D01*
X123806279Y-122785513D01*
X123806275Y-122785524D01*
X123748965Y-122999407D01*
X123748964Y-122999414D01*
X123729666Y-123219998D01*
X123729666Y-123220001D01*
X123748964Y-123440585D01*
X123748965Y-123440592D01*
X123806275Y-123654475D01*
X123806279Y-123654486D01*
X123899856Y-123855163D01*
X123899858Y-123855167D01*
X124026868Y-124036555D01*
X124183445Y-124193132D01*
X124364833Y-124320142D01*
X124426828Y-124349050D01*
X124488091Y-124377618D01*
X124540531Y-124423790D01*
X124559683Y-124490983D01*
X124539467Y-124557865D01*
X124488091Y-124602382D01*
X124364836Y-124659856D01*
X124364834Y-124659857D01*
X124183444Y-124786868D01*
X124026868Y-124943444D01*
X123899857Y-125124834D01*
X123899856Y-125124836D01*
X123806279Y-125325513D01*
X123806275Y-125325524D01*
X123748965Y-125539407D01*
X123748964Y-125539414D01*
X123729666Y-125759998D01*
X123729666Y-125760001D01*
X123748964Y-125980585D01*
X123748965Y-125980592D01*
X123806275Y-126194475D01*
X123806279Y-126194486D01*
X123899856Y-126395163D01*
X123899858Y-126395167D01*
X124026868Y-126576555D01*
X124183445Y-126733132D01*
X124364833Y-126860142D01*
X124426828Y-126889050D01*
X124488091Y-126917618D01*
X124540531Y-126963790D01*
X124559683Y-127030983D01*
X124539467Y-127097865D01*
X124488091Y-127142382D01*
X124364836Y-127199856D01*
X124364834Y-127199857D01*
X124183444Y-127326868D01*
X124026868Y-127483444D01*
X123899857Y-127664834D01*
X123899856Y-127664836D01*
X123806279Y-127865513D01*
X123806275Y-127865524D01*
X123748965Y-128079407D01*
X123748964Y-128079414D01*
X123729666Y-128299998D01*
X123729666Y-128300001D01*
X123748964Y-128520585D01*
X123748965Y-128520592D01*
X123806275Y-128734475D01*
X123806279Y-128734486D01*
X123899856Y-128935163D01*
X123899858Y-128935167D01*
X124026868Y-129116555D01*
X124183445Y-129273132D01*
X124364833Y-129400142D01*
X124426828Y-129429050D01*
X124488091Y-129457618D01*
X124540531Y-129503790D01*
X124559683Y-129570983D01*
X124539467Y-129637865D01*
X124488091Y-129682382D01*
X124364836Y-129739856D01*
X124364834Y-129739857D01*
X124183444Y-129866868D01*
X124026868Y-130023444D01*
X123899857Y-130204834D01*
X123899856Y-130204836D01*
X123806279Y-130405513D01*
X123806275Y-130405524D01*
X123748965Y-130619407D01*
X123748964Y-130619414D01*
X123729666Y-130839998D01*
X123729666Y-130840001D01*
X123748964Y-131060585D01*
X123748965Y-131060592D01*
X123806275Y-131274475D01*
X123806279Y-131274486D01*
X123899856Y-131475163D01*
X123899858Y-131475167D01*
X124026868Y-131656555D01*
X124183445Y-131813132D01*
X124364833Y-131940142D01*
X124426828Y-131969050D01*
X124488091Y-131997618D01*
X124540531Y-132043790D01*
X124559683Y-132110983D01*
X124539467Y-132177865D01*
X124488091Y-132222382D01*
X124364836Y-132279856D01*
X124364834Y-132279857D01*
X124183444Y-132406868D01*
X124026868Y-132563444D01*
X123899857Y-132744834D01*
X123899856Y-132744836D01*
X123806279Y-132945513D01*
X123806275Y-132945524D01*
X123748965Y-133159407D01*
X123748964Y-133159414D01*
X123729666Y-133379998D01*
X123729666Y-133380001D01*
X123748964Y-133600585D01*
X123748965Y-133600592D01*
X123806275Y-133814475D01*
X123806279Y-133814486D01*
X123899856Y-134015163D01*
X123899858Y-134015167D01*
X124026868Y-134196555D01*
X124183445Y-134353132D01*
X124364833Y-134480142D01*
X124426828Y-134509050D01*
X124488091Y-134537618D01*
X124540531Y-134583790D01*
X124559683Y-134650983D01*
X124539467Y-134717865D01*
X124488091Y-134762382D01*
X124364836Y-134819856D01*
X124364834Y-134819857D01*
X124183444Y-134946868D01*
X124026868Y-135103444D01*
X123899857Y-135284834D01*
X123899856Y-135284836D01*
X123806279Y-135485513D01*
X123806275Y-135485524D01*
X123748965Y-135699407D01*
X123748964Y-135699414D01*
X123729666Y-135919998D01*
X123729666Y-135920001D01*
X123748964Y-136140585D01*
X123748965Y-136140592D01*
X123806275Y-136354475D01*
X123806279Y-136354486D01*
X123899856Y-136555163D01*
X123899858Y-136555167D01*
X124026868Y-136736555D01*
X124183445Y-136893132D01*
X124364833Y-137020142D01*
X124426828Y-137049050D01*
X124488091Y-137077618D01*
X124540531Y-137123790D01*
X124559683Y-137190983D01*
X124539467Y-137257865D01*
X124488091Y-137302382D01*
X124364836Y-137359856D01*
X124364834Y-137359857D01*
X124183444Y-137486868D01*
X124026868Y-137643444D01*
X123899857Y-137824834D01*
X123899856Y-137824836D01*
X123806279Y-138025513D01*
X123806275Y-138025524D01*
X123748965Y-138239407D01*
X123748964Y-138239414D01*
X123729666Y-138459998D01*
X123729666Y-138460001D01*
X123748964Y-138680585D01*
X123748965Y-138680592D01*
X123806275Y-138894475D01*
X123806279Y-138894486D01*
X123899856Y-139095163D01*
X123899858Y-139095167D01*
X124026868Y-139276555D01*
X124183445Y-139433132D01*
X124364833Y-139560142D01*
X124426828Y-139589050D01*
X124488091Y-139617618D01*
X124540531Y-139663790D01*
X124559683Y-139730983D01*
X124539467Y-139797865D01*
X124488091Y-139842382D01*
X124364836Y-139899856D01*
X124364834Y-139899857D01*
X124183444Y-140026868D01*
X124026868Y-140183444D01*
X123899857Y-140364834D01*
X123899856Y-140364836D01*
X123806279Y-140565513D01*
X123806275Y-140565524D01*
X123748965Y-140779407D01*
X123748964Y-140779414D01*
X123729666Y-140999998D01*
X123729666Y-141000001D01*
X123748964Y-141220585D01*
X123748965Y-141220592D01*
X123806275Y-141434475D01*
X123806279Y-141434486D01*
X123899856Y-141635163D01*
X123899858Y-141635167D01*
X124026868Y-141816555D01*
X124183445Y-141973132D01*
X124364833Y-142100142D01*
X124426828Y-142129050D01*
X124488091Y-142157618D01*
X124540531Y-142203790D01*
X124559683Y-142270983D01*
X124539467Y-142337865D01*
X124488091Y-142382382D01*
X124364836Y-142439856D01*
X124364834Y-142439857D01*
X124183444Y-142566868D01*
X124026868Y-142723444D01*
X123899857Y-142904834D01*
X123899856Y-142904836D01*
X123806279Y-143105513D01*
X123806275Y-143105524D01*
X123748965Y-143319407D01*
X123748964Y-143319414D01*
X123729666Y-143539998D01*
X123729666Y-143540001D01*
X123748964Y-143760585D01*
X123748965Y-143760592D01*
X123806275Y-143974475D01*
X123806279Y-143974486D01*
X123899856Y-144175163D01*
X123899858Y-144175167D01*
X124026868Y-144356555D01*
X124183445Y-144513132D01*
X124364833Y-144640142D01*
X124426828Y-144669050D01*
X124488091Y-144697618D01*
X124540531Y-144743790D01*
X124559683Y-144810983D01*
X124539467Y-144877865D01*
X124488091Y-144922382D01*
X124364836Y-144979856D01*
X124364834Y-144979857D01*
X124183444Y-145106868D01*
X124026868Y-145263444D01*
X123899857Y-145444834D01*
X123899856Y-145444836D01*
X123806279Y-145645513D01*
X123806275Y-145645524D01*
X123748965Y-145859407D01*
X123748964Y-145859414D01*
X123729666Y-146079998D01*
X123729666Y-146080001D01*
X123748964Y-146300585D01*
X123748965Y-146300592D01*
X123806275Y-146514475D01*
X123806279Y-146514486D01*
X123899856Y-146715163D01*
X123899858Y-146715167D01*
X124026868Y-146896555D01*
X124183445Y-147053132D01*
X124364833Y-147180142D01*
X124426828Y-147209050D01*
X124488091Y-147237618D01*
X124540531Y-147283790D01*
X124559683Y-147350983D01*
X124539467Y-147417865D01*
X124488091Y-147462382D01*
X124364836Y-147519856D01*
X124364834Y-147519857D01*
X124183444Y-147646868D01*
X124026868Y-147803444D01*
X123899857Y-147984834D01*
X123899856Y-147984836D01*
X123806279Y-148185513D01*
X123806275Y-148185524D01*
X123748965Y-148399407D01*
X123748964Y-148399414D01*
X123729666Y-148619998D01*
X123729666Y-148620001D01*
X123748964Y-148840585D01*
X123748965Y-148840592D01*
X123806275Y-149054475D01*
X123806279Y-149054486D01*
X123899856Y-149255163D01*
X123899858Y-149255167D01*
X124026868Y-149436555D01*
X124183445Y-149593132D01*
X124364833Y-149720142D01*
X124426828Y-149749050D01*
X124488091Y-149777618D01*
X124540531Y-149823790D01*
X124559683Y-149890983D01*
X124539467Y-149957865D01*
X124488091Y-150002382D01*
X124364836Y-150059856D01*
X124364834Y-150059857D01*
X124183444Y-150186868D01*
X124026868Y-150343444D01*
X123899857Y-150524834D01*
X123899856Y-150524836D01*
X123806279Y-150725513D01*
X123806275Y-150725524D01*
X123748965Y-150939407D01*
X123748964Y-150939414D01*
X123729666Y-151159998D01*
X123729666Y-151160001D01*
X123748964Y-151380585D01*
X123748965Y-151380592D01*
X123806275Y-151594475D01*
X123806279Y-151594486D01*
X123899856Y-151795163D01*
X123899858Y-151795167D01*
X124026868Y-151976555D01*
X124183445Y-152133132D01*
X124364833Y-152260142D01*
X124426828Y-152289050D01*
X124488091Y-152317618D01*
X124540531Y-152363790D01*
X124559683Y-152430983D01*
X124539467Y-152497865D01*
X124488091Y-152542382D01*
X124364836Y-152599856D01*
X124364834Y-152599857D01*
X124183444Y-152726868D01*
X124026868Y-152883444D01*
X123899857Y-153064834D01*
X123899856Y-153064836D01*
X123806279Y-153265513D01*
X123806275Y-153265524D01*
X123748965Y-153479407D01*
X123748964Y-153479414D01*
X123729666Y-153699998D01*
X123729666Y-153700001D01*
X123748964Y-153920585D01*
X123748965Y-153920592D01*
X123806275Y-154134475D01*
X123806279Y-154134486D01*
X123899856Y-154335163D01*
X123899858Y-154335167D01*
X124026868Y-154516555D01*
X124183445Y-154673132D01*
X124364833Y-154800142D01*
X124488682Y-154857893D01*
X124541122Y-154904065D01*
X124560274Y-154971258D01*
X124540059Y-155038139D01*
X124488683Y-155082657D01*
X124365084Y-155140293D01*
X124299657Y-155186104D01*
X124862424Y-155748871D01*
X124803147Y-155764755D01*
X124686853Y-155831898D01*
X124591898Y-155926853D01*
X124524755Y-156043147D01*
X124508871Y-156102424D01*
X123946104Y-155539657D01*
X123900293Y-155605084D01*
X123806749Y-155805690D01*
X123806745Y-155805699D01*
X123749461Y-156019490D01*
X123749459Y-156019500D01*
X123730168Y-156239999D01*
X123730168Y-156240000D01*
X123749459Y-156460499D01*
X123749461Y-156460509D01*
X123806745Y-156674300D01*
X123806749Y-156674309D01*
X123900295Y-156874919D01*
X123946103Y-156940341D01*
X123946105Y-156940342D01*
X124508871Y-156377575D01*
X124524755Y-156436853D01*
X124591898Y-156553147D01*
X124686853Y-156648102D01*
X124803147Y-156715245D01*
X124862424Y-156731128D01*
X124299656Y-157293894D01*
X124365083Y-157339706D01*
X124365085Y-157339707D01*
X124489275Y-157397618D01*
X124541714Y-157443790D01*
X124560866Y-157510984D01*
X124540650Y-157577865D01*
X124489275Y-157622382D01*
X124365084Y-157680293D01*
X124299657Y-157726104D01*
X124862424Y-158288871D01*
X124803147Y-158304755D01*
X124686853Y-158371898D01*
X124591898Y-158466853D01*
X124524755Y-158583147D01*
X124508871Y-158642424D01*
X123946104Y-158079657D01*
X123900293Y-158145084D01*
X123806749Y-158345690D01*
X123806745Y-158345699D01*
X123749461Y-158559490D01*
X123749459Y-158559500D01*
X123730168Y-158779999D01*
X123730168Y-158780000D01*
X123749459Y-159000499D01*
X123749461Y-159000509D01*
X123806745Y-159214300D01*
X123806749Y-159214309D01*
X123900295Y-159414919D01*
X123946103Y-159480341D01*
X123946105Y-159480342D01*
X124508871Y-158917575D01*
X124524755Y-158976853D01*
X124591898Y-159093147D01*
X124686853Y-159188102D01*
X124803147Y-159255245D01*
X124862424Y-159271128D01*
X124299656Y-159833894D01*
X124365083Y-159879706D01*
X124365085Y-159879707D01*
X124565690Y-159973250D01*
X124565699Y-159973254D01*
X124779490Y-160030538D01*
X124779500Y-160030540D01*
X124999999Y-160049832D01*
X125000001Y-160049832D01*
X125220499Y-160030540D01*
X125220509Y-160030538D01*
X125434300Y-159973254D01*
X125434309Y-159973250D01*
X125634915Y-159879706D01*
X125700342Y-159833894D01*
X125137575Y-159271127D01*
X125196853Y-159255245D01*
X125313147Y-159188102D01*
X125408102Y-159093147D01*
X125475245Y-158976853D01*
X125491128Y-158917575D01*
X126053894Y-159480342D01*
X126099706Y-159414915D01*
X126193250Y-159214309D01*
X126193254Y-159214300D01*
X126250538Y-159000509D01*
X126250540Y-159000499D01*
X126269832Y-158780000D01*
X126269832Y-158779999D01*
X126250540Y-158559500D01*
X126250538Y-158559490D01*
X126193254Y-158345699D01*
X126193250Y-158345690D01*
X126099707Y-158145085D01*
X126099706Y-158145083D01*
X126053894Y-158079657D01*
X126053894Y-158079656D01*
X125491127Y-158642423D01*
X125475245Y-158583147D01*
X125408102Y-158466853D01*
X125313147Y-158371898D01*
X125196853Y-158304755D01*
X125137575Y-158288872D01*
X125700342Y-157726105D01*
X125700341Y-157726103D01*
X125634918Y-157680294D01*
X125634916Y-157680293D01*
X125510725Y-157622382D01*
X125458285Y-157576210D01*
X125439133Y-157509017D01*
X125459349Y-157442135D01*
X125510725Y-157397618D01*
X125634912Y-157339708D01*
X125634914Y-157339707D01*
X125700342Y-157293894D01*
X125137575Y-156731127D01*
X125196853Y-156715245D01*
X125313147Y-156648102D01*
X125408102Y-156553147D01*
X125475245Y-156436853D01*
X125491128Y-156377575D01*
X126053894Y-156940342D01*
X126099706Y-156874915D01*
X126193250Y-156674309D01*
X126193254Y-156674300D01*
X126250538Y-156460509D01*
X126250540Y-156460499D01*
X126269832Y-156240000D01*
X126269832Y-156239999D01*
X126250540Y-156019500D01*
X126250538Y-156019490D01*
X126193254Y-155805699D01*
X126193250Y-155805690D01*
X126099707Y-155605085D01*
X126099706Y-155605083D01*
X126053894Y-155539657D01*
X126053894Y-155539656D01*
X125491127Y-156102423D01*
X125475245Y-156043147D01*
X125408102Y-155926853D01*
X125313147Y-155831898D01*
X125196853Y-155764755D01*
X125137575Y-155748872D01*
X125700342Y-155186105D01*
X125700341Y-155186103D01*
X125634919Y-155140295D01*
X125511316Y-155082657D01*
X125458877Y-155036484D01*
X125439725Y-154969291D01*
X125459941Y-154902410D01*
X125511312Y-154857895D01*
X125635167Y-154800142D01*
X125816555Y-154673132D01*
X125973132Y-154516555D01*
X126100142Y-154335167D01*
X126193723Y-154134480D01*
X126251035Y-153920591D01*
X126270334Y-153700000D01*
X126251035Y-153479409D01*
X126193723Y-153265520D01*
X126100142Y-153064833D01*
X125973132Y-152883445D01*
X125816555Y-152726868D01*
X125635167Y-152599858D01*
X125511907Y-152542381D01*
X125459468Y-152496210D01*
X125440316Y-152429017D01*
X125460531Y-152362136D01*
X125511908Y-152317618D01*
X125635167Y-152260142D01*
X125816555Y-152133132D01*
X125973132Y-151976555D01*
X126100142Y-151795167D01*
X126193723Y-151594480D01*
X126251035Y-151380591D01*
X126270334Y-151160000D01*
X126251035Y-150939409D01*
X126193723Y-150725520D01*
X126100142Y-150524833D01*
X125973132Y-150343445D01*
X125816555Y-150186868D01*
X125635167Y-150059858D01*
X125511907Y-150002381D01*
X125459468Y-149956210D01*
X125440316Y-149889017D01*
X125460531Y-149822136D01*
X125511908Y-149777618D01*
X125635167Y-149720142D01*
X125816555Y-149593132D01*
X125973132Y-149436555D01*
X126100142Y-149255167D01*
X126193723Y-149054480D01*
X126251035Y-148840591D01*
X126270334Y-148620000D01*
X126251035Y-148399409D01*
X126193723Y-148185520D01*
X126100142Y-147984833D01*
X125973132Y-147803445D01*
X125816555Y-147646868D01*
X125635167Y-147519858D01*
X125511907Y-147462381D01*
X125459468Y-147416210D01*
X125440316Y-147349017D01*
X125460531Y-147282136D01*
X125511908Y-147237618D01*
X125635167Y-147180142D01*
X125816555Y-147053132D01*
X125973132Y-146896555D01*
X126100142Y-146715167D01*
X126193723Y-146514480D01*
X126251035Y-146300591D01*
X126270334Y-146080000D01*
X126251035Y-145859409D01*
X126193723Y-145645520D01*
X126100142Y-145444833D01*
X125973132Y-145263445D01*
X125816555Y-145106868D01*
X125635167Y-144979858D01*
X125511907Y-144922381D01*
X125459468Y-144876210D01*
X125440316Y-144809017D01*
X125460531Y-144742136D01*
X125511908Y-144697618D01*
X125635167Y-144640142D01*
X125816555Y-144513132D01*
X125973132Y-144356555D01*
X126100142Y-144175167D01*
X126193723Y-143974480D01*
X126251035Y-143760591D01*
X126270334Y-143540000D01*
X126251035Y-143319409D01*
X126193723Y-143105520D01*
X126100142Y-142904833D01*
X125973132Y-142723445D01*
X125816555Y-142566868D01*
X125635167Y-142439858D01*
X125511907Y-142382381D01*
X125459468Y-142336210D01*
X125440316Y-142269017D01*
X125460531Y-142202136D01*
X125511908Y-142157618D01*
X125635167Y-142100142D01*
X125816555Y-141973132D01*
X125973132Y-141816555D01*
X126100142Y-141635167D01*
X126193723Y-141434480D01*
X126251035Y-141220591D01*
X126270334Y-141000000D01*
X126251035Y-140779409D01*
X126193723Y-140565520D01*
X126100142Y-140364833D01*
X125973132Y-140183445D01*
X125816555Y-140026868D01*
X125635167Y-139899858D01*
X125511907Y-139842381D01*
X125459468Y-139796210D01*
X125440316Y-139729017D01*
X125460531Y-139662136D01*
X125511908Y-139617618D01*
X125635167Y-139560142D01*
X125816555Y-139433132D01*
X125973132Y-139276555D01*
X126100142Y-139095167D01*
X126193723Y-138894480D01*
X126251035Y-138680591D01*
X126270334Y-138460000D01*
X126251035Y-138239409D01*
X126193723Y-138025520D01*
X126100142Y-137824833D01*
X125973132Y-137643445D01*
X125816555Y-137486868D01*
X125635167Y-137359858D01*
X125511907Y-137302381D01*
X125459468Y-137256210D01*
X125440316Y-137189017D01*
X125460531Y-137122136D01*
X125511908Y-137077618D01*
X125635167Y-137020142D01*
X125816555Y-136893132D01*
X125973132Y-136736555D01*
X126100142Y-136555167D01*
X126193723Y-136354480D01*
X126251035Y-136140591D01*
X126270334Y-135920000D01*
X126251035Y-135699409D01*
X126193723Y-135485520D01*
X126100142Y-135284833D01*
X125973132Y-135103445D01*
X125816555Y-134946868D01*
X125635167Y-134819858D01*
X125511907Y-134762381D01*
X125459468Y-134716210D01*
X125440316Y-134649017D01*
X125460531Y-134582136D01*
X125511908Y-134537618D01*
X125635167Y-134480142D01*
X125816555Y-134353132D01*
X125973132Y-134196555D01*
X126100142Y-134015167D01*
X126193723Y-133814480D01*
X126251035Y-133600591D01*
X126270334Y-133380000D01*
X126251035Y-133159409D01*
X126193723Y-132945520D01*
X126100142Y-132744833D01*
X125973132Y-132563445D01*
X125816555Y-132406868D01*
X125635167Y-132279858D01*
X125511907Y-132222381D01*
X125459468Y-132176210D01*
X125440316Y-132109017D01*
X125460531Y-132042136D01*
X125511908Y-131997618D01*
X125635167Y-131940142D01*
X125816555Y-131813132D01*
X125973132Y-131656555D01*
X126100142Y-131475167D01*
X126193723Y-131274480D01*
X126251035Y-131060591D01*
X126270334Y-130840000D01*
X126251035Y-130619409D01*
X126193723Y-130405520D01*
X126100142Y-130204833D01*
X125973132Y-130023445D01*
X125816555Y-129866868D01*
X125635167Y-129739858D01*
X125511907Y-129682381D01*
X125459468Y-129636210D01*
X125440316Y-129569017D01*
X125460531Y-129502136D01*
X125511908Y-129457618D01*
X125635167Y-129400142D01*
X125816555Y-129273132D01*
X125973132Y-129116555D01*
X126100142Y-128935167D01*
X126193723Y-128734480D01*
X126251035Y-128520591D01*
X126270334Y-128300000D01*
X126251035Y-128079409D01*
X126193723Y-127865520D01*
X126100142Y-127664833D01*
X125973132Y-127483445D01*
X125816555Y-127326868D01*
X125635167Y-127199858D01*
X125511907Y-127142381D01*
X125459468Y-127096210D01*
X125440316Y-127029017D01*
X125460531Y-126962136D01*
X125511908Y-126917618D01*
X125635167Y-126860142D01*
X125816555Y-126733132D01*
X125973132Y-126576555D01*
X126100142Y-126395167D01*
X126193723Y-126194480D01*
X126251035Y-125980591D01*
X126270334Y-125760000D01*
X126251035Y-125539409D01*
X126193723Y-125325520D01*
X126100142Y-125124833D01*
X125973132Y-124943445D01*
X125816555Y-124786868D01*
X125635167Y-124659858D01*
X125511907Y-124602381D01*
X125459468Y-124556210D01*
X125440316Y-124489017D01*
X125460531Y-124422136D01*
X125511908Y-124377618D01*
X125635167Y-124320142D01*
X125816555Y-124193132D01*
X125973132Y-124036555D01*
X126100142Y-123855167D01*
X126193723Y-123654480D01*
X126251035Y-123440591D01*
X126270334Y-123220000D01*
X126251035Y-122999409D01*
X126193723Y-122785520D01*
X126100142Y-122584833D01*
X125973132Y-122403445D01*
X125816555Y-122246868D01*
X125635167Y-122119858D01*
X125511907Y-122062381D01*
X125459468Y-122016210D01*
X125440316Y-121949017D01*
X125460531Y-121882136D01*
X125511908Y-121837618D01*
X125635167Y-121780142D01*
X125816555Y-121653132D01*
X125973132Y-121496555D01*
X126100142Y-121315167D01*
X126193723Y-121114480D01*
X126251035Y-120900591D01*
X126270334Y-120680000D01*
X126251035Y-120459409D01*
X126193723Y-120245520D01*
X126100142Y-120044833D01*
X125973132Y-119863445D01*
X125816555Y-119706868D01*
X125635167Y-119579858D01*
X125626893Y-119576000D01*
X125511908Y-119522382D01*
X125459468Y-119476210D01*
X125440316Y-119409017D01*
X125460531Y-119342136D01*
X125511908Y-119297618D01*
X125635167Y-119240142D01*
X125816555Y-119113132D01*
X125973132Y-118956555D01*
X126100142Y-118775167D01*
X126193723Y-118574480D01*
X126251035Y-118360591D01*
X126270334Y-118140000D01*
X126251035Y-117919409D01*
X126193723Y-117705520D01*
X126100142Y-117504833D01*
X125973132Y-117323445D01*
X125816555Y-117166868D01*
X125635167Y-117039858D01*
X125511907Y-116982381D01*
X125459468Y-116936210D01*
X125440316Y-116869017D01*
X125460531Y-116802136D01*
X125511908Y-116757618D01*
X125635167Y-116700142D01*
X125816555Y-116573132D01*
X125973132Y-116416555D01*
X126100142Y-116235167D01*
X126193723Y-116034480D01*
X126251035Y-115820591D01*
X126270334Y-115600000D01*
X126251035Y-115379409D01*
X126193723Y-115165520D01*
X126100142Y-114964833D01*
X125973132Y-114783445D01*
X125816555Y-114626868D01*
X125635167Y-114499858D01*
X125511907Y-114442381D01*
X125459468Y-114396210D01*
X125440316Y-114329017D01*
X125460531Y-114262136D01*
X125511908Y-114217618D01*
X125635167Y-114160142D01*
X125816555Y-114033132D01*
X125973132Y-113876555D01*
X126100142Y-113695167D01*
X126193723Y-113494480D01*
X126251035Y-113280591D01*
X126270334Y-113060000D01*
X126251035Y-112839409D01*
X126193723Y-112625520D01*
X126100142Y-112424833D01*
X125973132Y-112243445D01*
X125816555Y-112086868D01*
X125635167Y-111959858D01*
X125511907Y-111902381D01*
X125459468Y-111856210D01*
X125440316Y-111789017D01*
X125460531Y-111722136D01*
X125511908Y-111677618D01*
X125635167Y-111620142D01*
X125816555Y-111493132D01*
X125973132Y-111336555D01*
X126100142Y-111155167D01*
X126193723Y-110954480D01*
X126251035Y-110740591D01*
X126252924Y-110718998D01*
X131192023Y-110718998D01*
X131192023Y-110719001D01*
X131211893Y-110946122D01*
X131211894Y-110946129D01*
X131270902Y-111166349D01*
X131270903Y-111166351D01*
X131270904Y-111166354D01*
X131350270Y-111336555D01*
X131367259Y-111372989D01*
X131367261Y-111372993D01*
X131498027Y-111559746D01*
X131498032Y-111559752D01*
X131659247Y-111720967D01*
X131659253Y-111720972D01*
X131846006Y-111851738D01*
X131846008Y-111851739D01*
X131846011Y-111851741D01*
X131877184Y-111866277D01*
X131899360Y-111876618D01*
X131951800Y-111922790D01*
X131970952Y-111989983D01*
X131950737Y-112056865D01*
X131899361Y-112101382D01*
X131846013Y-112126258D01*
X131846011Y-112126259D01*
X131659246Y-112257032D01*
X131498032Y-112418246D01*
X131367259Y-112605011D01*
X131367258Y-112605013D01*
X131270905Y-112811642D01*
X131211894Y-113031870D01*
X131211893Y-113031877D01*
X131192023Y-113258998D01*
X131192023Y-113259001D01*
X131211893Y-113486122D01*
X131211894Y-113486129D01*
X131270902Y-113706349D01*
X131270903Y-113706351D01*
X131270904Y-113706354D01*
X131333572Y-113840746D01*
X131367259Y-113912989D01*
X131367261Y-113912993D01*
X131498027Y-114099746D01*
X131498032Y-114099752D01*
X131659247Y-114260967D01*
X131659253Y-114260972D01*
X131846006Y-114391738D01*
X131846008Y-114391739D01*
X131846011Y-114391741D01*
X131879290Y-114407259D01*
X131899360Y-114416618D01*
X131951800Y-114462790D01*
X131970952Y-114529983D01*
X131950737Y-114596865D01*
X131899361Y-114641382D01*
X131846013Y-114666258D01*
X131846011Y-114666259D01*
X131659246Y-114797032D01*
X131498032Y-114958246D01*
X131367259Y-115145011D01*
X131367258Y-115145013D01*
X131270905Y-115351642D01*
X131211894Y-115571870D01*
X131211893Y-115571877D01*
X131192023Y-115798998D01*
X131192023Y-115799001D01*
X131211893Y-116026122D01*
X131211894Y-116026129D01*
X131270902Y-116246349D01*
X131270903Y-116246351D01*
X131270904Y-116246354D01*
X131333572Y-116380746D01*
X131367259Y-116452989D01*
X131367261Y-116452993D01*
X131498027Y-116639746D01*
X131498032Y-116639752D01*
X131659247Y-116800967D01*
X131659253Y-116800972D01*
X131846006Y-116931738D01*
X131846008Y-116931739D01*
X131846011Y-116931741D01*
X131890688Y-116952574D01*
X131899360Y-116956618D01*
X131951800Y-117002790D01*
X131970952Y-117069983D01*
X131950737Y-117136865D01*
X131899361Y-117181382D01*
X131846013Y-117206258D01*
X131846011Y-117206259D01*
X131659246Y-117337032D01*
X131498032Y-117498246D01*
X131367259Y-117685011D01*
X131367258Y-117685013D01*
X131270905Y-117891642D01*
X131211894Y-118111870D01*
X131211893Y-118111877D01*
X131192023Y-118338998D01*
X131192023Y-118339001D01*
X131211893Y-118566122D01*
X131211894Y-118566129D01*
X131270902Y-118786349D01*
X131270903Y-118786351D01*
X131270904Y-118786354D01*
X131280656Y-118807267D01*
X131367259Y-118992989D01*
X131367261Y-118992993D01*
X131484775Y-119160820D01*
X131498031Y-119179751D01*
X131659249Y-119340969D01*
X131678258Y-119354279D01*
X131721882Y-119408856D01*
X131729075Y-119478355D01*
X131697553Y-119540709D01*
X131637323Y-119576123D01*
X131620388Y-119579144D01*
X131590016Y-119582409D01*
X131455171Y-119632702D01*
X131455164Y-119632706D01*
X131339955Y-119718952D01*
X131339952Y-119718955D01*
X131253706Y-119834164D01*
X131253702Y-119834171D01*
X131203408Y-119969017D01*
X131197001Y-120028616D01*
X131197001Y-120028623D01*
X131197000Y-120028635D01*
X131197000Y-121729370D01*
X131197001Y-121729376D01*
X131203408Y-121788983D01*
X131253702Y-121923828D01*
X131253706Y-121923835D01*
X131339952Y-122039044D01*
X131339955Y-122039047D01*
X131455164Y-122125293D01*
X131455171Y-122125297D01*
X131590017Y-122175591D01*
X131590016Y-122175591D01*
X131596944Y-122176335D01*
X131649627Y-122182000D01*
X133350372Y-122181999D01*
X133409983Y-122175591D01*
X133544831Y-122125296D01*
X133660046Y-122039046D01*
X133746296Y-121923831D01*
X133796591Y-121788983D01*
X133803000Y-121729373D01*
X133802999Y-120028628D01*
X133796591Y-119969017D01*
X133757215Y-119863445D01*
X133746297Y-119834171D01*
X133746293Y-119834164D01*
X133660047Y-119718955D01*
X133660044Y-119718952D01*
X133544835Y-119632706D01*
X133544828Y-119632702D01*
X133409982Y-119582408D01*
X133409984Y-119582408D01*
X133379609Y-119579143D01*
X133315058Y-119552405D01*
X133275210Y-119495012D01*
X133272717Y-119425187D01*
X133308370Y-119365098D01*
X133321742Y-119354279D01*
X133340751Y-119340969D01*
X133501969Y-119179751D01*
X133632741Y-118992989D01*
X133729096Y-118786354D01*
X133788106Y-118566128D01*
X133807977Y-118339000D01*
X133788106Y-118111872D01*
X133729096Y-117891646D01*
X133632741Y-117685012D01*
X133534704Y-117545000D01*
X133501970Y-117498250D01*
X133429979Y-117426259D01*
X133340751Y-117337031D01*
X133340747Y-117337028D01*
X133340746Y-117337027D01*
X133153993Y-117206261D01*
X133153985Y-117206257D01*
X133100640Y-117181382D01*
X133048200Y-117135210D01*
X133029048Y-117068017D01*
X133049263Y-117001135D01*
X133100640Y-116956618D01*
X133105021Y-116954574D01*
X133153989Y-116931741D01*
X133340751Y-116800969D01*
X133501969Y-116639751D01*
X133632741Y-116452989D01*
X133729096Y-116246354D01*
X133788106Y-116026128D01*
X133807977Y-115799000D01*
X133788106Y-115571872D01*
X133729096Y-115351646D01*
X133632741Y-115145012D01*
X133567355Y-115051630D01*
X133501970Y-114958250D01*
X133429731Y-114886011D01*
X133340751Y-114797031D01*
X133340747Y-114797028D01*
X133340746Y-114797027D01*
X133153993Y-114666261D01*
X133153985Y-114666257D01*
X133100640Y-114641382D01*
X133048200Y-114595210D01*
X133029048Y-114528017D01*
X133049263Y-114461135D01*
X133100640Y-114416618D01*
X133105021Y-114414574D01*
X133153989Y-114391741D01*
X133340751Y-114260969D01*
X133501969Y-114099751D01*
X133632741Y-113912989D01*
X133729096Y-113706354D01*
X133788106Y-113486128D01*
X133807977Y-113259000D01*
X133788106Y-113031872D01*
X133729096Y-112811646D01*
X133632741Y-112605012D01*
X133567355Y-112511630D01*
X133501970Y-112418250D01*
X133429731Y-112346011D01*
X133340751Y-112257031D01*
X133340747Y-112257028D01*
X133340746Y-112257027D01*
X133153993Y-112126261D01*
X133153985Y-112126257D01*
X133100640Y-112101382D01*
X133048200Y-112055210D01*
X133029048Y-111988017D01*
X133049263Y-111921135D01*
X133100640Y-111876618D01*
X133122816Y-111866277D01*
X133153989Y-111851741D01*
X133340751Y-111720969D01*
X133501969Y-111559751D01*
X133632741Y-111372989D01*
X133729096Y-111166354D01*
X133788106Y-110946128D01*
X133807977Y-110719000D01*
X133788106Y-110491872D01*
X133729096Y-110271646D01*
X133632741Y-110065012D01*
X133567355Y-109971630D01*
X133501970Y-109878250D01*
X133501966Y-109878246D01*
X133340751Y-109717031D01*
X133340747Y-109717028D01*
X133340746Y-109717027D01*
X133153993Y-109586261D01*
X133153989Y-109586259D01*
X133100048Y-109561106D01*
X133047609Y-109514934D01*
X133028457Y-109447740D01*
X133048673Y-109380859D01*
X133100050Y-109336341D01*
X133153737Y-109311306D01*
X133227267Y-109259820D01*
X132657987Y-108690539D01*
X132706502Y-108677540D01*
X132828497Y-108607106D01*
X132928106Y-108507497D01*
X132998540Y-108385502D01*
X133011539Y-108336986D01*
X133580820Y-108906267D01*
X133632307Y-108832737D01*
X133728623Y-108626184D01*
X133728627Y-108626175D01*
X133787611Y-108406043D01*
X133787611Y-108406039D01*
X133807475Y-108179002D01*
X133807475Y-108178997D01*
X133787611Y-107951960D01*
X133787611Y-107951956D01*
X133728627Y-107731824D01*
X133728623Y-107731815D01*
X133632307Y-107525263D01*
X133632305Y-107525259D01*
X133580820Y-107451732D01*
X133011539Y-108021012D01*
X132998540Y-107972498D01*
X132928106Y-107850503D01*
X132828497Y-107750894D01*
X132706502Y-107680460D01*
X132657986Y-107667460D01*
X133227267Y-107098179D01*
X133227266Y-107098178D01*
X133153738Y-107046693D01*
X133153736Y-107046692D01*
X132947184Y-106950376D01*
X132947175Y-106950372D01*
X132727041Y-106891388D01*
X132500002Y-106871525D01*
X132499998Y-106871525D01*
X132272960Y-106891388D01*
X132272956Y-106891388D01*
X132052824Y-106950372D01*
X132052815Y-106950376D01*
X131846267Y-107046691D01*
X131772732Y-107098179D01*
X132342013Y-107667459D01*
X132293498Y-107680460D01*
X132171503Y-107750894D01*
X132071894Y-107850503D01*
X132001460Y-107972498D01*
X131988460Y-108021013D01*
X131419179Y-107451732D01*
X131367691Y-107525267D01*
X131271376Y-107731815D01*
X131271372Y-107731824D01*
X131212388Y-107951956D01*
X131212388Y-107951960D01*
X131192525Y-108178997D01*
X131192525Y-108179002D01*
X131212388Y-108406039D01*
X131212388Y-108406043D01*
X131271372Y-108626175D01*
X131271376Y-108626184D01*
X131367692Y-108832736D01*
X131367693Y-108832738D01*
X131419178Y-108906266D01*
X131419179Y-108906267D01*
X131988459Y-108336986D01*
X132001460Y-108385502D01*
X132071894Y-108507497D01*
X132171503Y-108607106D01*
X132293498Y-108677540D01*
X132342012Y-108690539D01*
X131772731Y-109259820D01*
X131846268Y-109311310D01*
X131899950Y-109336342D01*
X131952390Y-109382514D01*
X131971542Y-109449707D01*
X131951327Y-109516588D01*
X131899952Y-109561105D01*
X131846018Y-109586255D01*
X131846011Y-109586259D01*
X131659246Y-109717032D01*
X131498032Y-109878246D01*
X131367259Y-110065011D01*
X131367258Y-110065013D01*
X131270905Y-110271642D01*
X131211894Y-110491870D01*
X131211893Y-110491877D01*
X131192023Y-110718998D01*
X126252924Y-110718998D01*
X126270334Y-110520000D01*
X126251035Y-110299409D01*
X126193723Y-110085520D01*
X126100142Y-109884833D01*
X125973132Y-109703445D01*
X125816555Y-109546868D01*
X125635167Y-109419858D01*
X125625111Y-109415169D01*
X125511908Y-109362382D01*
X125459468Y-109316210D01*
X125440316Y-109249017D01*
X125460531Y-109182136D01*
X125511908Y-109137618D01*
X125635167Y-109080142D01*
X125816555Y-108953132D01*
X125973132Y-108796555D01*
X126100142Y-108615167D01*
X126193723Y-108414480D01*
X126251035Y-108200591D01*
X126270334Y-107980000D01*
X126267880Y-107951956D01*
X126264820Y-107916974D01*
X126251035Y-107759409D01*
X126193723Y-107545520D01*
X126100142Y-107344833D01*
X125973132Y-107163445D01*
X125816555Y-107006868D01*
X125635167Y-106879858D01*
X125635163Y-106879856D01*
X125511317Y-106822106D01*
X125458877Y-106775934D01*
X125439725Y-106708741D01*
X125459941Y-106641859D01*
X125511317Y-106597342D01*
X125634912Y-106539708D01*
X125634914Y-106539707D01*
X125700342Y-106493894D01*
X125137575Y-105931127D01*
X125196853Y-105915245D01*
X125313147Y-105848102D01*
X125408102Y-105753147D01*
X125475245Y-105636853D01*
X125491128Y-105577575D01*
X126053894Y-106140342D01*
X126099706Y-106074915D01*
X126193250Y-105874309D01*
X126193254Y-105874300D01*
X126250538Y-105660509D01*
X126250540Y-105660499D01*
X126269832Y-105440000D01*
X126269832Y-105439999D01*
X126250540Y-105219500D01*
X126250538Y-105219490D01*
X126193254Y-105005699D01*
X126193250Y-105005690D01*
X126099707Y-104805085D01*
X126099706Y-104805083D01*
X126053894Y-104739657D01*
X126053894Y-104739656D01*
X125491127Y-105302423D01*
X125475245Y-105243147D01*
X125408102Y-105126853D01*
X125313147Y-105031898D01*
X125196853Y-104964755D01*
X125137575Y-104948872D01*
X125700342Y-104386105D01*
X125700341Y-104386103D01*
X125634919Y-104340295D01*
X125434309Y-104246749D01*
X125434300Y-104246745D01*
X125220509Y-104189461D01*
X125220499Y-104189459D01*
X125000001Y-104170168D01*
X124999999Y-104170168D01*
X124779500Y-104189459D01*
X124779490Y-104189461D01*
X124565699Y-104246745D01*
X124565690Y-104246749D01*
X124365084Y-104340293D01*
X124299657Y-104386104D01*
X124862424Y-104948871D01*
X124803147Y-104964755D01*
X124686853Y-105031898D01*
X124591898Y-105126853D01*
X124524755Y-105243147D01*
X124508871Y-105302424D01*
X123946104Y-104739657D01*
X123900293Y-104805084D01*
X123806749Y-105005690D01*
X123806745Y-105005699D01*
X123749461Y-105219490D01*
X123749459Y-105219500D01*
X123730168Y-105439999D01*
X123730168Y-105440000D01*
X123749459Y-105660499D01*
X123749461Y-105660509D01*
X123806745Y-105874300D01*
X123806749Y-105874309D01*
X123900295Y-106074919D01*
X123946103Y-106140341D01*
X123946105Y-106140342D01*
X124508871Y-105577575D01*
X124524755Y-105636853D01*
X124591898Y-105753147D01*
X124686853Y-105848102D01*
X124803147Y-105915245D01*
X124862424Y-105931128D01*
X124299656Y-106493894D01*
X124365083Y-106539706D01*
X124365085Y-106539707D01*
X124488683Y-106597342D01*
X124541122Y-106643514D01*
X124560274Y-106710708D01*
X124540058Y-106777589D01*
X124488683Y-106822106D01*
X124364833Y-106879857D01*
X124183444Y-107006868D01*
X124026868Y-107163444D01*
X123899857Y-107344834D01*
X123899856Y-107344836D01*
X123806279Y-107545513D01*
X123806275Y-107545524D01*
X123748965Y-107759407D01*
X123748964Y-107759414D01*
X123729666Y-107979998D01*
X103410334Y-107979998D01*
X103407880Y-107951956D01*
X103404820Y-107916974D01*
X103391035Y-107759409D01*
X103333723Y-107545520D01*
X103240142Y-107344833D01*
X103113132Y-107163445D01*
X102956555Y-107006868D01*
X102956552Y-107006866D01*
X102956550Y-107006864D01*
X102897495Y-106965513D01*
X102848309Y-106931073D01*
X102804685Y-106876497D01*
X102797491Y-106806999D01*
X102829014Y-106744644D01*
X102889244Y-106709230D01*
X102919432Y-106705499D01*
X102952872Y-106705499D01*
X103012483Y-106699091D01*
X103147331Y-106648796D01*
X103262546Y-106562546D01*
X103348796Y-106447331D01*
X103399091Y-106312483D01*
X103405500Y-106252873D01*
X103405499Y-104627128D01*
X103399091Y-104567517D01*
X103348796Y-104432669D01*
X103348795Y-104432668D01*
X103348793Y-104432664D01*
X103262547Y-104317455D01*
X103262544Y-104317452D01*
X103147335Y-104231206D01*
X103147328Y-104231202D01*
X103012482Y-104180908D01*
X103012483Y-104180908D01*
X102952883Y-104174501D01*
X102952881Y-104174500D01*
X102952873Y-104174500D01*
X102952864Y-104174500D01*
X101327129Y-104174500D01*
X101327123Y-104174501D01*
X101267516Y-104180908D01*
X101132671Y-104231202D01*
X101132664Y-104231206D01*
X101017455Y-104317452D01*
X101017452Y-104317455D01*
X100931206Y-104432664D01*
X100931202Y-104432671D01*
X100880908Y-104567517D01*
X100874501Y-104627116D01*
X100874501Y-104627123D01*
X100874500Y-104627135D01*
X100874500Y-106252870D01*
X100874501Y-106252876D01*
X100880908Y-106312483D01*
X100931202Y-106447328D01*
X100931206Y-106447335D01*
X101017452Y-106562544D01*
X101017455Y-106562547D01*
X101132664Y-106648793D01*
X101132671Y-106648797D01*
X101267517Y-106699091D01*
X101267516Y-106699091D01*
X101274444Y-106699835D01*
X101327127Y-106705500D01*
X101360564Y-106705499D01*
X101427601Y-106725182D01*
X101473357Y-106777984D01*
X101483302Y-106847143D01*
X101454279Y-106910699D01*
X101431689Y-106931073D01*
X101323447Y-107006866D01*
X101323441Y-107006871D01*
X101166868Y-107163444D01*
X101039857Y-107344834D01*
X101039856Y-107344836D01*
X100946279Y-107545513D01*
X100946275Y-107545524D01*
X100888965Y-107759407D01*
X100888964Y-107759414D01*
X100869666Y-107979998D01*
X88500500Y-107979998D01*
X88500500Y-86604900D01*
X108991210Y-86604900D01*
X108991210Y-86604901D01*
X109010333Y-86823482D01*
X109010335Y-86823492D01*
X109067121Y-87035424D01*
X109067125Y-87035433D01*
X109159858Y-87234299D01*
X109204001Y-87297343D01*
X109204003Y-87297344D01*
X109767037Y-86734309D01*
X109784075Y-86797893D01*
X109849901Y-86911907D01*
X109942993Y-87004999D01*
X110057007Y-87070825D01*
X110120589Y-87087862D01*
X109557554Y-87650896D01*
X109620603Y-87695043D01*
X109620605Y-87695044D01*
X109819466Y-87787774D01*
X109819475Y-87787778D01*
X110031407Y-87844564D01*
X110031417Y-87844566D01*
X110249998Y-87863690D01*
X110250000Y-87863690D01*
X110468580Y-87844566D01*
X110468590Y-87844564D01*
X110680522Y-87787778D01*
X110680531Y-87787774D01*
X110879391Y-87695045D01*
X110942442Y-87650896D01*
X110379408Y-87087862D01*
X110442991Y-87070825D01*
X110557005Y-87004999D01*
X110650097Y-86911907D01*
X110715923Y-86797893D01*
X110732960Y-86734309D01*
X111295994Y-87297344D01*
X111340143Y-87234293D01*
X111432872Y-87035433D01*
X111432876Y-87035424D01*
X111489662Y-86823492D01*
X111489664Y-86823482D01*
X111508788Y-86604901D01*
X111508788Y-86604900D01*
X115491212Y-86604900D01*
X115491212Y-86604901D01*
X115510335Y-86823482D01*
X115510337Y-86823492D01*
X115567123Y-87035424D01*
X115567127Y-87035433D01*
X115659860Y-87234299D01*
X115704003Y-87297343D01*
X115704005Y-87297344D01*
X116267039Y-86734309D01*
X116284077Y-86797893D01*
X116349903Y-86911907D01*
X116442995Y-87004999D01*
X116557009Y-87070825D01*
X116620591Y-87087862D01*
X116057556Y-87650896D01*
X116120605Y-87695043D01*
X116120607Y-87695044D01*
X116319468Y-87787774D01*
X116319477Y-87787778D01*
X116531409Y-87844564D01*
X116531419Y-87844566D01*
X116750000Y-87863690D01*
X116750002Y-87863690D01*
X116968582Y-87844566D01*
X116968592Y-87844564D01*
X117180524Y-87787778D01*
X117180533Y-87787774D01*
X117379393Y-87695045D01*
X117442444Y-87650896D01*
X116879410Y-87087862D01*
X116942993Y-87070825D01*
X117057007Y-87004999D01*
X117150099Y-86911907D01*
X117215925Y-86797893D01*
X117232962Y-86734309D01*
X117795996Y-87297344D01*
X117840145Y-87234293D01*
X117932874Y-87035433D01*
X117932878Y-87035424D01*
X117989664Y-86823492D01*
X117989666Y-86823482D01*
X118008790Y-86604901D01*
X118008790Y-86604900D01*
X117989666Y-86386319D01*
X117989664Y-86386309D01*
X117932878Y-86174377D01*
X117932874Y-86174368D01*
X117840144Y-85975507D01*
X117840142Y-85975503D01*
X117795996Y-85912457D01*
X117232962Y-86475491D01*
X117215925Y-86411909D01*
X117150099Y-86297895D01*
X117057007Y-86204803D01*
X116942993Y-86138977D01*
X116879410Y-86121939D01*
X117442444Y-85558905D01*
X117442443Y-85558903D01*
X117379399Y-85514760D01*
X117180533Y-85422027D01*
X117180524Y-85422023D01*
X116968592Y-85365237D01*
X116968582Y-85365235D01*
X116750002Y-85346112D01*
X116750000Y-85346112D01*
X116531419Y-85365235D01*
X116531409Y-85365237D01*
X116319477Y-85422023D01*
X116319468Y-85422026D01*
X116120608Y-85514757D01*
X116120606Y-85514758D01*
X116057558Y-85558905D01*
X116057557Y-85558905D01*
X116620592Y-86121939D01*
X116557009Y-86138977D01*
X116442995Y-86204803D01*
X116349903Y-86297895D01*
X116284077Y-86411909D01*
X116267039Y-86475491D01*
X115704005Y-85912457D01*
X115704005Y-85912458D01*
X115659858Y-85975506D01*
X115659857Y-85975508D01*
X115567126Y-86174368D01*
X115567123Y-86174377D01*
X115510337Y-86386309D01*
X115510335Y-86386319D01*
X115491212Y-86604900D01*
X111508788Y-86604900D01*
X111489664Y-86386319D01*
X111489662Y-86386309D01*
X111432876Y-86174377D01*
X111432872Y-86174368D01*
X111340142Y-85975507D01*
X111340140Y-85975503D01*
X111295994Y-85912457D01*
X110732960Y-86475491D01*
X110715923Y-86411909D01*
X110650097Y-86297895D01*
X110557005Y-86204803D01*
X110442991Y-86138977D01*
X110379408Y-86121939D01*
X110942442Y-85558905D01*
X110942441Y-85558903D01*
X110879397Y-85514760D01*
X110680531Y-85422027D01*
X110680522Y-85422023D01*
X110468590Y-85365237D01*
X110468580Y-85365235D01*
X110250000Y-85346112D01*
X110249998Y-85346112D01*
X110031417Y-85365235D01*
X110031407Y-85365237D01*
X109819475Y-85422023D01*
X109819466Y-85422026D01*
X109620606Y-85514757D01*
X109620604Y-85514758D01*
X109557556Y-85558905D01*
X109557555Y-85558905D01*
X110120590Y-86121939D01*
X110057007Y-86138977D01*
X109942993Y-86204803D01*
X109849901Y-86297895D01*
X109784075Y-86411909D01*
X109767037Y-86475491D01*
X109204003Y-85912457D01*
X109204003Y-85912458D01*
X109159856Y-85975506D01*
X109159855Y-85975508D01*
X109067124Y-86174368D01*
X109067121Y-86174377D01*
X109010335Y-86386309D01*
X109010333Y-86386319D01*
X108991210Y-86604900D01*
X88500500Y-86604900D01*
X88500500Y-82104897D01*
X108990708Y-82104897D01*
X108990708Y-82104900D01*
X109009839Y-82323574D01*
X109066653Y-82535603D01*
X109066654Y-82535606D01*
X109066655Y-82535608D01*
X109159419Y-82734542D01*
X109159423Y-82734550D01*
X109285322Y-82914352D01*
X109285327Y-82914358D01*
X109440540Y-83069571D01*
X109440546Y-83069576D01*
X109620348Y-83195475D01*
X109620350Y-83195476D01*
X109620353Y-83195478D01*
X109819296Y-83288246D01*
X110031325Y-83345060D01*
X110187520Y-83358725D01*
X110249997Y-83364191D01*
X110249999Y-83364191D01*
X110250001Y-83364191D01*
X110304667Y-83359408D01*
X110468673Y-83345060D01*
X110680702Y-83288246D01*
X110879645Y-83195478D01*
X111059456Y-83069573D01*
X111214672Y-82914357D01*
X111340577Y-82734546D01*
X111433345Y-82535603D01*
X111490159Y-82323574D01*
X111509290Y-82104900D01*
X111509290Y-82104897D01*
X115490710Y-82104897D01*
X115490710Y-82104900D01*
X115509841Y-82323574D01*
X115566655Y-82535603D01*
X115566656Y-82535606D01*
X115566657Y-82535608D01*
X115659421Y-82734542D01*
X115659425Y-82734550D01*
X115785324Y-82914352D01*
X115785329Y-82914358D01*
X115940542Y-83069571D01*
X115940548Y-83069576D01*
X116120350Y-83195475D01*
X116120352Y-83195476D01*
X116120355Y-83195478D01*
X116319298Y-83288246D01*
X116531327Y-83345060D01*
X116687522Y-83358725D01*
X116749999Y-83364191D01*
X116750001Y-83364191D01*
X116750003Y-83364191D01*
X116804669Y-83359408D01*
X116968675Y-83345060D01*
X117180704Y-83288246D01*
X117379647Y-83195478D01*
X117559458Y-83069573D01*
X117714674Y-82914357D01*
X117840579Y-82734546D01*
X117933347Y-82535603D01*
X117990161Y-82323574D01*
X118009292Y-82104900D01*
X117990161Y-81886226D01*
X117933347Y-81674197D01*
X117840579Y-81475255D01*
X117714674Y-81295443D01*
X117559458Y-81140227D01*
X117559454Y-81140224D01*
X117559453Y-81140223D01*
X117379651Y-81014324D01*
X117379643Y-81014320D01*
X117180709Y-80921556D01*
X117180707Y-80921555D01*
X117180704Y-80921554D01*
X117029886Y-80881141D01*
X116968676Y-80864740D01*
X116968669Y-80864739D01*
X116750003Y-80845609D01*
X116749999Y-80845609D01*
X116531332Y-80864739D01*
X116531325Y-80864740D01*
X116319294Y-80921555D01*
X116120357Y-81014321D01*
X116120355Y-81014322D01*
X115940541Y-81140228D01*
X115785329Y-81295440D01*
X115659423Y-81475254D01*
X115659422Y-81475256D01*
X115566656Y-81674193D01*
X115509841Y-81886224D01*
X115509840Y-81886231D01*
X115490710Y-82104897D01*
X111509290Y-82104897D01*
X111490159Y-81886226D01*
X111433345Y-81674197D01*
X111340577Y-81475255D01*
X111214672Y-81295443D01*
X111059456Y-81140227D01*
X111059452Y-81140224D01*
X111059451Y-81140223D01*
X110879649Y-81014324D01*
X110879641Y-81014320D01*
X110680707Y-80921556D01*
X110680705Y-80921555D01*
X110680702Y-80921554D01*
X110529884Y-80881141D01*
X110468674Y-80864740D01*
X110468667Y-80864739D01*
X110250001Y-80845609D01*
X110249997Y-80845609D01*
X110031330Y-80864739D01*
X110031323Y-80864740D01*
X109819292Y-80921555D01*
X109620355Y-81014321D01*
X109620353Y-81014322D01*
X109440539Y-81140228D01*
X109285327Y-81295440D01*
X109159421Y-81475254D01*
X109159420Y-81475256D01*
X109066654Y-81674193D01*
X109009839Y-81886224D01*
X109009838Y-81886231D01*
X108990708Y-82104897D01*
X88500500Y-82104897D01*
X88500500Y-75104900D01*
X97991210Y-75104900D01*
X97991210Y-75104901D01*
X98010333Y-75323482D01*
X98010335Y-75323492D01*
X98067121Y-75535424D01*
X98067125Y-75535433D01*
X98159858Y-75734299D01*
X98204001Y-75797343D01*
X98204003Y-75797344D01*
X98767037Y-75234309D01*
X98784075Y-75297893D01*
X98849901Y-75411907D01*
X98942993Y-75504999D01*
X99057007Y-75570825D01*
X99120589Y-75587862D01*
X98557554Y-76150896D01*
X98620603Y-76195043D01*
X98620605Y-76195044D01*
X98819466Y-76287774D01*
X98819475Y-76287778D01*
X99031407Y-76344564D01*
X99031417Y-76344566D01*
X99249998Y-76363690D01*
X99250000Y-76363690D01*
X99468580Y-76344566D01*
X99468590Y-76344564D01*
X99680522Y-76287778D01*
X99680531Y-76287774D01*
X99879391Y-76195045D01*
X99942442Y-76150896D01*
X99379408Y-75587862D01*
X99442991Y-75570825D01*
X99557005Y-75504999D01*
X99650097Y-75411907D01*
X99715923Y-75297893D01*
X99732960Y-75234309D01*
X100295994Y-75797344D01*
X100340143Y-75734293D01*
X100432872Y-75535433D01*
X100432876Y-75535424D01*
X100489662Y-75323492D01*
X100489664Y-75323482D01*
X100508788Y-75104901D01*
X100508788Y-75104900D01*
X104491212Y-75104900D01*
X104491212Y-75104901D01*
X104510335Y-75323482D01*
X104510337Y-75323492D01*
X104567123Y-75535424D01*
X104567127Y-75535433D01*
X104659860Y-75734299D01*
X104704003Y-75797343D01*
X104704005Y-75797344D01*
X105267039Y-75234309D01*
X105284077Y-75297893D01*
X105349903Y-75411907D01*
X105442995Y-75504999D01*
X105557009Y-75570825D01*
X105620591Y-75587862D01*
X105057556Y-76150896D01*
X105120605Y-76195043D01*
X105120607Y-76195044D01*
X105319468Y-76287774D01*
X105319477Y-76287778D01*
X105531409Y-76344564D01*
X105531419Y-76344566D01*
X105750000Y-76363690D01*
X105750002Y-76363690D01*
X105968582Y-76344566D01*
X105968592Y-76344564D01*
X106180524Y-76287778D01*
X106180533Y-76287774D01*
X106379393Y-76195045D01*
X106442444Y-76150896D01*
X105879410Y-75587862D01*
X105942993Y-75570825D01*
X106057007Y-75504999D01*
X106150099Y-75411907D01*
X106215925Y-75297893D01*
X106232962Y-75234309D01*
X106795996Y-75797344D01*
X106840145Y-75734293D01*
X106932874Y-75535433D01*
X106932878Y-75535424D01*
X106989664Y-75323492D01*
X106989666Y-75323482D01*
X107008790Y-75104901D01*
X107008790Y-75104900D01*
X119991210Y-75104900D01*
X119991210Y-75104901D01*
X120010333Y-75323482D01*
X120010335Y-75323492D01*
X120067121Y-75535424D01*
X120067125Y-75535433D01*
X120159858Y-75734299D01*
X120204001Y-75797343D01*
X120204003Y-75797344D01*
X120767037Y-75234309D01*
X120784075Y-75297893D01*
X120849901Y-75411907D01*
X120942993Y-75504999D01*
X121057007Y-75570825D01*
X121120589Y-75587862D01*
X120557554Y-76150896D01*
X120620603Y-76195043D01*
X120620605Y-76195044D01*
X120819466Y-76287774D01*
X120819475Y-76287778D01*
X121031407Y-76344564D01*
X121031417Y-76344566D01*
X121249998Y-76363690D01*
X121250000Y-76363690D01*
X121468580Y-76344566D01*
X121468590Y-76344564D01*
X121680522Y-76287778D01*
X121680531Y-76287774D01*
X121879391Y-76195045D01*
X121942442Y-76150896D01*
X121379408Y-75587862D01*
X121442991Y-75570825D01*
X121557005Y-75504999D01*
X121650097Y-75411907D01*
X121715923Y-75297893D01*
X121732960Y-75234309D01*
X122295994Y-75797344D01*
X122340143Y-75734293D01*
X122432872Y-75535433D01*
X122432876Y-75535424D01*
X122489662Y-75323492D01*
X122489664Y-75323482D01*
X122508788Y-75104901D01*
X122508788Y-75104900D01*
X126491212Y-75104900D01*
X126491212Y-75104901D01*
X126510335Y-75323482D01*
X126510337Y-75323492D01*
X126567123Y-75535424D01*
X126567127Y-75535433D01*
X126659860Y-75734299D01*
X126704003Y-75797343D01*
X126704005Y-75797344D01*
X127267039Y-75234309D01*
X127284077Y-75297893D01*
X127349903Y-75411907D01*
X127442995Y-75504999D01*
X127557009Y-75570825D01*
X127620591Y-75587862D01*
X127057556Y-76150896D01*
X127120605Y-76195043D01*
X127120607Y-76195044D01*
X127319468Y-76287774D01*
X127319477Y-76287778D01*
X127531409Y-76344564D01*
X127531419Y-76344566D01*
X127750000Y-76363690D01*
X127750002Y-76363690D01*
X127968582Y-76344566D01*
X127968592Y-76344564D01*
X128180524Y-76287778D01*
X128180533Y-76287774D01*
X128379393Y-76195045D01*
X128442444Y-76150896D01*
X127879410Y-75587862D01*
X127942993Y-75570825D01*
X128057007Y-75504999D01*
X128150099Y-75411907D01*
X128215925Y-75297893D01*
X128232962Y-75234310D01*
X128795996Y-75797344D01*
X128840145Y-75734293D01*
X128932874Y-75535433D01*
X128932878Y-75535424D01*
X128989664Y-75323492D01*
X128989666Y-75323482D01*
X129008790Y-75104901D01*
X129008790Y-75104900D01*
X128989666Y-74886319D01*
X128989664Y-74886309D01*
X128932878Y-74674377D01*
X128932874Y-74674368D01*
X128840144Y-74475507D01*
X128840142Y-74475503D01*
X128795996Y-74412457D01*
X128232962Y-74975491D01*
X128215925Y-74911909D01*
X128150099Y-74797895D01*
X128057007Y-74704803D01*
X127942993Y-74638977D01*
X127879410Y-74621939D01*
X128442444Y-74058905D01*
X128442443Y-74058903D01*
X128379399Y-74014760D01*
X128180533Y-73922027D01*
X128180524Y-73922023D01*
X127968592Y-73865237D01*
X127968582Y-73865235D01*
X127750002Y-73846112D01*
X127750000Y-73846112D01*
X127531419Y-73865235D01*
X127531409Y-73865237D01*
X127319477Y-73922023D01*
X127319468Y-73922026D01*
X127120608Y-74014757D01*
X127120606Y-74014758D01*
X127057558Y-74058905D01*
X127057557Y-74058905D01*
X127620592Y-74621939D01*
X127557009Y-74638977D01*
X127442995Y-74704803D01*
X127349903Y-74797895D01*
X127284077Y-74911909D01*
X127267039Y-74975491D01*
X126704005Y-74412457D01*
X126704005Y-74412458D01*
X126659858Y-74475506D01*
X126659857Y-74475508D01*
X126567126Y-74674368D01*
X126567123Y-74674377D01*
X126510337Y-74886309D01*
X126510335Y-74886319D01*
X126491212Y-75104900D01*
X122508788Y-75104900D01*
X122489664Y-74886319D01*
X122489662Y-74886309D01*
X122432876Y-74674377D01*
X122432872Y-74674368D01*
X122340142Y-74475507D01*
X122340140Y-74475503D01*
X122295994Y-74412457D01*
X121732960Y-74975491D01*
X121715923Y-74911909D01*
X121650097Y-74797895D01*
X121557005Y-74704803D01*
X121442991Y-74638977D01*
X121379408Y-74621939D01*
X121942442Y-74058905D01*
X121942441Y-74058903D01*
X121879397Y-74014760D01*
X121680531Y-73922027D01*
X121680522Y-73922023D01*
X121468590Y-73865237D01*
X121468580Y-73865235D01*
X121250000Y-73846112D01*
X121249998Y-73846112D01*
X121031417Y-73865235D01*
X121031407Y-73865237D01*
X120819475Y-73922023D01*
X120819466Y-73922026D01*
X120620606Y-74014757D01*
X120620604Y-74014758D01*
X120557556Y-74058905D01*
X120557555Y-74058905D01*
X121120590Y-74621939D01*
X121057007Y-74638977D01*
X120942993Y-74704803D01*
X120849901Y-74797895D01*
X120784075Y-74911909D01*
X120767037Y-74975491D01*
X120204003Y-74412457D01*
X120204003Y-74412458D01*
X120159856Y-74475506D01*
X120159855Y-74475508D01*
X120067124Y-74674368D01*
X120067121Y-74674377D01*
X120010335Y-74886309D01*
X120010333Y-74886319D01*
X119991210Y-75104900D01*
X107008790Y-75104900D01*
X106989666Y-74886319D01*
X106989664Y-74886309D01*
X106932878Y-74674377D01*
X106932874Y-74674368D01*
X106840144Y-74475507D01*
X106840142Y-74475503D01*
X106795996Y-74412457D01*
X106232962Y-74975491D01*
X106215925Y-74911909D01*
X106150099Y-74797895D01*
X106057007Y-74704803D01*
X105942993Y-74638977D01*
X105879410Y-74621939D01*
X106442444Y-74058905D01*
X106442443Y-74058903D01*
X106379399Y-74014760D01*
X106180533Y-73922027D01*
X106180524Y-73922023D01*
X105968592Y-73865237D01*
X105968582Y-73865235D01*
X105750002Y-73846112D01*
X105750000Y-73846112D01*
X105531419Y-73865235D01*
X105531409Y-73865237D01*
X105319477Y-73922023D01*
X105319468Y-73922026D01*
X105120608Y-74014757D01*
X105120606Y-74014758D01*
X105057558Y-74058905D01*
X105057557Y-74058905D01*
X105620592Y-74621939D01*
X105557009Y-74638977D01*
X105442995Y-74704803D01*
X105349903Y-74797895D01*
X105284077Y-74911909D01*
X105267039Y-74975491D01*
X104704005Y-74412457D01*
X104704005Y-74412458D01*
X104659858Y-74475506D01*
X104659857Y-74475508D01*
X104567126Y-74674368D01*
X104567123Y-74674377D01*
X104510337Y-74886309D01*
X104510335Y-74886319D01*
X104491212Y-75104900D01*
X100508788Y-75104900D01*
X100489664Y-74886319D01*
X100489662Y-74886309D01*
X100432876Y-74674377D01*
X100432872Y-74674368D01*
X100340142Y-74475507D01*
X100340140Y-74475503D01*
X100295994Y-74412457D01*
X99732960Y-74975491D01*
X99715923Y-74911909D01*
X99650097Y-74797895D01*
X99557005Y-74704803D01*
X99442991Y-74638977D01*
X99379408Y-74621939D01*
X99942442Y-74058905D01*
X99942441Y-74058903D01*
X99879397Y-74014760D01*
X99680531Y-73922027D01*
X99680522Y-73922023D01*
X99468590Y-73865237D01*
X99468580Y-73865235D01*
X99250000Y-73846112D01*
X99249998Y-73846112D01*
X99031417Y-73865235D01*
X99031407Y-73865237D01*
X98819475Y-73922023D01*
X98819466Y-73922026D01*
X98620606Y-74014757D01*
X98620604Y-74014758D01*
X98557556Y-74058905D01*
X98557555Y-74058905D01*
X99120590Y-74621939D01*
X99057007Y-74638977D01*
X98942993Y-74704803D01*
X98849901Y-74797895D01*
X98784075Y-74911909D01*
X98767037Y-74975491D01*
X98204003Y-74412457D01*
X98204003Y-74412458D01*
X98159856Y-74475506D01*
X98159855Y-74475508D01*
X98067124Y-74674368D01*
X98067121Y-74674377D01*
X98010335Y-74886309D01*
X98010333Y-74886319D01*
X97991210Y-75104900D01*
X88500500Y-75104900D01*
X88500500Y-70604897D01*
X97990708Y-70604897D01*
X97990708Y-70604900D01*
X98009839Y-70823574D01*
X98066653Y-71035603D01*
X98066654Y-71035606D01*
X98066655Y-71035608D01*
X98159419Y-71234542D01*
X98159423Y-71234550D01*
X98285322Y-71414352D01*
X98285327Y-71414358D01*
X98440540Y-71569571D01*
X98440546Y-71569576D01*
X98620348Y-71695475D01*
X98620350Y-71695476D01*
X98620353Y-71695478D01*
X98819296Y-71788246D01*
X99031325Y-71845060D01*
X99187520Y-71858725D01*
X99249997Y-71864191D01*
X99249999Y-71864191D01*
X99250001Y-71864191D01*
X99304667Y-71859408D01*
X99468673Y-71845060D01*
X99680702Y-71788246D01*
X99879645Y-71695478D01*
X100059456Y-71569573D01*
X100214672Y-71414357D01*
X100340577Y-71234546D01*
X100433345Y-71035603D01*
X100490159Y-70823574D01*
X100509290Y-70604900D01*
X100509290Y-70604897D01*
X104490710Y-70604897D01*
X104490710Y-70604900D01*
X104509841Y-70823574D01*
X104566655Y-71035603D01*
X104566656Y-71035606D01*
X104566657Y-71035608D01*
X104659421Y-71234542D01*
X104659425Y-71234550D01*
X104785324Y-71414352D01*
X104785329Y-71414358D01*
X104940542Y-71569571D01*
X104940548Y-71569576D01*
X105120350Y-71695475D01*
X105120352Y-71695476D01*
X105120355Y-71695478D01*
X105319298Y-71788246D01*
X105531327Y-71845060D01*
X105687522Y-71858725D01*
X105749999Y-71864191D01*
X105750001Y-71864191D01*
X105750003Y-71864191D01*
X105804669Y-71859408D01*
X105968675Y-71845060D01*
X106180704Y-71788246D01*
X106379647Y-71695478D01*
X106559458Y-71569573D01*
X106714674Y-71414357D01*
X106840579Y-71234546D01*
X106933347Y-71035603D01*
X106990161Y-70823574D01*
X107009292Y-70604900D01*
X107009292Y-70604897D01*
X119990708Y-70604897D01*
X119990708Y-70604900D01*
X120009839Y-70823574D01*
X120066653Y-71035603D01*
X120066654Y-71035606D01*
X120066655Y-71035608D01*
X120159419Y-71234542D01*
X120159423Y-71234550D01*
X120285322Y-71414352D01*
X120285327Y-71414358D01*
X120440540Y-71569571D01*
X120440546Y-71569576D01*
X120620348Y-71695475D01*
X120620350Y-71695476D01*
X120620353Y-71695478D01*
X120819296Y-71788246D01*
X121031325Y-71845060D01*
X121187520Y-71858725D01*
X121249997Y-71864191D01*
X121249999Y-71864191D01*
X121250001Y-71864191D01*
X121304667Y-71859408D01*
X121468673Y-71845060D01*
X121680702Y-71788246D01*
X121879645Y-71695478D01*
X122059456Y-71569573D01*
X122214672Y-71414357D01*
X122340577Y-71234546D01*
X122433345Y-71035603D01*
X122490159Y-70823574D01*
X122509290Y-70604900D01*
X122509290Y-70604897D01*
X126490710Y-70604897D01*
X126490710Y-70604900D01*
X126509841Y-70823574D01*
X126566655Y-71035603D01*
X126566656Y-71035606D01*
X126566657Y-71035608D01*
X126659421Y-71234542D01*
X126659425Y-71234550D01*
X126785324Y-71414352D01*
X126785329Y-71414358D01*
X126940542Y-71569571D01*
X126940548Y-71569576D01*
X127120350Y-71695475D01*
X127120352Y-71695476D01*
X127120355Y-71695478D01*
X127319298Y-71788246D01*
X127531327Y-71845060D01*
X127687522Y-71858725D01*
X127749999Y-71864191D01*
X127750001Y-71864191D01*
X127750003Y-71864191D01*
X127804669Y-71859408D01*
X127968675Y-71845060D01*
X128180704Y-71788246D01*
X128379647Y-71695478D01*
X128559458Y-71569573D01*
X128714674Y-71414357D01*
X128840579Y-71234546D01*
X128933347Y-71035603D01*
X128990161Y-70823574D01*
X129009292Y-70604900D01*
X128990161Y-70386226D01*
X128933347Y-70174197D01*
X128840579Y-69975255D01*
X128714674Y-69795443D01*
X128559458Y-69640227D01*
X128559454Y-69640224D01*
X128559453Y-69640223D01*
X128379651Y-69514324D01*
X128379643Y-69514320D01*
X128180709Y-69421556D01*
X128180707Y-69421555D01*
X128180704Y-69421554D01*
X128029886Y-69381141D01*
X127968676Y-69364740D01*
X127968669Y-69364739D01*
X127750003Y-69345609D01*
X127749999Y-69345609D01*
X127531332Y-69364739D01*
X127531325Y-69364740D01*
X127319294Y-69421555D01*
X127120357Y-69514321D01*
X127120355Y-69514322D01*
X126940541Y-69640228D01*
X126785329Y-69795440D01*
X126659423Y-69975254D01*
X126659422Y-69975256D01*
X126566656Y-70174193D01*
X126509841Y-70386224D01*
X126509840Y-70386231D01*
X126490710Y-70604897D01*
X122509290Y-70604897D01*
X122490159Y-70386226D01*
X122433345Y-70174197D01*
X122340577Y-69975255D01*
X122214672Y-69795443D01*
X122059456Y-69640227D01*
X122059452Y-69640224D01*
X122059451Y-69640223D01*
X121879649Y-69514324D01*
X121879641Y-69514320D01*
X121680707Y-69421556D01*
X121680705Y-69421555D01*
X121680702Y-69421554D01*
X121529884Y-69381141D01*
X121468674Y-69364740D01*
X121468667Y-69364739D01*
X121250001Y-69345609D01*
X121249997Y-69345609D01*
X121031330Y-69364739D01*
X121031323Y-69364740D01*
X120819292Y-69421555D01*
X120620355Y-69514321D01*
X120620353Y-69514322D01*
X120440539Y-69640228D01*
X120285327Y-69795440D01*
X120159421Y-69975254D01*
X120159420Y-69975256D01*
X120066654Y-70174193D01*
X120009839Y-70386224D01*
X120009838Y-70386231D01*
X119990708Y-70604897D01*
X107009292Y-70604897D01*
X106990161Y-70386226D01*
X106933347Y-70174197D01*
X106840579Y-69975255D01*
X106714674Y-69795443D01*
X106559458Y-69640227D01*
X106559454Y-69640224D01*
X106559453Y-69640223D01*
X106379651Y-69514324D01*
X106379643Y-69514320D01*
X106180709Y-69421556D01*
X106180707Y-69421555D01*
X106180704Y-69421554D01*
X106029886Y-69381141D01*
X105968676Y-69364740D01*
X105968669Y-69364739D01*
X105750003Y-69345609D01*
X105749999Y-69345609D01*
X105531332Y-69364739D01*
X105531325Y-69364740D01*
X105319294Y-69421555D01*
X105120357Y-69514321D01*
X105120355Y-69514322D01*
X104940541Y-69640228D01*
X104785329Y-69795440D01*
X104659423Y-69975254D01*
X104659422Y-69975256D01*
X104566656Y-70174193D01*
X104509841Y-70386224D01*
X104509840Y-70386231D01*
X104490710Y-70604897D01*
X100509290Y-70604897D01*
X100490159Y-70386226D01*
X100433345Y-70174197D01*
X100340577Y-69975255D01*
X100214672Y-69795443D01*
X100059456Y-69640227D01*
X100059452Y-69640224D01*
X100059451Y-69640223D01*
X99879649Y-69514324D01*
X99879641Y-69514320D01*
X99680707Y-69421556D01*
X99680705Y-69421555D01*
X99680702Y-69421554D01*
X99529884Y-69381141D01*
X99468674Y-69364740D01*
X99468667Y-69364739D01*
X99250001Y-69345609D01*
X99249997Y-69345609D01*
X99031330Y-69364739D01*
X99031323Y-69364740D01*
X98819292Y-69421555D01*
X98620355Y-69514321D01*
X98620353Y-69514322D01*
X98440539Y-69640228D01*
X98285327Y-69795440D01*
X98159421Y-69975254D01*
X98159420Y-69975256D01*
X98066654Y-70174193D01*
X98009839Y-70386224D01*
X98009838Y-70386231D01*
X97990708Y-70604897D01*
X88500500Y-70604897D01*
X88500500Y-63104900D01*
X108991210Y-63104900D01*
X108991210Y-63104901D01*
X109010333Y-63323482D01*
X109010335Y-63323492D01*
X109067121Y-63535424D01*
X109067125Y-63535433D01*
X109159858Y-63734299D01*
X109204001Y-63797343D01*
X109204003Y-63797344D01*
X109767037Y-63234309D01*
X109784075Y-63297893D01*
X109849901Y-63411907D01*
X109942993Y-63504999D01*
X110057007Y-63570825D01*
X110120589Y-63587862D01*
X109557554Y-64150896D01*
X109620603Y-64195043D01*
X109620605Y-64195044D01*
X109819466Y-64287774D01*
X109819475Y-64287778D01*
X110031407Y-64344564D01*
X110031417Y-64344566D01*
X110249998Y-64363690D01*
X110250000Y-64363690D01*
X110468580Y-64344566D01*
X110468590Y-64344564D01*
X110680522Y-64287778D01*
X110680531Y-64287774D01*
X110879391Y-64195045D01*
X110942442Y-64150896D01*
X110379408Y-63587862D01*
X110442991Y-63570825D01*
X110557005Y-63504999D01*
X110650097Y-63411907D01*
X110715923Y-63297893D01*
X110732960Y-63234309D01*
X111295994Y-63797344D01*
X111340143Y-63734293D01*
X111432872Y-63535433D01*
X111432876Y-63535424D01*
X111489662Y-63323492D01*
X111489664Y-63323482D01*
X111508788Y-63104901D01*
X111508788Y-63104900D01*
X115491212Y-63104900D01*
X115491212Y-63104901D01*
X115510335Y-63323482D01*
X115510337Y-63323492D01*
X115567123Y-63535424D01*
X115567127Y-63535433D01*
X115659860Y-63734299D01*
X115704003Y-63797343D01*
X115704005Y-63797344D01*
X116267039Y-63234309D01*
X116284077Y-63297893D01*
X116349903Y-63411907D01*
X116442995Y-63504999D01*
X116557009Y-63570825D01*
X116620591Y-63587862D01*
X116057556Y-64150896D01*
X116120605Y-64195043D01*
X116120607Y-64195044D01*
X116319468Y-64287774D01*
X116319477Y-64287778D01*
X116531409Y-64344564D01*
X116531419Y-64344566D01*
X116750000Y-64363690D01*
X116750002Y-64363690D01*
X116968582Y-64344566D01*
X116968592Y-64344564D01*
X117180524Y-64287778D01*
X117180533Y-64287774D01*
X117379393Y-64195045D01*
X117442444Y-64150896D01*
X116879410Y-63587862D01*
X116942993Y-63570825D01*
X117057007Y-63504999D01*
X117150099Y-63411907D01*
X117215925Y-63297893D01*
X117232962Y-63234309D01*
X117795996Y-63797344D01*
X117840145Y-63734293D01*
X117932874Y-63535433D01*
X117932878Y-63535424D01*
X117989664Y-63323492D01*
X117989666Y-63323482D01*
X118008790Y-63104901D01*
X118008790Y-63104900D01*
X117989666Y-62886319D01*
X117989664Y-62886309D01*
X117932878Y-62674377D01*
X117932874Y-62674368D01*
X117840144Y-62475507D01*
X117840142Y-62475503D01*
X117795996Y-62412457D01*
X117232962Y-62975491D01*
X117215925Y-62911909D01*
X117150099Y-62797895D01*
X117057007Y-62704803D01*
X116942993Y-62638977D01*
X116879410Y-62621939D01*
X117442444Y-62058905D01*
X117442443Y-62058903D01*
X117379399Y-62014760D01*
X117180533Y-61922027D01*
X117180524Y-61922023D01*
X116968592Y-61865237D01*
X116968582Y-61865235D01*
X116750002Y-61846112D01*
X116750000Y-61846112D01*
X116531419Y-61865235D01*
X116531409Y-61865237D01*
X116319477Y-61922023D01*
X116319468Y-61922026D01*
X116120608Y-62014757D01*
X116120606Y-62014758D01*
X116057558Y-62058905D01*
X116057557Y-62058905D01*
X116620592Y-62621939D01*
X116557009Y-62638977D01*
X116442995Y-62704803D01*
X116349903Y-62797895D01*
X116284077Y-62911909D01*
X116267039Y-62975491D01*
X115704005Y-62412457D01*
X115704005Y-62412458D01*
X115659858Y-62475506D01*
X115659857Y-62475508D01*
X115567126Y-62674368D01*
X115567123Y-62674377D01*
X115510337Y-62886309D01*
X115510335Y-62886319D01*
X115491212Y-63104900D01*
X111508788Y-63104900D01*
X111489664Y-62886319D01*
X111489662Y-62886309D01*
X111432876Y-62674377D01*
X111432872Y-62674368D01*
X111340142Y-62475507D01*
X111340140Y-62475503D01*
X111295994Y-62412457D01*
X110732960Y-62975491D01*
X110715923Y-62911909D01*
X110650097Y-62797895D01*
X110557005Y-62704803D01*
X110442991Y-62638977D01*
X110379408Y-62621939D01*
X110942442Y-62058905D01*
X110942441Y-62058903D01*
X110879397Y-62014760D01*
X110680531Y-61922027D01*
X110680522Y-61922023D01*
X110468590Y-61865237D01*
X110468580Y-61865235D01*
X110250000Y-61846112D01*
X110249998Y-61846112D01*
X110031417Y-61865235D01*
X110031407Y-61865237D01*
X109819475Y-61922023D01*
X109819466Y-61922026D01*
X109620606Y-62014757D01*
X109620604Y-62014758D01*
X109557556Y-62058905D01*
X109557555Y-62058905D01*
X110120590Y-62621939D01*
X110057007Y-62638977D01*
X109942993Y-62704803D01*
X109849901Y-62797895D01*
X109784075Y-62911909D01*
X109767037Y-62975491D01*
X109204003Y-62412457D01*
X109204003Y-62412458D01*
X109159856Y-62475506D01*
X109159855Y-62475508D01*
X109067124Y-62674368D01*
X109067121Y-62674377D01*
X109010335Y-62886309D01*
X109010333Y-62886319D01*
X108991210Y-63104900D01*
X88500500Y-63104900D01*
X88500500Y-58604897D01*
X108990708Y-58604897D01*
X108990708Y-58604900D01*
X109009839Y-58823574D01*
X109066653Y-59035603D01*
X109066654Y-59035606D01*
X109066655Y-59035608D01*
X109159419Y-59234542D01*
X109159423Y-59234550D01*
X109285322Y-59414352D01*
X109285327Y-59414358D01*
X109440540Y-59569571D01*
X109440546Y-59569576D01*
X109620348Y-59695475D01*
X109620350Y-59695476D01*
X109620353Y-59695478D01*
X109819296Y-59788246D01*
X110031325Y-59845060D01*
X110187520Y-59858725D01*
X110249997Y-59864191D01*
X110249999Y-59864191D01*
X110250001Y-59864191D01*
X110304667Y-59859408D01*
X110468673Y-59845060D01*
X110680702Y-59788246D01*
X110879645Y-59695478D01*
X111059456Y-59569573D01*
X111214672Y-59414357D01*
X111340577Y-59234546D01*
X111433345Y-59035603D01*
X111490159Y-58823574D01*
X111509290Y-58604900D01*
X111509290Y-58604897D01*
X115490710Y-58604897D01*
X115490710Y-58604900D01*
X115509841Y-58823574D01*
X115566655Y-59035603D01*
X115566656Y-59035606D01*
X115566657Y-59035608D01*
X115659421Y-59234542D01*
X115659425Y-59234550D01*
X115785324Y-59414352D01*
X115785329Y-59414358D01*
X115940542Y-59569571D01*
X115940548Y-59569576D01*
X116120350Y-59695475D01*
X116120352Y-59695476D01*
X116120355Y-59695478D01*
X116319298Y-59788246D01*
X116531327Y-59845060D01*
X116687522Y-59858725D01*
X116749999Y-59864191D01*
X116750001Y-59864191D01*
X116750003Y-59864191D01*
X116804669Y-59859408D01*
X116968675Y-59845060D01*
X117180704Y-59788246D01*
X117379647Y-59695478D01*
X117559458Y-59569573D01*
X117714674Y-59414357D01*
X117840579Y-59234546D01*
X117933347Y-59035603D01*
X117990161Y-58823574D01*
X118009292Y-58604900D01*
X117990161Y-58386226D01*
X117933347Y-58174197D01*
X117840579Y-57975255D01*
X117714674Y-57795443D01*
X117559458Y-57640227D01*
X117559454Y-57640224D01*
X117559453Y-57640223D01*
X117379651Y-57514324D01*
X117379643Y-57514320D01*
X117180709Y-57421556D01*
X117180707Y-57421555D01*
X117180704Y-57421554D01*
X117029886Y-57381141D01*
X116968676Y-57364740D01*
X116968669Y-57364739D01*
X116750003Y-57345609D01*
X116749999Y-57345609D01*
X116531332Y-57364739D01*
X116531325Y-57364740D01*
X116319294Y-57421555D01*
X116120357Y-57514321D01*
X116120355Y-57514322D01*
X115940541Y-57640228D01*
X115785329Y-57795440D01*
X115659423Y-57975254D01*
X115659422Y-57975256D01*
X115566656Y-58174193D01*
X115509841Y-58386224D01*
X115509840Y-58386231D01*
X115490710Y-58604897D01*
X111509290Y-58604897D01*
X111490159Y-58386226D01*
X111433345Y-58174197D01*
X111340577Y-57975255D01*
X111214672Y-57795443D01*
X111059456Y-57640227D01*
X111059452Y-57640224D01*
X111059451Y-57640223D01*
X110879649Y-57514324D01*
X110879641Y-57514320D01*
X110680707Y-57421556D01*
X110680705Y-57421555D01*
X110680702Y-57421554D01*
X110529884Y-57381141D01*
X110468674Y-57364740D01*
X110468667Y-57364739D01*
X110250001Y-57345609D01*
X110249997Y-57345609D01*
X110031330Y-57364739D01*
X110031323Y-57364740D01*
X109819292Y-57421555D01*
X109620355Y-57514321D01*
X109620353Y-57514322D01*
X109440539Y-57640228D01*
X109285327Y-57795440D01*
X109159421Y-57975254D01*
X109159420Y-57975256D01*
X109066654Y-58174193D01*
X109009839Y-58386224D01*
X109009838Y-58386231D01*
X108990708Y-58604897D01*
X88500500Y-58604897D01*
X88500500Y-53499998D01*
X88994390Y-53499998D01*
X88994390Y-53500001D01*
X89014804Y-53785433D01*
X89075628Y-54065037D01*
X89175635Y-54333166D01*
X89312770Y-54584309D01*
X89312775Y-54584317D01*
X89484254Y-54813387D01*
X89484270Y-54813405D01*
X89686594Y-55015729D01*
X89686612Y-55015745D01*
X89915682Y-55187224D01*
X89915690Y-55187229D01*
X90166833Y-55324364D01*
X90166832Y-55324364D01*
X90166836Y-55324365D01*
X90166839Y-55324367D01*
X90434954Y-55424369D01*
X90434960Y-55424370D01*
X90434962Y-55424371D01*
X90714566Y-55485195D01*
X90714568Y-55485195D01*
X90714572Y-55485196D01*
X90968220Y-55503337D01*
X90999999Y-55505610D01*
X91000000Y-55505610D01*
X91000001Y-55505610D01*
X91028595Y-55503564D01*
X91285428Y-55485196D01*
X91565046Y-55424369D01*
X91833161Y-55324367D01*
X92084315Y-55187226D01*
X92313395Y-55015739D01*
X92515739Y-54813395D01*
X92687226Y-54584315D01*
X92824367Y-54333161D01*
X92924369Y-54065046D01*
X92985196Y-53785428D01*
X93005610Y-53500000D01*
X93005610Y-53499998D01*
X132994390Y-53499998D01*
X132994390Y-53500001D01*
X133014804Y-53785433D01*
X133075628Y-54065037D01*
X133175635Y-54333166D01*
X133312770Y-54584309D01*
X133312775Y-54584317D01*
X133484254Y-54813387D01*
X133484270Y-54813405D01*
X133686594Y-55015729D01*
X133686612Y-55015745D01*
X133915682Y-55187224D01*
X133915690Y-55187229D01*
X134166833Y-55324364D01*
X134166832Y-55324364D01*
X134166836Y-55324365D01*
X134166839Y-55324367D01*
X134434954Y-55424369D01*
X134434960Y-55424370D01*
X134434962Y-55424371D01*
X134714566Y-55485195D01*
X134714568Y-55485195D01*
X134714572Y-55485196D01*
X134968220Y-55503337D01*
X134999999Y-55505610D01*
X135000000Y-55505610D01*
X135000001Y-55505610D01*
X135028595Y-55503564D01*
X135285428Y-55485196D01*
X135565046Y-55424369D01*
X135833161Y-55324367D01*
X136084315Y-55187226D01*
X136313395Y-55015739D01*
X136515739Y-54813395D01*
X136687226Y-54584315D01*
X136824367Y-54333161D01*
X136924369Y-54065046D01*
X136985196Y-53785428D01*
X137005610Y-53500000D01*
X136985196Y-53214572D01*
X136924369Y-52934954D01*
X136824367Y-52666839D01*
X136744025Y-52519705D01*
X136687229Y-52415690D01*
X136687224Y-52415682D01*
X136515745Y-52186612D01*
X136515729Y-52186594D01*
X136313405Y-51984270D01*
X136313387Y-51984254D01*
X136084317Y-51812775D01*
X136084309Y-51812770D01*
X135833166Y-51675635D01*
X135833167Y-51675635D01*
X135725915Y-51635632D01*
X135565046Y-51575631D01*
X135565043Y-51575630D01*
X135565037Y-51575628D01*
X135285433Y-51514804D01*
X135000001Y-51494390D01*
X134999999Y-51494390D01*
X134714566Y-51514804D01*
X134434962Y-51575628D01*
X134166833Y-51675635D01*
X133915690Y-51812770D01*
X133915682Y-51812775D01*
X133686612Y-51984254D01*
X133686594Y-51984270D01*
X133484270Y-52186594D01*
X133484254Y-52186612D01*
X133312775Y-52415682D01*
X133312770Y-52415690D01*
X133175635Y-52666833D01*
X133075628Y-52934962D01*
X133014804Y-53214566D01*
X132994390Y-53499998D01*
X93005610Y-53499998D01*
X92985196Y-53214572D01*
X92924369Y-52934954D01*
X92824367Y-52666839D01*
X92744025Y-52519705D01*
X92687229Y-52415690D01*
X92687224Y-52415682D01*
X92515745Y-52186612D01*
X92515729Y-52186594D01*
X92313405Y-51984270D01*
X92313387Y-51984254D01*
X92084317Y-51812775D01*
X92084309Y-51812770D01*
X91833166Y-51675635D01*
X91833167Y-51675635D01*
X91725915Y-51635632D01*
X91565046Y-51575631D01*
X91565043Y-51575630D01*
X91565037Y-51575628D01*
X91285433Y-51514804D01*
X91000001Y-51494390D01*
X90999999Y-51494390D01*
X90714566Y-51514804D01*
X90434962Y-51575628D01*
X90166833Y-51675635D01*
X89915690Y-51812770D01*
X89915682Y-51812775D01*
X89686612Y-51984254D01*
X89686594Y-51984270D01*
X89484270Y-52186594D01*
X89484254Y-52186612D01*
X89312775Y-52415682D01*
X89312770Y-52415690D01*
X89175635Y-52666833D01*
X89075628Y-52934962D01*
X89014804Y-53214566D01*
X88994390Y-53499998D01*
X88500500Y-53499998D01*
X88500500Y-52386102D01*
X88520185Y-52319063D01*
X88523342Y-52314387D01*
X88650490Y-52135190D01*
X88659128Y-52124358D01*
X88874049Y-51883861D01*
X88883861Y-51874049D01*
X89124358Y-51659128D01*
X89135201Y-51650482D01*
X89398228Y-51463854D01*
X89409983Y-51456467D01*
X89692269Y-51300452D01*
X89704775Y-51294430D01*
X90002727Y-51171016D01*
X90015847Y-51166424D01*
X90325753Y-51077141D01*
X90339299Y-51074049D01*
X90657253Y-51020027D01*
X90671048Y-51018473D01*
X90940338Y-51003350D01*
X90987626Y-51000695D01*
X90994578Y-51000500D01*
X135005422Y-51000500D01*
X135012374Y-51000695D01*
G37*
%TD.AperFunction*%
%TD*%
D16*
X92500000Y-53500000D02*
G75*
G02*
X89500000Y-53500000I-1500000J0D01*
G01*
X89500000Y-53500000D02*
G75*
G02*
X92500000Y-53500000I1500000J0D01*
G01*
X136500000Y-53500000D02*
G75*
G02*
X133500000Y-53500000I-1500000J0D01*
G01*
X133500000Y-53500000D02*
G75*
G02*
X136500000Y-53500000I1500000J0D01*
G01*
X88000000Y-50500000D02*
X138000000Y-50500000D01*
X138000000Y-163500000D01*
X88000000Y-163500000D01*
X88000000Y-50500000D01*
X92500000Y-160500000D02*
G75*
G02*
X89500000Y-160500000I-1500000J0D01*
G01*
X89500000Y-160500000D02*
G75*
G02*
X92500000Y-160500000I1500000J0D01*
G01*
X136500000Y-160500000D02*
G75*
G02*
X133500000Y-160500000I-1500000J0D01*
G01*
X133500000Y-160500000D02*
G75*
G02*
X136500000Y-160500000I1500000J0D01*
G01*
M02*
