M48
; DRILL file {KiCad 8.0.6} date 2024-11-20T17:32:47-0800
; FORMAT={-:-/ absolute / inch / decimal}
; #@! TF.CreationDate,2024-11-20T17:32:47-08:00
; #@! TF.GenerationSoftware,Kicad,Pcbnew,8.0.6
; #@! TF.FileFunction,Plated,1,4,PTH
FMAT,2
INCH
; #@! TA.AperFunction,Plated,PTH,ViaDrill
T1C0.0118
; #@! TA.AperFunction,Plated,PTH,ComponentDrill
T2C0.0394
; #@! TA.AperFunction,Plated,PTH,ComponentDrill
T3C0.0402
; #@! TA.AperFunction,Plated,PTH,ComponentDrill
T4C0.0421
%
G90
G05
T1
X3.8583Y-5.9646
T2
X3.9075Y-2.7797
X3.9075Y-2.9569
X4.1634Y-2.7797
X4.1634Y-2.9569
X4.3406Y-2.3073
X4.3406Y-2.4844
X4.3406Y-3.2325
X4.3406Y-3.4096
X4.5965Y-2.3073
X4.5965Y-2.4844
X4.5965Y-3.2325
X4.5965Y-3.4096
X4.7736Y-2.7797
X4.7736Y-2.9569
X5.0295Y-2.7797
X5.0295Y-2.9569
T3
X4.0213Y-4.1512
X4.0213Y-4.2512
X4.0213Y-4.3512
X4.0213Y-4.4512
X4.0213Y-4.5512
X4.0213Y-4.6512
X4.0213Y-4.7512
X4.0213Y-4.8512
X4.0213Y-4.9512
X4.0213Y-5.0512
X4.0213Y-5.1512
X4.0213Y-5.2512
X4.0213Y-5.3512
X4.0213Y-5.4512
X4.0213Y-5.5512
X4.0213Y-5.6512
X4.0213Y-5.7512
X4.0213Y-5.8512
X4.0213Y-5.9512
X4.0213Y-6.0512
X4.0213Y-6.1512
X4.0213Y-6.2512
X4.9213Y-4.1512
X4.9213Y-4.2512
X4.9213Y-4.3512
X4.9213Y-4.4512
X4.9213Y-4.5512
X4.9213Y-4.6512
X4.9213Y-4.7512
X4.9213Y-4.8512
X4.9213Y-4.9512
X4.9213Y-5.0512
X4.9213Y-5.1512
X4.9213Y-5.2512
X4.9213Y-5.3512
X4.9213Y-5.4512
X4.9213Y-5.5512
X4.9213Y-5.6512
X4.9213Y-5.7512
X4.9213Y-5.8512
X4.9213Y-5.9512
X4.9213Y-6.0512
X4.9213Y-6.1512
X4.9213Y-6.2512
T4
X3.7598Y-4.3488
X3.7598Y-4.4488
X3.7598Y-4.5488
X3.7598Y-4.6488
X5.2165Y-4.259
X5.2165Y-4.359
X5.2165Y-4.459
X5.2165Y-4.559
X5.2165Y-4.659
X5.2165Y-4.759
M30
