%TF.GenerationSoftware,KiCad,Pcbnew,8.0.6*%
%TF.CreationDate,2024-11-20T17:32:44-08:00*%
%TF.ProjectId,hardware_password,68617264-7761-4726-955f-70617373776f,rev?*%
%TF.SameCoordinates,Original*%
%TF.FileFunction,Soldermask,Top*%
%TF.FilePolarity,Negative*%
%FSLAX46Y46*%
G04 Gerber Fmt 4.6, Leading zero omitted, Abs format (unit mm)*
G04 Created by KiCad (PCBNEW 8.0.6) date 2024-11-20 17:32:44*
%MOMM*%
%LPD*%
G01*
G04 APERTURE LIST*
G04 Aperture macros list*
%AMRoundRect*
0 Rectangle with rounded corners*
0 $1 Rounding radius*
0 $2 $3 $4 $5 $6 $7 $8 $9 X,Y pos of 4 corners*
0 Add a 4 corners polygon primitive as box body*
4,1,4,$2,$3,$4,$5,$6,$7,$8,$9,$2,$3,0*
0 Add four circle primitives for the rounded corners*
1,1,$1+$1,$2,$3*
1,1,$1+$1,$4,$5*
1,1,$1+$1,$6,$7*
1,1,$1+$1,$8,$9*
0 Add four rect primitives between the rounded corners*
20,1,$1+$1,$2,$3,$4,$5,0*
20,1,$1+$1,$4,$5,$6,$7,0*
20,1,$1+$1,$6,$7,$8,$9,0*
20,1,$1+$1,$8,$9,$2,$3,0*%
G04 Aperture macros list end*
%ADD10C,1.507998*%
%ADD11RoundRect,0.102000X-0.802500X0.802500X-0.802500X-0.802500X0.802500X-0.802500X0.802500X0.802500X0*%
%ADD12C,1.809000*%
%ADD13RoundRect,0.102000X-0.765000X-0.765000X0.765000X-0.765000X0.765000X0.765000X-0.765000X0.765000X0*%
%ADD14C,1.734000*%
%ADD15RoundRect,0.102000X0.802500X-0.802500X0.802500X0.802500X-0.802500X0.802500X-0.802500X-0.802500X0*%
%ADD16RoundRect,0.250000X-0.475000X0.250000X-0.475000X-0.250000X0.475000X-0.250000X0.475000X0.250000X0*%
%TA.AperFunction,Profile*%
%ADD17C,0.100000*%
%TD*%
G04 APERTURE END LIST*
D10*
%TO.C,SW2*%
X110249999Y-58604900D03*
X116750001Y-58604900D03*
X110249999Y-63104901D03*
X116750001Y-63104901D03*
%TD*%
D11*
%TO.C,J1*%
X95500000Y-110460000D03*
D12*
X95500000Y-113000000D03*
X95500000Y-115540000D03*
X95500000Y-118080000D03*
%TD*%
D13*
%TO.C,U1*%
X102140000Y-105440000D03*
D14*
X102140000Y-107980000D03*
X102140000Y-110520000D03*
X102140000Y-113060000D03*
X102140000Y-115600000D03*
X102140000Y-118140000D03*
X102140000Y-120680000D03*
X102140000Y-123220000D03*
X102140000Y-125760000D03*
X102140000Y-128300000D03*
X102140000Y-130840000D03*
X102140000Y-133380000D03*
X102140000Y-135920000D03*
X102140000Y-138460000D03*
X102140000Y-141000000D03*
X102140000Y-143540000D03*
X102140000Y-146080000D03*
X102140000Y-148620000D03*
X102140000Y-151160000D03*
X102140000Y-153700000D03*
X102140000Y-156240000D03*
X102140000Y-158780000D03*
X125000000Y-105440000D03*
X125000000Y-107980000D03*
X125000000Y-110520000D03*
X125000000Y-113060000D03*
X125000000Y-115600000D03*
X125000000Y-118140000D03*
X125000000Y-120680000D03*
X125000000Y-123220000D03*
X125000000Y-125760000D03*
X125000000Y-128300000D03*
X125000000Y-130840000D03*
X125000000Y-133380000D03*
X125000000Y-135920000D03*
X125000000Y-138460000D03*
X125000000Y-141000000D03*
X125000000Y-143540000D03*
X125000000Y-146080000D03*
X125000000Y-148620000D03*
X125000000Y-151160000D03*
X125000000Y-153700000D03*
X125000000Y-156240000D03*
X125000000Y-158780000D03*
%TD*%
D10*
%TO.C,SW4*%
X110249999Y-82104900D03*
X116750001Y-82104900D03*
X110249999Y-86604901D03*
X116750001Y-86604901D03*
%TD*%
D15*
%TO.C,J2*%
X132500000Y-120879000D03*
D12*
X132500000Y-118339000D03*
X132500000Y-115799000D03*
X132500000Y-113259000D03*
X132500000Y-110719000D03*
X132500000Y-108179000D03*
%TD*%
D16*
%TO.C,C1*%
X98000000Y-153050000D03*
X98000000Y-154950000D03*
%TD*%
D10*
%TO.C,SW1*%
X121249999Y-70604900D03*
X127750001Y-70604900D03*
X121249999Y-75104901D03*
X127750001Y-75104901D03*
%TD*%
%TO.C,SW3*%
X99249999Y-70604900D03*
X105750001Y-70604900D03*
X99249999Y-75104901D03*
X105750001Y-75104901D03*
%TD*%
D17*
X92500000Y-53500000D02*
G75*
G02*
X89500000Y-53500000I-1500000J0D01*
G01*
X89500000Y-53500000D02*
G75*
G02*
X92500000Y-53500000I1500000J0D01*
G01*
X136500000Y-53500000D02*
G75*
G02*
X133500000Y-53500000I-1500000J0D01*
G01*
X133500000Y-53500000D02*
G75*
G02*
X136500000Y-53500000I1500000J0D01*
G01*
X88000000Y-50500000D02*
X138000000Y-50500000D01*
X138000000Y-163500000D01*
X88000000Y-163500000D01*
X88000000Y-50500000D01*
X92500000Y-160500000D02*
G75*
G02*
X89500000Y-160500000I-1500000J0D01*
G01*
X89500000Y-160500000D02*
G75*
G02*
X92500000Y-160500000I1500000J0D01*
G01*
X136500000Y-160500000D02*
G75*
G02*
X133500000Y-160500000I-1500000J0D01*
G01*
X133500000Y-160500000D02*
G75*
G02*
X136500000Y-160500000I1500000J0D01*
G01*
M02*
