%TF.GenerationSoftware,KiCad,Pcbnew,8.0.6*%
%TF.CreationDate,2024-11-20T17:32:44-08:00*%
%TF.ProjectId,hardware_password,68617264-7761-4726-955f-70617373776f,rev?*%
%TF.SameCoordinates,Original*%
%TF.FileFunction,Copper,L3,Inr*%
%TF.FilePolarity,Positive*%
%FSLAX46Y46*%
G04 Gerber Fmt 4.6, Leading zero omitted, Abs format (unit mm)*
G04 Created by KiCad (PCBNEW 8.0.6) date 2024-11-20 17:32:44*
%MOMM*%
%LPD*%
G01*
G04 APERTURE LIST*
%TA.AperFunction,ComponentPad*%
%ADD10C,1.507998*%
%TD*%
%TA.AperFunction,ComponentPad*%
%ADD11R,1.605000X1.605000*%
%TD*%
%TA.AperFunction,ComponentPad*%
%ADD12C,1.605000*%
%TD*%
%TA.AperFunction,ComponentPad*%
%ADD13R,1.530000X1.530000*%
%TD*%
%TA.AperFunction,ComponentPad*%
%ADD14C,1.530000*%
%TD*%
%TA.AperFunction,ViaPad*%
%ADD15C,0.600000*%
%TD*%
%TA.AperFunction,Conductor*%
%ADD16C,0.200000*%
%TD*%
%TA.AperFunction,Profile*%
%ADD17C,0.100000*%
%TD*%
G04 APERTURE END LIST*
D10*
%TO.N,/IO10*%
%TO.C,SW2*%
X110249999Y-58604900D03*
X116750001Y-58604900D03*
%TO.N,GND*%
X110249999Y-63104901D03*
X116750001Y-63104901D03*
%TD*%
D11*
%TO.N,/5V*%
%TO.C,J1*%
X95500000Y-110460000D03*
D12*
%TO.N,/SDA*%
X95500000Y-113000000D03*
%TO.N,/SCL*%
X95500000Y-115540000D03*
%TO.N,GND*%
X95500000Y-118080000D03*
%TD*%
D13*
%TO.N,Net-(U1-3V3-PadJ1_1)*%
%TO.C,U1*%
X102140000Y-105440000D03*
D14*
X102140000Y-107980000D03*
%TO.N,unconnected-(U1-RST-PadJ1_3)*%
X102140000Y-110520000D03*
%TO.N,/SDA*%
X102140000Y-113060000D03*
%TO.N,/SCL*%
X102140000Y-115600000D03*
%TO.N,unconnected-(U1-GPIO6-PadJ1_6)*%
X102140000Y-118140000D03*
%TO.N,unconnected-(U1-GPIO7-PadJ1_7)*%
X102140000Y-120680000D03*
%TO.N,/IO15*%
X102140000Y-123220000D03*
%TO.N,unconnected-(U1-GPIO16-PadJ1_9)*%
X102140000Y-125760000D03*
%TO.N,unconnected-(U1-GPIO17-PadJ1_10)*%
X102140000Y-128300000D03*
%TO.N,unconnected-(U1-GPIO18-PadJ1_11)*%
X102140000Y-130840000D03*
%TO.N,unconnected-(U1-GPIO8-PadJ1_12)*%
X102140000Y-133380000D03*
%TO.N,unconnected-(U1-GPIO3-PadJ1_13)*%
X102140000Y-135920000D03*
%TO.N,unconnected-(U1-GPIO46-PadJ1_14)*%
X102140000Y-138460000D03*
%TO.N,unconnected-(U1-GPIO9-PadJ1_15)*%
X102140000Y-141000000D03*
%TO.N,/IO10*%
X102140000Y-143540000D03*
%TO.N,unconnected-(U1-GPIO11-PadJ1_17)*%
X102140000Y-146080000D03*
%TO.N,unconnected-(U1-GPIO12-PadJ1_18)*%
X102140000Y-148620000D03*
%TO.N,/IO13*%
X102140000Y-151160000D03*
%TO.N,/IO14*%
X102140000Y-153700000D03*
%TO.N,/5V*%
X102140000Y-156240000D03*
%TO.N,GND*%
X102140000Y-158780000D03*
X125000000Y-105440000D03*
%TO.N,unconnected-(U1-U0TXD{slash}GPIO43-PadJ3_2)*%
X125000000Y-107980000D03*
%TO.N,unconnected-(U1-U0RXD{slash}GPIO44-PadJ3_3)*%
X125000000Y-110520000D03*
%TO.N,/MISO*%
X125000000Y-113060000D03*
%TO.N,/MOSI*%
X125000000Y-115600000D03*
%TO.N,/SCK*%
X125000000Y-118140000D03*
%TO.N,/CS*%
X125000000Y-120680000D03*
%TO.N,unconnected-(U1-MTDO{slash}GPIO40-PadJ3_8)*%
X125000000Y-123220000D03*
%TO.N,unconnected-(U1-MTCK{slash}GPIO39-PadJ3_9)*%
X125000000Y-125760000D03*
%TO.N,unconnected-(U1-GPIO38-PadJ3_10)*%
X125000000Y-128300000D03*
%TO.N,unconnected-(U1-GPIO37-PadJ3_11)*%
X125000000Y-130840000D03*
%TO.N,unconnected-(U1-GPIO36-PadJ3_12)*%
X125000000Y-133380000D03*
%TO.N,unconnected-(U1-GPIO35-PadJ3_13)*%
X125000000Y-135920000D03*
%TO.N,unconnected-(U1-GPIO0-PadJ3_14)*%
X125000000Y-138460000D03*
%TO.N,unconnected-(U1-GPIO45-PadJ3_15)*%
X125000000Y-141000000D03*
%TO.N,unconnected-(U1-GPIO48-PadJ3_16)*%
X125000000Y-143540000D03*
%TO.N,unconnected-(U1-GPIO47-PadJ3_17)*%
X125000000Y-146080000D03*
%TO.N,unconnected-(U1-GPIO21-PadJ3_18)*%
X125000000Y-148620000D03*
%TO.N,unconnected-(U1-USB_D+{slash}GPIO20-PadJ3_19)*%
X125000000Y-151160000D03*
%TO.N,unconnected-(U1-USB_D-{slash}GPIO19-PadJ3_20)*%
X125000000Y-153700000D03*
%TO.N,GND*%
X125000000Y-156240000D03*
X125000000Y-158780000D03*
%TD*%
D10*
%TO.N,/IO13*%
%TO.C,SW4*%
X110249999Y-82104900D03*
X116750001Y-82104900D03*
%TO.N,GND*%
X110249999Y-86604901D03*
X116750001Y-86604901D03*
%TD*%
D11*
%TO.N,/CS*%
%TO.C,J2*%
X132500000Y-120879000D03*
D12*
%TO.N,/SCK*%
X132500000Y-118339000D03*
%TO.N,/MOSI*%
X132500000Y-115799000D03*
%TO.N,/MISO*%
X132500000Y-113259000D03*
%TO.N,/5V*%
X132500000Y-110719000D03*
%TO.N,GND*%
X132500000Y-108179000D03*
%TD*%
D10*
%TO.N,/IO14*%
%TO.C,SW1*%
X121249999Y-70604900D03*
X127750001Y-70604900D03*
%TO.N,GND*%
X121249999Y-75104901D03*
X127750001Y-75104901D03*
%TD*%
%TO.N,/IO15*%
%TO.C,SW3*%
X99249999Y-70604900D03*
X105750001Y-70604900D03*
%TO.N,GND*%
X99249999Y-75104901D03*
X105750001Y-75104901D03*
%TD*%
D15*
%TO.N,GND*%
X98000000Y-151500000D03*
%TD*%
D16*
%TO.N,/IO14*%
X121104900Y-70604900D02*
X121249999Y-70749999D01*
X121249999Y-70604900D02*
X121104900Y-70604900D01*
%TD*%
%TA.AperFunction,Conductor*%
%TO.N,/5V*%
G36*
X131134085Y-108082079D02*
G01*
X131180451Y-108134348D01*
X131191791Y-108176359D01*
X131211893Y-108406123D01*
X131211894Y-108406129D01*
X131270902Y-108626349D01*
X131270903Y-108626351D01*
X131270904Y-108626354D01*
X131338175Y-108770618D01*
X131367259Y-108832989D01*
X131367261Y-108832993D01*
X131498027Y-109019746D01*
X131498032Y-109019752D01*
X131659247Y-109180967D01*
X131659253Y-109180972D01*
X131846006Y-109311738D01*
X131846008Y-109311739D01*
X131846011Y-109311741D01*
X131877184Y-109326277D01*
X131899950Y-109336893D01*
X131952390Y-109383065D01*
X131971542Y-109450258D01*
X131951327Y-109517139D01*
X131899953Y-109561656D01*
X131846268Y-109586690D01*
X131772732Y-109638179D01*
X132342013Y-110207459D01*
X132293498Y-110220460D01*
X132171503Y-110290894D01*
X132071894Y-110390503D01*
X132001460Y-110512498D01*
X131988460Y-110561013D01*
X131419179Y-109991732D01*
X131367691Y-110065267D01*
X131271376Y-110271815D01*
X131271372Y-110271824D01*
X131212388Y-110491956D01*
X131212388Y-110491960D01*
X131192525Y-110718997D01*
X131192525Y-110719002D01*
X131212388Y-110946039D01*
X131212388Y-110946043D01*
X131271372Y-111166175D01*
X131271376Y-111166184D01*
X131367692Y-111372736D01*
X131367693Y-111372738D01*
X131419178Y-111446266D01*
X131419179Y-111446267D01*
X131988459Y-110876986D01*
X132001460Y-110925502D01*
X132071894Y-111047497D01*
X132171503Y-111147106D01*
X132293498Y-111217540D01*
X132342012Y-111230539D01*
X131772731Y-111799820D01*
X131846268Y-111851310D01*
X131899950Y-111876342D01*
X131952390Y-111922514D01*
X131971542Y-111989707D01*
X131951327Y-112056588D01*
X131899952Y-112101105D01*
X131846018Y-112126255D01*
X131846011Y-112126259D01*
X131659246Y-112257032D01*
X131498032Y-112418246D01*
X131367259Y-112605011D01*
X131367258Y-112605013D01*
X131270905Y-112811642D01*
X131211894Y-113031870D01*
X131211893Y-113031877D01*
X131192023Y-113258998D01*
X131192023Y-113259001D01*
X131211893Y-113486122D01*
X131211894Y-113486129D01*
X131270902Y-113706349D01*
X131270903Y-113706351D01*
X131270904Y-113706354D01*
X131333572Y-113840746D01*
X131367259Y-113912989D01*
X131367261Y-113912993D01*
X131498027Y-114099746D01*
X131498032Y-114099752D01*
X131659247Y-114260967D01*
X131659253Y-114260972D01*
X131846006Y-114391738D01*
X131846008Y-114391739D01*
X131846011Y-114391741D01*
X131879290Y-114407259D01*
X131899360Y-114416618D01*
X131951800Y-114462790D01*
X131970952Y-114529983D01*
X131950737Y-114596865D01*
X131899361Y-114641382D01*
X131846013Y-114666258D01*
X131846011Y-114666259D01*
X131659246Y-114797032D01*
X131498032Y-114958246D01*
X131367259Y-115145011D01*
X131367258Y-115145013D01*
X131270905Y-115351642D01*
X131211894Y-115571870D01*
X131211893Y-115571877D01*
X131192023Y-115798998D01*
X131192023Y-115799001D01*
X131211893Y-116026122D01*
X131211894Y-116026129D01*
X131270902Y-116246349D01*
X131270903Y-116246351D01*
X131270904Y-116246354D01*
X131333572Y-116380746D01*
X131367259Y-116452989D01*
X131367261Y-116452993D01*
X131498027Y-116639746D01*
X131498032Y-116639752D01*
X131659247Y-116800967D01*
X131659253Y-116800972D01*
X131846006Y-116931738D01*
X131846008Y-116931739D01*
X131846011Y-116931741D01*
X131879290Y-116947259D01*
X131899360Y-116956618D01*
X131951800Y-117002790D01*
X131970952Y-117069983D01*
X131950737Y-117136865D01*
X131899361Y-117181382D01*
X131846013Y-117206258D01*
X131846011Y-117206259D01*
X131659246Y-117337032D01*
X131498032Y-117498246D01*
X131367259Y-117685011D01*
X131367258Y-117685013D01*
X131270905Y-117891642D01*
X131211894Y-118111870D01*
X131211893Y-118111877D01*
X131192023Y-118338998D01*
X131192023Y-118339001D01*
X131211893Y-118566122D01*
X131211894Y-118566129D01*
X131270902Y-118786349D01*
X131270903Y-118786351D01*
X131270904Y-118786354D01*
X131333572Y-118920746D01*
X131367259Y-118992989D01*
X131367261Y-118992993D01*
X131498027Y-119179746D01*
X131498031Y-119179751D01*
X131659249Y-119340969D01*
X131678258Y-119354279D01*
X131721882Y-119408856D01*
X131729075Y-119478355D01*
X131697553Y-119540709D01*
X131637323Y-119576123D01*
X131620388Y-119579144D01*
X131590016Y-119582409D01*
X131455171Y-119632702D01*
X131455164Y-119632706D01*
X131339955Y-119718952D01*
X131339952Y-119718955D01*
X131253706Y-119834164D01*
X131253702Y-119834171D01*
X131203408Y-119969017D01*
X131197001Y-120028616D01*
X131197001Y-120028623D01*
X131197000Y-120028635D01*
X131197000Y-121729370D01*
X131197001Y-121729376D01*
X131203408Y-121788983D01*
X131253702Y-121923828D01*
X131253706Y-121923835D01*
X131339952Y-122039044D01*
X131339955Y-122039047D01*
X131455164Y-122125293D01*
X131455171Y-122125297D01*
X131590017Y-122175591D01*
X131590016Y-122175591D01*
X131596944Y-122176335D01*
X131649627Y-122182000D01*
X133350372Y-122181999D01*
X133409983Y-122175591D01*
X133544831Y-122125296D01*
X133660046Y-122039046D01*
X133746296Y-121923831D01*
X133796591Y-121788983D01*
X133803000Y-121729373D01*
X133802999Y-120028628D01*
X133796591Y-119969017D01*
X133757215Y-119863445D01*
X133746297Y-119834171D01*
X133746293Y-119834164D01*
X133660047Y-119718955D01*
X133660044Y-119718952D01*
X133544835Y-119632706D01*
X133544828Y-119632702D01*
X133409982Y-119582408D01*
X133409984Y-119582408D01*
X133379609Y-119579143D01*
X133315058Y-119552405D01*
X133275210Y-119495012D01*
X133272717Y-119425187D01*
X133308370Y-119365098D01*
X133321742Y-119354279D01*
X133340751Y-119340969D01*
X133501969Y-119179751D01*
X133632741Y-118992989D01*
X133729096Y-118786354D01*
X133788106Y-118566128D01*
X133807977Y-118339000D01*
X133788106Y-118111872D01*
X133729096Y-117891646D01*
X133632741Y-117685012D01*
X133567355Y-117591630D01*
X133501970Y-117498250D01*
X133429731Y-117426011D01*
X133340751Y-117337031D01*
X133340747Y-117337028D01*
X133340746Y-117337027D01*
X133153993Y-117206261D01*
X133153985Y-117206257D01*
X133100640Y-117181382D01*
X133048200Y-117135210D01*
X133029048Y-117068017D01*
X133049263Y-117001135D01*
X133100640Y-116956618D01*
X133105021Y-116954574D01*
X133153989Y-116931741D01*
X133340751Y-116800969D01*
X133501969Y-116639751D01*
X133632741Y-116452989D01*
X133729096Y-116246354D01*
X133788106Y-116026128D01*
X133807977Y-115799000D01*
X133788106Y-115571872D01*
X133729096Y-115351646D01*
X133632741Y-115145012D01*
X133567355Y-115051630D01*
X133501970Y-114958250D01*
X133429731Y-114886011D01*
X133340751Y-114797031D01*
X133340747Y-114797028D01*
X133340746Y-114797027D01*
X133153993Y-114666261D01*
X133153985Y-114666257D01*
X133100640Y-114641382D01*
X133048200Y-114595210D01*
X133029048Y-114528017D01*
X133049263Y-114461135D01*
X133100640Y-114416618D01*
X133105021Y-114414574D01*
X133153989Y-114391741D01*
X133340751Y-114260969D01*
X133501969Y-114099751D01*
X133632741Y-113912989D01*
X133729096Y-113706354D01*
X133788106Y-113486128D01*
X133807977Y-113259000D01*
X133788106Y-113031872D01*
X133729096Y-112811646D01*
X133632741Y-112605012D01*
X133567355Y-112511630D01*
X133501970Y-112418250D01*
X133429731Y-112346011D01*
X133340751Y-112257031D01*
X133340747Y-112257028D01*
X133340746Y-112257027D01*
X133153993Y-112126261D01*
X133153989Y-112126259D01*
X133100048Y-112101106D01*
X133047609Y-112054934D01*
X133028457Y-111987740D01*
X133048673Y-111920859D01*
X133100050Y-111876341D01*
X133153737Y-111851306D01*
X133227267Y-111799820D01*
X132657987Y-111230539D01*
X132706502Y-111217540D01*
X132828497Y-111147106D01*
X132928106Y-111047497D01*
X132998540Y-110925502D01*
X133011539Y-110876986D01*
X133580820Y-111446267D01*
X133632307Y-111372737D01*
X133728623Y-111166184D01*
X133728627Y-111166175D01*
X133787611Y-110946043D01*
X133787611Y-110946039D01*
X133807475Y-110719002D01*
X133807475Y-110718997D01*
X133787611Y-110491960D01*
X133787611Y-110491956D01*
X133728627Y-110271824D01*
X133728623Y-110271815D01*
X133632307Y-110065263D01*
X133632305Y-110065259D01*
X133580820Y-109991732D01*
X133011539Y-110561012D01*
X132998540Y-110512498D01*
X132928106Y-110390503D01*
X132828497Y-110290894D01*
X132706502Y-110220460D01*
X132657986Y-110207460D01*
X133227267Y-109638179D01*
X133227266Y-109638178D01*
X133153738Y-109586693D01*
X133153736Y-109586692D01*
X133100048Y-109561657D01*
X133047609Y-109515484D01*
X133028457Y-109448291D01*
X133048673Y-109381410D01*
X133100047Y-109336894D01*
X133153989Y-109311741D01*
X133340751Y-109180969D01*
X133501969Y-109019751D01*
X133632741Y-108832989D01*
X133729096Y-108626354D01*
X133788106Y-108406128D01*
X133807407Y-108185514D01*
X133832859Y-108120446D01*
X133889450Y-108079467D01*
X133950432Y-108073865D01*
X134131455Y-108102692D01*
X134145142Y-108105673D01*
X134458169Y-108192626D01*
X134471422Y-108197127D01*
X134772666Y-108318840D01*
X134785313Y-108324801D01*
X134930838Y-108403738D01*
X135070896Y-108479709D01*
X135082812Y-108487073D01*
X135349097Y-108673199D01*
X135360107Y-108681861D01*
X135603692Y-108896828D01*
X135613655Y-108906675D01*
X135831441Y-109147745D01*
X135840230Y-109158654D01*
X136027362Y-109419857D01*
X136029437Y-109422752D01*
X136036936Y-109434577D01*
X136045679Y-109450258D01*
X136195148Y-109718332D01*
X136201268Y-109730932D01*
X136326470Y-110030728D01*
X136331129Y-110043939D01*
X136421714Y-110355927D01*
X136424854Y-110369579D01*
X136479673Y-110689802D01*
X136481253Y-110703721D01*
X136499802Y-111031587D01*
X136500000Y-111038591D01*
X136500000Y-158876231D01*
X136480315Y-158943270D01*
X136427511Y-158989025D01*
X136358353Y-158998969D01*
X136301690Y-158975498D01*
X136084317Y-158812775D01*
X136084309Y-158812770D01*
X135833166Y-158675635D01*
X135833167Y-158675635D01*
X135711941Y-158630420D01*
X135565046Y-158575631D01*
X135565043Y-158575630D01*
X135565037Y-158575628D01*
X135285433Y-158514804D01*
X135000001Y-158494390D01*
X134999999Y-158494390D01*
X134714566Y-158514804D01*
X134434962Y-158575628D01*
X134166833Y-158675635D01*
X133915690Y-158812770D01*
X133915682Y-158812775D01*
X133686612Y-158984254D01*
X133686594Y-158984270D01*
X133484270Y-159186594D01*
X133484254Y-159186612D01*
X133312775Y-159415682D01*
X133312770Y-159415690D01*
X133175635Y-159666833D01*
X133075628Y-159934962D01*
X133014804Y-160214566D01*
X132999612Y-160426976D01*
X132975195Y-160492441D01*
X132919261Y-160534312D01*
X132877370Y-160542122D01*
X112895474Y-160774470D01*
X106020423Y-160854413D01*
X96538351Y-160964669D01*
X96531384Y-160964553D01*
X96426096Y-160959824D01*
X96203321Y-160949817D01*
X96189384Y-160948399D01*
X95868544Y-160897307D01*
X95854857Y-160894326D01*
X95541830Y-160807373D01*
X95528566Y-160802868D01*
X95227341Y-160681162D01*
X95214681Y-160675195D01*
X94929103Y-160520290D01*
X94917187Y-160512926D01*
X94650902Y-160326800D01*
X94639892Y-160318138D01*
X94396307Y-160103171D01*
X94386344Y-160093324D01*
X94347506Y-160050334D01*
X94168555Y-159852250D01*
X94159773Y-159841349D01*
X93970560Y-159577242D01*
X93963058Y-159565412D01*
X93804851Y-159281667D01*
X93798731Y-159269067D01*
X93687432Y-159002562D01*
X93673527Y-158969268D01*
X93668870Y-158956060D01*
X93578283Y-158644066D01*
X93575145Y-158630420D01*
X93520324Y-158310186D01*
X93518747Y-158296290D01*
X93500198Y-157968412D01*
X93500000Y-157961408D01*
X93500000Y-151499996D01*
X97194435Y-151499996D01*
X97194435Y-151500003D01*
X97214630Y-151679249D01*
X97214631Y-151679254D01*
X97274211Y-151849523D01*
X97354031Y-151976555D01*
X97370184Y-152002262D01*
X97497738Y-152129816D01*
X97650478Y-152225789D01*
X97748656Y-152260143D01*
X97820745Y-152285368D01*
X97820750Y-152285369D01*
X97999996Y-152305565D01*
X98000000Y-152305565D01*
X98000004Y-152305565D01*
X98179249Y-152285369D01*
X98179252Y-152285368D01*
X98179255Y-152285368D01*
X98349522Y-152225789D01*
X98502262Y-152129816D01*
X98629816Y-152002262D01*
X98725789Y-151849522D01*
X98785368Y-151679255D01*
X98794920Y-151594480D01*
X98805565Y-151500003D01*
X98805565Y-151499996D01*
X98785369Y-151320750D01*
X98785368Y-151320745D01*
X98725788Y-151150476D01*
X98629815Y-150997737D01*
X98502262Y-150870184D01*
X98349523Y-150774211D01*
X98179254Y-150714631D01*
X98179249Y-150714630D01*
X98000004Y-150694435D01*
X97999996Y-150694435D01*
X97820750Y-150714630D01*
X97820745Y-150714631D01*
X97650476Y-150774211D01*
X97497737Y-150870184D01*
X97370184Y-150997737D01*
X97274211Y-151150476D01*
X97214631Y-151320745D01*
X97214630Y-151320750D01*
X97194435Y-151499996D01*
X93500000Y-151499996D01*
X93500000Y-111468775D01*
X93500192Y-111461874D01*
X93501062Y-111446266D01*
X93518200Y-111138797D01*
X93519734Y-111125086D01*
X93572963Y-110809419D01*
X93576007Y-110795981D01*
X93663991Y-110488182D01*
X93668515Y-110475150D01*
X93717493Y-110355927D01*
X93790161Y-110179038D01*
X93796103Y-110166594D01*
X93949904Y-109885839D01*
X93957186Y-109874142D01*
X93972046Y-109852995D01*
X94026696Y-109809463D01*
X94096206Y-109802388D01*
X94158508Y-109834015D01*
X94193820Y-109894305D01*
X94197500Y-109924291D01*
X94197500Y-110210000D01*
X95026574Y-110210000D01*
X95001460Y-110253498D01*
X94965000Y-110389566D01*
X94965000Y-110530434D01*
X95001460Y-110666502D01*
X95026574Y-110710000D01*
X94197500Y-110710000D01*
X94197500Y-111310344D01*
X94203901Y-111369872D01*
X94203903Y-111369879D01*
X94254145Y-111504586D01*
X94254149Y-111504593D01*
X94340309Y-111619687D01*
X94340312Y-111619690D01*
X94455406Y-111705850D01*
X94455413Y-111705854D01*
X94590120Y-111756096D01*
X94590119Y-111756096D01*
X94621014Y-111759418D01*
X94685565Y-111786156D01*
X94725413Y-111843548D01*
X94727907Y-111913374D01*
X94692255Y-111973463D01*
X94678884Y-111984282D01*
X94659245Y-111998033D01*
X94498032Y-112159246D01*
X94367259Y-112346011D01*
X94367258Y-112346013D01*
X94270905Y-112552642D01*
X94211894Y-112772870D01*
X94211893Y-112772877D01*
X94192023Y-112999998D01*
X94192023Y-113000001D01*
X94211893Y-113227122D01*
X94211894Y-113227129D01*
X94270902Y-113447349D01*
X94270903Y-113447351D01*
X94270904Y-113447354D01*
X94292882Y-113494486D01*
X94367259Y-113653989D01*
X94367261Y-113653993D01*
X94498027Y-113840746D01*
X94498032Y-113840752D01*
X94659247Y-114001967D01*
X94659253Y-114001972D01*
X94846006Y-114132738D01*
X94846008Y-114132739D01*
X94846011Y-114132741D01*
X94890688Y-114153574D01*
X94899360Y-114157618D01*
X94951800Y-114203790D01*
X94970952Y-114270983D01*
X94950737Y-114337865D01*
X94899361Y-114382382D01*
X94846013Y-114407258D01*
X94846011Y-114407259D01*
X94659246Y-114538032D01*
X94498032Y-114699246D01*
X94367259Y-114886011D01*
X94367258Y-114886013D01*
X94270905Y-115092642D01*
X94211894Y-115312870D01*
X94211893Y-115312877D01*
X94192023Y-115539998D01*
X94192023Y-115540001D01*
X94211893Y-115767122D01*
X94211894Y-115767129D01*
X94270902Y-115987349D01*
X94270903Y-115987351D01*
X94270904Y-115987354D01*
X94292882Y-116034486D01*
X94367259Y-116193989D01*
X94367261Y-116193993D01*
X94498027Y-116380746D01*
X94498032Y-116380752D01*
X94659247Y-116541967D01*
X94659253Y-116541972D01*
X94846006Y-116672738D01*
X94846008Y-116672739D01*
X94846011Y-116672741D01*
X94890688Y-116693574D01*
X94899360Y-116697618D01*
X94951800Y-116743790D01*
X94970952Y-116810983D01*
X94950737Y-116877865D01*
X94899361Y-116922382D01*
X94846013Y-116947258D01*
X94846011Y-116947259D01*
X94659246Y-117078032D01*
X94498032Y-117239246D01*
X94367259Y-117426011D01*
X94367258Y-117426013D01*
X94270905Y-117632642D01*
X94211894Y-117852870D01*
X94211893Y-117852877D01*
X94192023Y-118079998D01*
X94192023Y-118080001D01*
X94211893Y-118307122D01*
X94211894Y-118307129D01*
X94270902Y-118527349D01*
X94270903Y-118527351D01*
X94270904Y-118527354D01*
X94292882Y-118574486D01*
X94367259Y-118733989D01*
X94367261Y-118733993D01*
X94498027Y-118920746D01*
X94498032Y-118920752D01*
X94659247Y-119081967D01*
X94659253Y-119081972D01*
X94846006Y-119212738D01*
X94846008Y-119212739D01*
X94846011Y-119212741D01*
X95052646Y-119309096D01*
X95272872Y-119368106D01*
X95435106Y-119382299D01*
X95499998Y-119387977D01*
X95500000Y-119387977D01*
X95500002Y-119387977D01*
X95556782Y-119383009D01*
X95727128Y-119368106D01*
X95947354Y-119309096D01*
X96153989Y-119212741D01*
X96340751Y-119081969D01*
X96501969Y-118920751D01*
X96632741Y-118733989D01*
X96729096Y-118527354D01*
X96788106Y-118307128D01*
X96807977Y-118080000D01*
X96788106Y-117852872D01*
X96729096Y-117632646D01*
X96632741Y-117426012D01*
X96501969Y-117239249D01*
X96340751Y-117078031D01*
X96340747Y-117078028D01*
X96340746Y-117078027D01*
X96153993Y-116947261D01*
X96153985Y-116947257D01*
X96100640Y-116922382D01*
X96048200Y-116876210D01*
X96029048Y-116809017D01*
X96049263Y-116742135D01*
X96100640Y-116697618D01*
X96105021Y-116695574D01*
X96153989Y-116672741D01*
X96340751Y-116541969D01*
X96501969Y-116380751D01*
X96632741Y-116193989D01*
X96729096Y-115987354D01*
X96788106Y-115767128D01*
X96807977Y-115540000D01*
X96788106Y-115312872D01*
X96729096Y-115092646D01*
X96632741Y-114886012D01*
X96501969Y-114699249D01*
X96340751Y-114538031D01*
X96340747Y-114538028D01*
X96340746Y-114538027D01*
X96153993Y-114407261D01*
X96153985Y-114407257D01*
X96100640Y-114382382D01*
X96048200Y-114336210D01*
X96029048Y-114269017D01*
X96049263Y-114202135D01*
X96100640Y-114157618D01*
X96105021Y-114155574D01*
X96153989Y-114132741D01*
X96340751Y-114001969D01*
X96501969Y-113840751D01*
X96632741Y-113653989D01*
X96729096Y-113447354D01*
X96788106Y-113227128D01*
X96807977Y-113000000D01*
X96788106Y-112772872D01*
X96729096Y-112552646D01*
X96632741Y-112346012D01*
X96501969Y-112159249D01*
X96340751Y-111998031D01*
X96340747Y-111998028D01*
X96321116Y-111984282D01*
X96277492Y-111929705D01*
X96270300Y-111860206D01*
X96301823Y-111797852D01*
X96362053Y-111762439D01*
X96378986Y-111759418D01*
X96409880Y-111756096D01*
X96544586Y-111705854D01*
X96544593Y-111705850D01*
X96659687Y-111619690D01*
X96659690Y-111619687D01*
X96745850Y-111504593D01*
X96745854Y-111504586D01*
X96796096Y-111369879D01*
X96796098Y-111369872D01*
X96802499Y-111310344D01*
X96802500Y-111310327D01*
X96802500Y-110710000D01*
X95973426Y-110710000D01*
X95998540Y-110666502D01*
X96035000Y-110530434D01*
X96035000Y-110389566D01*
X95998540Y-110253498D01*
X95973426Y-110210000D01*
X96802500Y-110210000D01*
X96802500Y-109609672D01*
X96802499Y-109609655D01*
X96796098Y-109550127D01*
X96796096Y-109550120D01*
X96745854Y-109415413D01*
X96745850Y-109415406D01*
X96659690Y-109300312D01*
X96659687Y-109300309D01*
X96544593Y-109214149D01*
X96544586Y-109214145D01*
X96409879Y-109163903D01*
X96409872Y-109163901D01*
X96350344Y-109157500D01*
X95750000Y-109157500D01*
X95750000Y-109986573D01*
X95706502Y-109961460D01*
X95570434Y-109925000D01*
X95429566Y-109925000D01*
X95293498Y-109961460D01*
X95250000Y-109986573D01*
X95250000Y-109157500D01*
X94966576Y-109157500D01*
X94899537Y-109137815D01*
X94853782Y-109085011D01*
X94843838Y-109015853D01*
X94872863Y-108952297D01*
X94905740Y-108925449D01*
X94956574Y-108896828D01*
X95169931Y-108776702D01*
X95182300Y-108770618D01*
X95476971Y-108645540D01*
X95489955Y-108640864D01*
X95796699Y-108549311D01*
X95810118Y-108546106D01*
X96125157Y-108489207D01*
X96138825Y-108487518D01*
X96461698Y-108465752D01*
X96468526Y-108465482D01*
X100865778Y-108414351D01*
X100933038Y-108433254D01*
X100979404Y-108485523D01*
X100979598Y-108485938D01*
X101039858Y-108615167D01*
X101166868Y-108796555D01*
X101323445Y-108953132D01*
X101504833Y-109080142D01*
X101515275Y-109085011D01*
X101628091Y-109137618D01*
X101680531Y-109183790D01*
X101699683Y-109250983D01*
X101679467Y-109317865D01*
X101628091Y-109362382D01*
X101504836Y-109419856D01*
X101504834Y-109419857D01*
X101323444Y-109546868D01*
X101166868Y-109703444D01*
X101039857Y-109884834D01*
X101039856Y-109884836D01*
X100946279Y-110085513D01*
X100946275Y-110085524D01*
X100888965Y-110299407D01*
X100888964Y-110299414D01*
X100869666Y-110519998D01*
X100869666Y-110520001D01*
X100888964Y-110740585D01*
X100888965Y-110740592D01*
X100946275Y-110954475D01*
X100946279Y-110954486D01*
X101036099Y-111147106D01*
X101039858Y-111155167D01*
X101166868Y-111336555D01*
X101323445Y-111493132D01*
X101504833Y-111620142D01*
X101566828Y-111649050D01*
X101628091Y-111677618D01*
X101680531Y-111723790D01*
X101699683Y-111790983D01*
X101679467Y-111857865D01*
X101628091Y-111902382D01*
X101504836Y-111959856D01*
X101504834Y-111959857D01*
X101323444Y-112086868D01*
X101166868Y-112243444D01*
X101039857Y-112424834D01*
X101039856Y-112424836D01*
X100946279Y-112625513D01*
X100946275Y-112625524D01*
X100888965Y-112839407D01*
X100888964Y-112839414D01*
X100869666Y-113059998D01*
X100869666Y-113060001D01*
X100888964Y-113280585D01*
X100888965Y-113280592D01*
X100946275Y-113494475D01*
X100946279Y-113494486D01*
X101020658Y-113653993D01*
X101039858Y-113695167D01*
X101166868Y-113876555D01*
X101323445Y-114033132D01*
X101504833Y-114160142D01*
X101566828Y-114189050D01*
X101628091Y-114217618D01*
X101680531Y-114263790D01*
X101699683Y-114330983D01*
X101679467Y-114397865D01*
X101628091Y-114442382D01*
X101504836Y-114499856D01*
X101504834Y-114499857D01*
X101323444Y-114626868D01*
X101166868Y-114783444D01*
X101039857Y-114964834D01*
X101039856Y-114964836D01*
X100946279Y-115165513D01*
X100946275Y-115165524D01*
X100888965Y-115379407D01*
X100888964Y-115379414D01*
X100869666Y-115599998D01*
X100869666Y-115600001D01*
X100888964Y-115820585D01*
X100888965Y-115820592D01*
X100946275Y-116034475D01*
X100946279Y-116034486D01*
X101020658Y-116193993D01*
X101039858Y-116235167D01*
X101166868Y-116416555D01*
X101323445Y-116573132D01*
X101504833Y-116700142D01*
X101566828Y-116729050D01*
X101628091Y-116757618D01*
X101680531Y-116803790D01*
X101699683Y-116870983D01*
X101679467Y-116937865D01*
X101628091Y-116982382D01*
X101504836Y-117039856D01*
X101504834Y-117039857D01*
X101323444Y-117166868D01*
X101166868Y-117323444D01*
X101039857Y-117504834D01*
X101039856Y-117504836D01*
X100946279Y-117705513D01*
X100946275Y-117705524D01*
X100888965Y-117919407D01*
X100888964Y-117919414D01*
X100869666Y-118139998D01*
X100869666Y-118140001D01*
X100888964Y-118360585D01*
X100888965Y-118360592D01*
X100946275Y-118574475D01*
X100946279Y-118574486D01*
X101020658Y-118733993D01*
X101039858Y-118775167D01*
X101166868Y-118956555D01*
X101323445Y-119113132D01*
X101504833Y-119240142D01*
X101566828Y-119269050D01*
X101628091Y-119297618D01*
X101680531Y-119343790D01*
X101699683Y-119410983D01*
X101679467Y-119477865D01*
X101628091Y-119522382D01*
X101504836Y-119579856D01*
X101504834Y-119579857D01*
X101323444Y-119706868D01*
X101166868Y-119863444D01*
X101039857Y-120044834D01*
X101039856Y-120044836D01*
X100946279Y-120245513D01*
X100946275Y-120245524D01*
X100888965Y-120459407D01*
X100888964Y-120459414D01*
X100869666Y-120679998D01*
X100869666Y-120680001D01*
X100888964Y-120900585D01*
X100888965Y-120900592D01*
X100946275Y-121114475D01*
X100946279Y-121114486D01*
X101039856Y-121315163D01*
X101039858Y-121315167D01*
X101166868Y-121496555D01*
X101323445Y-121653132D01*
X101504833Y-121780142D01*
X101523791Y-121788982D01*
X101628091Y-121837618D01*
X101680531Y-121883790D01*
X101699683Y-121950983D01*
X101679467Y-122017865D01*
X101628091Y-122062382D01*
X101504836Y-122119856D01*
X101504834Y-122119857D01*
X101323444Y-122246868D01*
X101166868Y-122403444D01*
X101039857Y-122584834D01*
X101039856Y-122584836D01*
X100946279Y-122785513D01*
X100946275Y-122785524D01*
X100888965Y-122999407D01*
X100888964Y-122999414D01*
X100869666Y-123219998D01*
X100869666Y-123220001D01*
X100888964Y-123440585D01*
X100888965Y-123440592D01*
X100946275Y-123654475D01*
X100946279Y-123654486D01*
X101039856Y-123855163D01*
X101039858Y-123855167D01*
X101166868Y-124036555D01*
X101323445Y-124193132D01*
X101504833Y-124320142D01*
X101566828Y-124349050D01*
X101628091Y-124377618D01*
X101680531Y-124423790D01*
X101699683Y-124490983D01*
X101679467Y-124557865D01*
X101628091Y-124602382D01*
X101504836Y-124659856D01*
X101504834Y-124659857D01*
X101323444Y-124786868D01*
X101166868Y-124943444D01*
X101039857Y-125124834D01*
X101039856Y-125124836D01*
X100946279Y-125325513D01*
X100946275Y-125325524D01*
X100888965Y-125539407D01*
X100888964Y-125539414D01*
X100869666Y-125759998D01*
X100869666Y-125760001D01*
X100888964Y-125980585D01*
X100888965Y-125980592D01*
X100946275Y-126194475D01*
X100946279Y-126194486D01*
X101039856Y-126395163D01*
X101039858Y-126395167D01*
X101166868Y-126576555D01*
X101323445Y-126733132D01*
X101504833Y-126860142D01*
X101566828Y-126889050D01*
X101628091Y-126917618D01*
X101680531Y-126963790D01*
X101699683Y-127030983D01*
X101679467Y-127097865D01*
X101628091Y-127142382D01*
X101504836Y-127199856D01*
X101504834Y-127199857D01*
X101323444Y-127326868D01*
X101166868Y-127483444D01*
X101039857Y-127664834D01*
X101039856Y-127664836D01*
X100946279Y-127865513D01*
X100946275Y-127865524D01*
X100888965Y-128079407D01*
X100888964Y-128079414D01*
X100869666Y-128299998D01*
X100869666Y-128300001D01*
X100888964Y-128520585D01*
X100888965Y-128520592D01*
X100946275Y-128734475D01*
X100946279Y-128734486D01*
X101039856Y-128935163D01*
X101039858Y-128935167D01*
X101166868Y-129116555D01*
X101323445Y-129273132D01*
X101504833Y-129400142D01*
X101566828Y-129429050D01*
X101628091Y-129457618D01*
X101680531Y-129503790D01*
X101699683Y-129570983D01*
X101679467Y-129637865D01*
X101628091Y-129682382D01*
X101504836Y-129739856D01*
X101504834Y-129739857D01*
X101323444Y-129866868D01*
X101166868Y-130023444D01*
X101039857Y-130204834D01*
X101039856Y-130204836D01*
X100946279Y-130405513D01*
X100946275Y-130405524D01*
X100888965Y-130619407D01*
X100888964Y-130619414D01*
X100869666Y-130839998D01*
X100869666Y-130840001D01*
X100888964Y-131060585D01*
X100888965Y-131060592D01*
X100946275Y-131274475D01*
X100946279Y-131274486D01*
X101039856Y-131475163D01*
X101039858Y-131475167D01*
X101166868Y-131656555D01*
X101323445Y-131813132D01*
X101504833Y-131940142D01*
X101566828Y-131969050D01*
X101628091Y-131997618D01*
X101680531Y-132043790D01*
X101699683Y-132110983D01*
X101679467Y-132177865D01*
X101628091Y-132222382D01*
X101504836Y-132279856D01*
X101504834Y-132279857D01*
X101323444Y-132406868D01*
X101166868Y-132563444D01*
X101039857Y-132744834D01*
X101039856Y-132744836D01*
X100946279Y-132945513D01*
X100946275Y-132945524D01*
X100888965Y-133159407D01*
X100888964Y-133159414D01*
X100869666Y-133379998D01*
X100869666Y-133380001D01*
X100888964Y-133600585D01*
X100888965Y-133600592D01*
X100946275Y-133814475D01*
X100946279Y-133814486D01*
X101039856Y-134015163D01*
X101039858Y-134015167D01*
X101166868Y-134196555D01*
X101323445Y-134353132D01*
X101504833Y-134480142D01*
X101566828Y-134509050D01*
X101628091Y-134537618D01*
X101680531Y-134583790D01*
X101699683Y-134650983D01*
X101679467Y-134717865D01*
X101628091Y-134762382D01*
X101504836Y-134819856D01*
X101504834Y-134819857D01*
X101323444Y-134946868D01*
X101166868Y-135103444D01*
X101039857Y-135284834D01*
X101039856Y-135284836D01*
X100946279Y-135485513D01*
X100946275Y-135485524D01*
X100888965Y-135699407D01*
X100888964Y-135699414D01*
X100869666Y-135919998D01*
X100869666Y-135920001D01*
X100888964Y-136140585D01*
X100888965Y-136140592D01*
X100946275Y-136354475D01*
X100946279Y-136354486D01*
X101039856Y-136555163D01*
X101039858Y-136555167D01*
X101166868Y-136736555D01*
X101323445Y-136893132D01*
X101504833Y-137020142D01*
X101566828Y-137049050D01*
X101628091Y-137077618D01*
X101680531Y-137123790D01*
X101699683Y-137190983D01*
X101679467Y-137257865D01*
X101628091Y-137302382D01*
X101504836Y-137359856D01*
X101504834Y-137359857D01*
X101323444Y-137486868D01*
X101166868Y-137643444D01*
X101039857Y-137824834D01*
X101039856Y-137824836D01*
X100946279Y-138025513D01*
X100946275Y-138025524D01*
X100888965Y-138239407D01*
X100888964Y-138239414D01*
X100869666Y-138459998D01*
X100869666Y-138460001D01*
X100888964Y-138680585D01*
X100888965Y-138680592D01*
X100946275Y-138894475D01*
X100946279Y-138894486D01*
X101039856Y-139095163D01*
X101039858Y-139095167D01*
X101166868Y-139276555D01*
X101323445Y-139433132D01*
X101504833Y-139560142D01*
X101566828Y-139589050D01*
X101628091Y-139617618D01*
X101680531Y-139663790D01*
X101699683Y-139730983D01*
X101679467Y-139797865D01*
X101628091Y-139842382D01*
X101504836Y-139899856D01*
X101504834Y-139899857D01*
X101323444Y-140026868D01*
X101166868Y-140183444D01*
X101039857Y-140364834D01*
X101039856Y-140364836D01*
X100946279Y-140565513D01*
X100946275Y-140565524D01*
X100888965Y-140779407D01*
X100888964Y-140779414D01*
X100869666Y-140999998D01*
X100869666Y-141000001D01*
X100888964Y-141220585D01*
X100888965Y-141220592D01*
X100946275Y-141434475D01*
X100946279Y-141434486D01*
X101039856Y-141635163D01*
X101039858Y-141635167D01*
X101166868Y-141816555D01*
X101323445Y-141973132D01*
X101504833Y-142100142D01*
X101566828Y-142129050D01*
X101628091Y-142157618D01*
X101680531Y-142203790D01*
X101699683Y-142270983D01*
X101679467Y-142337865D01*
X101628091Y-142382382D01*
X101504836Y-142439856D01*
X101504834Y-142439857D01*
X101323444Y-142566868D01*
X101166868Y-142723444D01*
X101039857Y-142904834D01*
X101039856Y-142904836D01*
X100946279Y-143105513D01*
X100946275Y-143105524D01*
X100888965Y-143319407D01*
X100888964Y-143319414D01*
X100869666Y-143539998D01*
X100869666Y-143540001D01*
X100888964Y-143760585D01*
X100888965Y-143760592D01*
X100946275Y-143974475D01*
X100946279Y-143974486D01*
X101039856Y-144175163D01*
X101039858Y-144175167D01*
X101166868Y-144356555D01*
X101323445Y-144513132D01*
X101504833Y-144640142D01*
X101566828Y-144669050D01*
X101628091Y-144697618D01*
X101680531Y-144743790D01*
X101699683Y-144810983D01*
X101679467Y-144877865D01*
X101628091Y-144922382D01*
X101504836Y-144979856D01*
X101504834Y-144979857D01*
X101323444Y-145106868D01*
X101166868Y-145263444D01*
X101039857Y-145444834D01*
X101039856Y-145444836D01*
X100946279Y-145645513D01*
X100946275Y-145645524D01*
X100888965Y-145859407D01*
X100888964Y-145859414D01*
X100869666Y-146079998D01*
X100869666Y-146080001D01*
X100888964Y-146300585D01*
X100888965Y-146300592D01*
X100946275Y-146514475D01*
X100946279Y-146514486D01*
X101039856Y-146715163D01*
X101039858Y-146715167D01*
X101166868Y-146896555D01*
X101323445Y-147053132D01*
X101504833Y-147180142D01*
X101566828Y-147209050D01*
X101628091Y-147237618D01*
X101680531Y-147283790D01*
X101699683Y-147350983D01*
X101679467Y-147417865D01*
X101628091Y-147462382D01*
X101504836Y-147519856D01*
X101504834Y-147519857D01*
X101323444Y-147646868D01*
X101166868Y-147803444D01*
X101039857Y-147984834D01*
X101039856Y-147984836D01*
X100946279Y-148185513D01*
X100946275Y-148185524D01*
X100888965Y-148399407D01*
X100888964Y-148399414D01*
X100869666Y-148619998D01*
X100869666Y-148620001D01*
X100888964Y-148840585D01*
X100888965Y-148840592D01*
X100946275Y-149054475D01*
X100946279Y-149054486D01*
X101039856Y-149255163D01*
X101039858Y-149255167D01*
X101166868Y-149436555D01*
X101323445Y-149593132D01*
X101504833Y-149720142D01*
X101566828Y-149749050D01*
X101628091Y-149777618D01*
X101680531Y-149823790D01*
X101699683Y-149890983D01*
X101679467Y-149957865D01*
X101628091Y-150002382D01*
X101504836Y-150059856D01*
X101504834Y-150059857D01*
X101323444Y-150186868D01*
X101166868Y-150343444D01*
X101039857Y-150524834D01*
X101039856Y-150524836D01*
X100946279Y-150725513D01*
X100946275Y-150725524D01*
X100888965Y-150939407D01*
X100888964Y-150939414D01*
X100869666Y-151159998D01*
X100869666Y-151160001D01*
X100888964Y-151380585D01*
X100888965Y-151380592D01*
X100946275Y-151594475D01*
X100946279Y-151594486D01*
X101039856Y-151795163D01*
X101039858Y-151795167D01*
X101166868Y-151976555D01*
X101323445Y-152133132D01*
X101504833Y-152260142D01*
X101558931Y-152285368D01*
X101628091Y-152317618D01*
X101680531Y-152363790D01*
X101699683Y-152430983D01*
X101679467Y-152497865D01*
X101628091Y-152542382D01*
X101504836Y-152599856D01*
X101504834Y-152599857D01*
X101323444Y-152726868D01*
X101166868Y-152883444D01*
X101039857Y-153064834D01*
X101039856Y-153064836D01*
X100946279Y-153265513D01*
X100946275Y-153265524D01*
X100888965Y-153479407D01*
X100888964Y-153479414D01*
X100869666Y-153699998D01*
X100869666Y-153700001D01*
X100888964Y-153920585D01*
X100888965Y-153920592D01*
X100946275Y-154134475D01*
X100946279Y-154134486D01*
X101039856Y-154335163D01*
X101039858Y-154335167D01*
X101166868Y-154516555D01*
X101323445Y-154673132D01*
X101504833Y-154800142D01*
X101628682Y-154857893D01*
X101681122Y-154904065D01*
X101700274Y-154971258D01*
X101680059Y-155038139D01*
X101628683Y-155082657D01*
X101505084Y-155140293D01*
X101439657Y-155186104D01*
X102002424Y-155748871D01*
X101943147Y-155764755D01*
X101826853Y-155831898D01*
X101731898Y-155926853D01*
X101664755Y-156043147D01*
X101648871Y-156102424D01*
X101086104Y-155539657D01*
X101040293Y-155605084D01*
X100946749Y-155805690D01*
X100946745Y-155805699D01*
X100889461Y-156019490D01*
X100889459Y-156019500D01*
X100870168Y-156239999D01*
X100870168Y-156240000D01*
X100889459Y-156460499D01*
X100889461Y-156460509D01*
X100946745Y-156674300D01*
X100946749Y-156674309D01*
X101040295Y-156874919D01*
X101086103Y-156940341D01*
X101086105Y-156940342D01*
X101648871Y-156377575D01*
X101664755Y-156436853D01*
X101731898Y-156553147D01*
X101826853Y-156648102D01*
X101943147Y-156715245D01*
X102002424Y-156731128D01*
X101439656Y-157293894D01*
X101505083Y-157339706D01*
X101505085Y-157339707D01*
X101628683Y-157397342D01*
X101681122Y-157443514D01*
X101700274Y-157510708D01*
X101680058Y-157577589D01*
X101628683Y-157622106D01*
X101504833Y-157679857D01*
X101323444Y-157806868D01*
X101166868Y-157963444D01*
X101039857Y-158144834D01*
X101039856Y-158144836D01*
X100946279Y-158345513D01*
X100946275Y-158345524D01*
X100888965Y-158559407D01*
X100888964Y-158559414D01*
X100869666Y-158779998D01*
X100869666Y-158780001D01*
X100888964Y-159000585D01*
X100888965Y-159000592D01*
X100946275Y-159214475D01*
X100946279Y-159214486D01*
X101039856Y-159415163D01*
X101039858Y-159415167D01*
X101166868Y-159596555D01*
X101323445Y-159753132D01*
X101504833Y-159880142D01*
X101622379Y-159934954D01*
X101705513Y-159973720D01*
X101705515Y-159973720D01*
X101705520Y-159973723D01*
X101919409Y-160031035D01*
X102076974Y-160044820D01*
X102139998Y-160050334D01*
X102140000Y-160050334D01*
X102140002Y-160050334D01*
X102195147Y-160045509D01*
X102360591Y-160031035D01*
X102574480Y-159973723D01*
X102775167Y-159880142D01*
X102956555Y-159753132D01*
X103113132Y-159596555D01*
X103240142Y-159415167D01*
X103333723Y-159214480D01*
X103391035Y-159000591D01*
X103410334Y-158780000D01*
X103391035Y-158559409D01*
X103333723Y-158345520D01*
X103240142Y-158144833D01*
X103113132Y-157963445D01*
X102956555Y-157806868D01*
X102775167Y-157679858D01*
X102775163Y-157679856D01*
X102651317Y-157622106D01*
X102598877Y-157575934D01*
X102579725Y-157508741D01*
X102599941Y-157441859D01*
X102651317Y-157397342D01*
X102774912Y-157339708D01*
X102774914Y-157339707D01*
X102840342Y-157293894D01*
X102277575Y-156731127D01*
X102336853Y-156715245D01*
X102453147Y-156648102D01*
X102548102Y-156553147D01*
X102615245Y-156436853D01*
X102631128Y-156377575D01*
X103193894Y-156940342D01*
X103239706Y-156874915D01*
X103333250Y-156674309D01*
X103333254Y-156674300D01*
X103390538Y-156460509D01*
X103390540Y-156460499D01*
X103409832Y-156240000D01*
X103409832Y-156239999D01*
X103390540Y-156019500D01*
X103390538Y-156019490D01*
X103333254Y-155805699D01*
X103333250Y-155805690D01*
X103239707Y-155605085D01*
X103239706Y-155605083D01*
X103193894Y-155539657D01*
X103193894Y-155539656D01*
X102631127Y-156102423D01*
X102615245Y-156043147D01*
X102548102Y-155926853D01*
X102453147Y-155831898D01*
X102336853Y-155764755D01*
X102277575Y-155748872D01*
X102840342Y-155186105D01*
X102840341Y-155186103D01*
X102774919Y-155140295D01*
X102651316Y-155082657D01*
X102598877Y-155036484D01*
X102579725Y-154969291D01*
X102599941Y-154902410D01*
X102651312Y-154857895D01*
X102775167Y-154800142D01*
X102956555Y-154673132D01*
X103113132Y-154516555D01*
X103240142Y-154335167D01*
X103333723Y-154134480D01*
X103391035Y-153920591D01*
X103410334Y-153700000D01*
X103391035Y-153479409D01*
X103333723Y-153265520D01*
X103240142Y-153064833D01*
X103113132Y-152883445D01*
X102956555Y-152726868D01*
X102775167Y-152599858D01*
X102651907Y-152542381D01*
X102599468Y-152496210D01*
X102580316Y-152429017D01*
X102600531Y-152362136D01*
X102651908Y-152317618D01*
X102677756Y-152305565D01*
X102775167Y-152260142D01*
X102956555Y-152133132D01*
X103113132Y-151976555D01*
X103240142Y-151795167D01*
X103333723Y-151594480D01*
X103391035Y-151380591D01*
X103410334Y-151160000D01*
X103391035Y-150939409D01*
X103333723Y-150725520D01*
X103328645Y-150714631D01*
X103240143Y-150524836D01*
X103240142Y-150524834D01*
X103240142Y-150524833D01*
X103113132Y-150343445D01*
X102956555Y-150186868D01*
X102775167Y-150059858D01*
X102651907Y-150002381D01*
X102599468Y-149956210D01*
X102580316Y-149889017D01*
X102600531Y-149822136D01*
X102651908Y-149777618D01*
X102775167Y-149720142D01*
X102956555Y-149593132D01*
X103113132Y-149436555D01*
X103240142Y-149255167D01*
X103333723Y-149054480D01*
X103391035Y-148840591D01*
X103410334Y-148620000D01*
X103391035Y-148399409D01*
X103333723Y-148185520D01*
X103240142Y-147984833D01*
X103113132Y-147803445D01*
X102956555Y-147646868D01*
X102775167Y-147519858D01*
X102651907Y-147462381D01*
X102599468Y-147416210D01*
X102580316Y-147349017D01*
X102600531Y-147282136D01*
X102651908Y-147237618D01*
X102775167Y-147180142D01*
X102956555Y-147053132D01*
X103113132Y-146896555D01*
X103240142Y-146715167D01*
X103333723Y-146514480D01*
X103391035Y-146300591D01*
X103410334Y-146080000D01*
X103391035Y-145859409D01*
X103333723Y-145645520D01*
X103240142Y-145444833D01*
X103113132Y-145263445D01*
X102956555Y-145106868D01*
X102775167Y-144979858D01*
X102651907Y-144922381D01*
X102599468Y-144876210D01*
X102580316Y-144809017D01*
X102600531Y-144742136D01*
X102651908Y-144697618D01*
X102775167Y-144640142D01*
X102956555Y-144513132D01*
X103113132Y-144356555D01*
X103240142Y-144175167D01*
X103333723Y-143974480D01*
X103391035Y-143760591D01*
X103410334Y-143540000D01*
X103391035Y-143319409D01*
X103333723Y-143105520D01*
X103240142Y-142904833D01*
X103113132Y-142723445D01*
X102956555Y-142566868D01*
X102775167Y-142439858D01*
X102651907Y-142382381D01*
X102599468Y-142336210D01*
X102580316Y-142269017D01*
X102600531Y-142202136D01*
X102651908Y-142157618D01*
X102775167Y-142100142D01*
X102956555Y-141973132D01*
X103113132Y-141816555D01*
X103240142Y-141635167D01*
X103333723Y-141434480D01*
X103391035Y-141220591D01*
X103410334Y-141000000D01*
X103391035Y-140779409D01*
X103333723Y-140565520D01*
X103240142Y-140364833D01*
X103113132Y-140183445D01*
X102956555Y-140026868D01*
X102775167Y-139899858D01*
X102651907Y-139842381D01*
X102599468Y-139796210D01*
X102580316Y-139729017D01*
X102600531Y-139662136D01*
X102651908Y-139617618D01*
X102775167Y-139560142D01*
X102956555Y-139433132D01*
X103113132Y-139276555D01*
X103240142Y-139095167D01*
X103333723Y-138894480D01*
X103391035Y-138680591D01*
X103410334Y-138460000D01*
X103391035Y-138239409D01*
X103333723Y-138025520D01*
X103240142Y-137824833D01*
X103113132Y-137643445D01*
X102956555Y-137486868D01*
X102775167Y-137359858D01*
X102651907Y-137302381D01*
X102599468Y-137256210D01*
X102580316Y-137189017D01*
X102600531Y-137122136D01*
X102651908Y-137077618D01*
X102775167Y-137020142D01*
X102956555Y-136893132D01*
X103113132Y-136736555D01*
X103240142Y-136555167D01*
X103333723Y-136354480D01*
X103391035Y-136140591D01*
X103410334Y-135920000D01*
X103391035Y-135699409D01*
X103333723Y-135485520D01*
X103240142Y-135284833D01*
X103113132Y-135103445D01*
X102956555Y-134946868D01*
X102775167Y-134819858D01*
X102651907Y-134762381D01*
X102599468Y-134716210D01*
X102580316Y-134649017D01*
X102600531Y-134582136D01*
X102651908Y-134537618D01*
X102775167Y-134480142D01*
X102956555Y-134353132D01*
X103113132Y-134196555D01*
X103240142Y-134015167D01*
X103333723Y-133814480D01*
X103391035Y-133600591D01*
X103410334Y-133380000D01*
X103391035Y-133159409D01*
X103333723Y-132945520D01*
X103240142Y-132744833D01*
X103113132Y-132563445D01*
X102956555Y-132406868D01*
X102775167Y-132279858D01*
X102651907Y-132222381D01*
X102599468Y-132176210D01*
X102580316Y-132109017D01*
X102600531Y-132042136D01*
X102651908Y-131997618D01*
X102775167Y-131940142D01*
X102956555Y-131813132D01*
X103113132Y-131656555D01*
X103240142Y-131475167D01*
X103333723Y-131274480D01*
X103391035Y-131060591D01*
X103410334Y-130840000D01*
X103391035Y-130619409D01*
X103333723Y-130405520D01*
X103240142Y-130204833D01*
X103113132Y-130023445D01*
X102956555Y-129866868D01*
X102775167Y-129739858D01*
X102651907Y-129682381D01*
X102599468Y-129636210D01*
X102580316Y-129569017D01*
X102600531Y-129502136D01*
X102651908Y-129457618D01*
X102775167Y-129400142D01*
X102956555Y-129273132D01*
X103113132Y-129116555D01*
X103240142Y-128935167D01*
X103333723Y-128734480D01*
X103391035Y-128520591D01*
X103410334Y-128300000D01*
X103391035Y-128079409D01*
X103333723Y-127865520D01*
X103240142Y-127664833D01*
X103113132Y-127483445D01*
X102956555Y-127326868D01*
X102775167Y-127199858D01*
X102651907Y-127142381D01*
X102599468Y-127096210D01*
X102580316Y-127029017D01*
X102600531Y-126962136D01*
X102651908Y-126917618D01*
X102775167Y-126860142D01*
X102956555Y-126733132D01*
X103113132Y-126576555D01*
X103240142Y-126395167D01*
X103333723Y-126194480D01*
X103391035Y-125980591D01*
X103410334Y-125760000D01*
X103391035Y-125539409D01*
X103333723Y-125325520D01*
X103240142Y-125124833D01*
X103113132Y-124943445D01*
X102956555Y-124786868D01*
X102775167Y-124659858D01*
X102651907Y-124602381D01*
X102599468Y-124556210D01*
X102580316Y-124489017D01*
X102600531Y-124422136D01*
X102651908Y-124377618D01*
X102775167Y-124320142D01*
X102956555Y-124193132D01*
X103113132Y-124036555D01*
X103240142Y-123855167D01*
X103333723Y-123654480D01*
X103391035Y-123440591D01*
X103410334Y-123220000D01*
X103391035Y-122999409D01*
X103333723Y-122785520D01*
X103240142Y-122584833D01*
X103113132Y-122403445D01*
X102956555Y-122246868D01*
X102775167Y-122119858D01*
X102651907Y-122062381D01*
X102599468Y-122016210D01*
X102580316Y-121949017D01*
X102600531Y-121882136D01*
X102651908Y-121837618D01*
X102775167Y-121780142D01*
X102956555Y-121653132D01*
X103113132Y-121496555D01*
X103240142Y-121315167D01*
X103333723Y-121114480D01*
X103391035Y-120900591D01*
X103410334Y-120680000D01*
X103391035Y-120459409D01*
X103333723Y-120245520D01*
X103240142Y-120044833D01*
X103113132Y-119863445D01*
X102956555Y-119706868D01*
X102775167Y-119579858D01*
X102766893Y-119576000D01*
X102651908Y-119522382D01*
X102599468Y-119476210D01*
X102580316Y-119409017D01*
X102600531Y-119342136D01*
X102651908Y-119297618D01*
X102775167Y-119240142D01*
X102956555Y-119113132D01*
X103113132Y-118956555D01*
X103240142Y-118775167D01*
X103333723Y-118574480D01*
X103391035Y-118360591D01*
X103410334Y-118140000D01*
X103391035Y-117919409D01*
X103333723Y-117705520D01*
X103240142Y-117504833D01*
X103113132Y-117323445D01*
X102956555Y-117166868D01*
X102775167Y-117039858D01*
X102651907Y-116982381D01*
X102599468Y-116936210D01*
X102580316Y-116869017D01*
X102600531Y-116802136D01*
X102651908Y-116757618D01*
X102775167Y-116700142D01*
X102956555Y-116573132D01*
X103113132Y-116416555D01*
X103240142Y-116235167D01*
X103333723Y-116034480D01*
X103391035Y-115820591D01*
X103410334Y-115600000D01*
X103391035Y-115379409D01*
X103333723Y-115165520D01*
X103240142Y-114964833D01*
X103113132Y-114783445D01*
X102956555Y-114626868D01*
X102775167Y-114499858D01*
X102651907Y-114442381D01*
X102599468Y-114396210D01*
X102580316Y-114329017D01*
X102600531Y-114262136D01*
X102651908Y-114217618D01*
X102775167Y-114160142D01*
X102956555Y-114033132D01*
X103113132Y-113876555D01*
X103240142Y-113695167D01*
X103333723Y-113494480D01*
X103391035Y-113280591D01*
X103410334Y-113060000D01*
X103391035Y-112839409D01*
X103333723Y-112625520D01*
X103240142Y-112424833D01*
X103113132Y-112243445D01*
X102956555Y-112086868D01*
X102775167Y-111959858D01*
X102651907Y-111902381D01*
X102599468Y-111856210D01*
X102580316Y-111789017D01*
X102600531Y-111722136D01*
X102651908Y-111677618D01*
X102775167Y-111620142D01*
X102956555Y-111493132D01*
X103113132Y-111336555D01*
X103240142Y-111155167D01*
X103333723Y-110954480D01*
X103391035Y-110740591D01*
X103410334Y-110520000D01*
X103407880Y-110491956D01*
X103404820Y-110456974D01*
X103391035Y-110299409D01*
X103333723Y-110085520D01*
X103240142Y-109884833D01*
X103113132Y-109703445D01*
X102956555Y-109546868D01*
X102775167Y-109419858D01*
X102651907Y-109362381D01*
X102599468Y-109316210D01*
X102580316Y-109249017D01*
X102600531Y-109182136D01*
X102651908Y-109137618D01*
X102775167Y-109080142D01*
X102956555Y-108953132D01*
X103113132Y-108796555D01*
X103240142Y-108615167D01*
X103314279Y-108456177D01*
X103360451Y-108403738D01*
X103425219Y-108384590D01*
X112682346Y-108276948D01*
X123638696Y-108149549D01*
X123705959Y-108168453D01*
X123752325Y-108220722D01*
X123759912Y-108241447D01*
X123806275Y-108414474D01*
X123806279Y-108414486D01*
X123869149Y-108549311D01*
X123899858Y-108615167D01*
X124026868Y-108796555D01*
X124183445Y-108953132D01*
X124364833Y-109080142D01*
X124375275Y-109085011D01*
X124488091Y-109137618D01*
X124540531Y-109183790D01*
X124559683Y-109250983D01*
X124539467Y-109317865D01*
X124488091Y-109362382D01*
X124364836Y-109419856D01*
X124364834Y-109419857D01*
X124183444Y-109546868D01*
X124026868Y-109703444D01*
X123899857Y-109884834D01*
X123899856Y-109884836D01*
X123806279Y-110085513D01*
X123806275Y-110085524D01*
X123748965Y-110299407D01*
X123748964Y-110299414D01*
X123729666Y-110519998D01*
X123729666Y-110520001D01*
X123748964Y-110740585D01*
X123748965Y-110740592D01*
X123806275Y-110954475D01*
X123806279Y-110954486D01*
X123896099Y-111147106D01*
X123899858Y-111155167D01*
X124026868Y-111336555D01*
X124183445Y-111493132D01*
X124364833Y-111620142D01*
X124426828Y-111649050D01*
X124488091Y-111677618D01*
X124540531Y-111723790D01*
X124559683Y-111790983D01*
X124539467Y-111857865D01*
X124488091Y-111902382D01*
X124364836Y-111959856D01*
X124364834Y-111959857D01*
X124183444Y-112086868D01*
X124026868Y-112243444D01*
X123899857Y-112424834D01*
X123899856Y-112424836D01*
X123806279Y-112625513D01*
X123806275Y-112625524D01*
X123748965Y-112839407D01*
X123748964Y-112839414D01*
X123729666Y-113059998D01*
X123729666Y-113060001D01*
X123748964Y-113280585D01*
X123748965Y-113280592D01*
X123806275Y-113494475D01*
X123806279Y-113494486D01*
X123880658Y-113653993D01*
X123899858Y-113695167D01*
X124026868Y-113876555D01*
X124183445Y-114033132D01*
X124364833Y-114160142D01*
X124426828Y-114189050D01*
X124488091Y-114217618D01*
X124540531Y-114263790D01*
X124559683Y-114330983D01*
X124539467Y-114397865D01*
X124488091Y-114442382D01*
X124364836Y-114499856D01*
X124364834Y-114499857D01*
X124183444Y-114626868D01*
X124026868Y-114783444D01*
X123899857Y-114964834D01*
X123899856Y-114964836D01*
X123806279Y-115165513D01*
X123806275Y-115165524D01*
X123748965Y-115379407D01*
X123748964Y-115379414D01*
X123729666Y-115599998D01*
X123729666Y-115600001D01*
X123748964Y-115820585D01*
X123748965Y-115820592D01*
X123806275Y-116034475D01*
X123806279Y-116034486D01*
X123880658Y-116193993D01*
X123899858Y-116235167D01*
X124026868Y-116416555D01*
X124183445Y-116573132D01*
X124364833Y-116700142D01*
X124426828Y-116729050D01*
X124488091Y-116757618D01*
X124540531Y-116803790D01*
X124559683Y-116870983D01*
X124539467Y-116937865D01*
X124488091Y-116982382D01*
X124364836Y-117039856D01*
X124364834Y-117039857D01*
X124183444Y-117166868D01*
X124026868Y-117323444D01*
X123899857Y-117504834D01*
X123899856Y-117504836D01*
X123806279Y-117705513D01*
X123806275Y-117705524D01*
X123748965Y-117919407D01*
X123748964Y-117919414D01*
X123729666Y-118139998D01*
X123729666Y-118140001D01*
X123748964Y-118360585D01*
X123748965Y-118360592D01*
X123806275Y-118574475D01*
X123806279Y-118574486D01*
X123880658Y-118733993D01*
X123899858Y-118775167D01*
X124026868Y-118956555D01*
X124183445Y-119113132D01*
X124364833Y-119240142D01*
X124426828Y-119269050D01*
X124488091Y-119297618D01*
X124540531Y-119343790D01*
X124559683Y-119410983D01*
X124539467Y-119477865D01*
X124488091Y-119522382D01*
X124364836Y-119579856D01*
X124364834Y-119579857D01*
X124183444Y-119706868D01*
X124026868Y-119863444D01*
X123899857Y-120044834D01*
X123899856Y-120044836D01*
X123806279Y-120245513D01*
X123806275Y-120245524D01*
X123748965Y-120459407D01*
X123748964Y-120459414D01*
X123729666Y-120679998D01*
X123729666Y-120680001D01*
X123748964Y-120900585D01*
X123748965Y-120900592D01*
X123806275Y-121114475D01*
X123806279Y-121114486D01*
X123899856Y-121315163D01*
X123899858Y-121315167D01*
X124026868Y-121496555D01*
X124183445Y-121653132D01*
X124364833Y-121780142D01*
X124383791Y-121788982D01*
X124488091Y-121837618D01*
X124540531Y-121883790D01*
X124559683Y-121950983D01*
X124539467Y-122017865D01*
X124488091Y-122062382D01*
X124364836Y-122119856D01*
X124364834Y-122119857D01*
X124183444Y-122246868D01*
X124026868Y-122403444D01*
X123899857Y-122584834D01*
X123899856Y-122584836D01*
X123806279Y-122785513D01*
X123806275Y-122785524D01*
X123748965Y-122999407D01*
X123748964Y-122999414D01*
X123729666Y-123219998D01*
X123729666Y-123220001D01*
X123748964Y-123440585D01*
X123748965Y-123440592D01*
X123806275Y-123654475D01*
X123806279Y-123654486D01*
X123899856Y-123855163D01*
X123899858Y-123855167D01*
X124026868Y-124036555D01*
X124183445Y-124193132D01*
X124364833Y-124320142D01*
X124426828Y-124349050D01*
X124488091Y-124377618D01*
X124540531Y-124423790D01*
X124559683Y-124490983D01*
X124539467Y-124557865D01*
X124488091Y-124602382D01*
X124364836Y-124659856D01*
X124364834Y-124659857D01*
X124183444Y-124786868D01*
X124026868Y-124943444D01*
X123899857Y-125124834D01*
X123899856Y-125124836D01*
X123806279Y-125325513D01*
X123806275Y-125325524D01*
X123748965Y-125539407D01*
X123748964Y-125539414D01*
X123729666Y-125759998D01*
X123729666Y-125760001D01*
X123748964Y-125980585D01*
X123748965Y-125980592D01*
X123806275Y-126194475D01*
X123806279Y-126194486D01*
X123899856Y-126395163D01*
X123899858Y-126395167D01*
X124026868Y-126576555D01*
X124183445Y-126733132D01*
X124364833Y-126860142D01*
X124426828Y-126889050D01*
X124488091Y-126917618D01*
X124540531Y-126963790D01*
X124559683Y-127030983D01*
X124539467Y-127097865D01*
X124488091Y-127142382D01*
X124364836Y-127199856D01*
X124364834Y-127199857D01*
X124183444Y-127326868D01*
X124026868Y-127483444D01*
X123899857Y-127664834D01*
X123899856Y-127664836D01*
X123806279Y-127865513D01*
X123806275Y-127865524D01*
X123748965Y-128079407D01*
X123748964Y-128079414D01*
X123729666Y-128299998D01*
X123729666Y-128300001D01*
X123748964Y-128520585D01*
X123748965Y-128520592D01*
X123806275Y-128734475D01*
X123806279Y-128734486D01*
X123899856Y-128935163D01*
X123899858Y-128935167D01*
X124026868Y-129116555D01*
X124183445Y-129273132D01*
X124364833Y-129400142D01*
X124426828Y-129429050D01*
X124488091Y-129457618D01*
X124540531Y-129503790D01*
X124559683Y-129570983D01*
X124539467Y-129637865D01*
X124488091Y-129682382D01*
X124364836Y-129739856D01*
X124364834Y-129739857D01*
X124183444Y-129866868D01*
X124026868Y-130023444D01*
X123899857Y-130204834D01*
X123899856Y-130204836D01*
X123806279Y-130405513D01*
X123806275Y-130405524D01*
X123748965Y-130619407D01*
X123748964Y-130619414D01*
X123729666Y-130839998D01*
X123729666Y-130840001D01*
X123748964Y-131060585D01*
X123748965Y-131060592D01*
X123806275Y-131274475D01*
X123806279Y-131274486D01*
X123899856Y-131475163D01*
X123899858Y-131475167D01*
X124026868Y-131656555D01*
X124183445Y-131813132D01*
X124364833Y-131940142D01*
X124426828Y-131969050D01*
X124488091Y-131997618D01*
X124540531Y-132043790D01*
X124559683Y-132110983D01*
X124539467Y-132177865D01*
X124488091Y-132222382D01*
X124364836Y-132279856D01*
X124364834Y-132279857D01*
X124183444Y-132406868D01*
X124026868Y-132563444D01*
X123899857Y-132744834D01*
X123899856Y-132744836D01*
X123806279Y-132945513D01*
X123806275Y-132945524D01*
X123748965Y-133159407D01*
X123748964Y-133159414D01*
X123729666Y-133379998D01*
X123729666Y-133380001D01*
X123748964Y-133600585D01*
X123748965Y-133600592D01*
X123806275Y-133814475D01*
X123806279Y-133814486D01*
X123899856Y-134015163D01*
X123899858Y-134015167D01*
X124026868Y-134196555D01*
X124183445Y-134353132D01*
X124364833Y-134480142D01*
X124426828Y-134509050D01*
X124488091Y-134537618D01*
X124540531Y-134583790D01*
X124559683Y-134650983D01*
X124539467Y-134717865D01*
X124488091Y-134762382D01*
X124364836Y-134819856D01*
X124364834Y-134819857D01*
X124183444Y-134946868D01*
X124026868Y-135103444D01*
X123899857Y-135284834D01*
X123899856Y-135284836D01*
X123806279Y-135485513D01*
X123806275Y-135485524D01*
X123748965Y-135699407D01*
X123748964Y-135699414D01*
X123729666Y-135919998D01*
X123729666Y-135920001D01*
X123748964Y-136140585D01*
X123748965Y-136140592D01*
X123806275Y-136354475D01*
X123806279Y-136354486D01*
X123899856Y-136555163D01*
X123899858Y-136555167D01*
X124026868Y-136736555D01*
X124183445Y-136893132D01*
X124364833Y-137020142D01*
X124426828Y-137049050D01*
X124488091Y-137077618D01*
X124540531Y-137123790D01*
X124559683Y-137190983D01*
X124539467Y-137257865D01*
X124488091Y-137302382D01*
X124364836Y-137359856D01*
X124364834Y-137359857D01*
X124183444Y-137486868D01*
X124026868Y-137643444D01*
X123899857Y-137824834D01*
X123899856Y-137824836D01*
X123806279Y-138025513D01*
X123806275Y-138025524D01*
X123748965Y-138239407D01*
X123748964Y-138239414D01*
X123729666Y-138459998D01*
X123729666Y-138460001D01*
X123748964Y-138680585D01*
X123748965Y-138680592D01*
X123806275Y-138894475D01*
X123806279Y-138894486D01*
X123899856Y-139095163D01*
X123899858Y-139095167D01*
X124026868Y-139276555D01*
X124183445Y-139433132D01*
X124364833Y-139560142D01*
X124426828Y-139589050D01*
X124488091Y-139617618D01*
X124540531Y-139663790D01*
X124559683Y-139730983D01*
X124539467Y-139797865D01*
X124488091Y-139842382D01*
X124364836Y-139899856D01*
X124364834Y-139899857D01*
X124183444Y-140026868D01*
X124026868Y-140183444D01*
X123899857Y-140364834D01*
X123899856Y-140364836D01*
X123806279Y-140565513D01*
X123806275Y-140565524D01*
X123748965Y-140779407D01*
X123748964Y-140779414D01*
X123729666Y-140999998D01*
X123729666Y-141000001D01*
X123748964Y-141220585D01*
X123748965Y-141220592D01*
X123806275Y-141434475D01*
X123806279Y-141434486D01*
X123899856Y-141635163D01*
X123899858Y-141635167D01*
X124026868Y-141816555D01*
X124183445Y-141973132D01*
X124364833Y-142100142D01*
X124426828Y-142129050D01*
X124488091Y-142157618D01*
X124540531Y-142203790D01*
X124559683Y-142270983D01*
X124539467Y-142337865D01*
X124488091Y-142382382D01*
X124364836Y-142439856D01*
X124364834Y-142439857D01*
X124183444Y-142566868D01*
X124026868Y-142723444D01*
X123899857Y-142904834D01*
X123899856Y-142904836D01*
X123806279Y-143105513D01*
X123806275Y-143105524D01*
X123748965Y-143319407D01*
X123748964Y-143319414D01*
X123729666Y-143539998D01*
X123729666Y-143540001D01*
X123748964Y-143760585D01*
X123748965Y-143760592D01*
X123806275Y-143974475D01*
X123806279Y-143974486D01*
X123899856Y-144175163D01*
X123899858Y-144175167D01*
X124026868Y-144356555D01*
X124183445Y-144513132D01*
X124364833Y-144640142D01*
X124426828Y-144669050D01*
X124488091Y-144697618D01*
X124540531Y-144743790D01*
X124559683Y-144810983D01*
X124539467Y-144877865D01*
X124488091Y-144922382D01*
X124364836Y-144979856D01*
X124364834Y-144979857D01*
X124183444Y-145106868D01*
X124026868Y-145263444D01*
X123899857Y-145444834D01*
X123899856Y-145444836D01*
X123806279Y-145645513D01*
X123806275Y-145645524D01*
X123748965Y-145859407D01*
X123748964Y-145859414D01*
X123729666Y-146079998D01*
X123729666Y-146080001D01*
X123748964Y-146300585D01*
X123748965Y-146300592D01*
X123806275Y-146514475D01*
X123806279Y-146514486D01*
X123899856Y-146715163D01*
X123899858Y-146715167D01*
X124026868Y-146896555D01*
X124183445Y-147053132D01*
X124364833Y-147180142D01*
X124426828Y-147209050D01*
X124488091Y-147237618D01*
X124540531Y-147283790D01*
X124559683Y-147350983D01*
X124539467Y-147417865D01*
X124488091Y-147462382D01*
X124364836Y-147519856D01*
X124364834Y-147519857D01*
X124183444Y-147646868D01*
X124026868Y-147803444D01*
X123899857Y-147984834D01*
X123899856Y-147984836D01*
X123806279Y-148185513D01*
X123806275Y-148185524D01*
X123748965Y-148399407D01*
X123748964Y-148399414D01*
X123729666Y-148619998D01*
X123729666Y-148620001D01*
X123748964Y-148840585D01*
X123748965Y-148840592D01*
X123806275Y-149054475D01*
X123806279Y-149054486D01*
X123899856Y-149255163D01*
X123899858Y-149255167D01*
X124026868Y-149436555D01*
X124183445Y-149593132D01*
X124364833Y-149720142D01*
X124426828Y-149749050D01*
X124488091Y-149777618D01*
X124540531Y-149823790D01*
X124559683Y-149890983D01*
X124539467Y-149957865D01*
X124488091Y-150002382D01*
X124364836Y-150059856D01*
X124364834Y-150059857D01*
X124183444Y-150186868D01*
X124026868Y-150343444D01*
X123899857Y-150524834D01*
X123899856Y-150524836D01*
X123806279Y-150725513D01*
X123806275Y-150725524D01*
X123748965Y-150939407D01*
X123748964Y-150939414D01*
X123729666Y-151159998D01*
X123729666Y-151160001D01*
X123748964Y-151380585D01*
X123748965Y-151380592D01*
X123806275Y-151594475D01*
X123806279Y-151594486D01*
X123899856Y-151795163D01*
X123899858Y-151795167D01*
X124026868Y-151976555D01*
X124183445Y-152133132D01*
X124364833Y-152260142D01*
X124418931Y-152285368D01*
X124488091Y-152317618D01*
X124540531Y-152363790D01*
X124559683Y-152430983D01*
X124539467Y-152497865D01*
X124488091Y-152542382D01*
X124364836Y-152599856D01*
X124364834Y-152599857D01*
X124183444Y-152726868D01*
X124026868Y-152883444D01*
X123899857Y-153064834D01*
X123899856Y-153064836D01*
X123806279Y-153265513D01*
X123806275Y-153265524D01*
X123748965Y-153479407D01*
X123748964Y-153479414D01*
X123729666Y-153699998D01*
X123729666Y-153700001D01*
X123748964Y-153920585D01*
X123748965Y-153920592D01*
X123806275Y-154134475D01*
X123806279Y-154134486D01*
X123899856Y-154335163D01*
X123899858Y-154335167D01*
X124026868Y-154516555D01*
X124183445Y-154673132D01*
X124364833Y-154800142D01*
X124426828Y-154829050D01*
X124488091Y-154857618D01*
X124540531Y-154903790D01*
X124559683Y-154970983D01*
X124539467Y-155037865D01*
X124488091Y-155082382D01*
X124364836Y-155139856D01*
X124364834Y-155139857D01*
X124183444Y-155266868D01*
X124026868Y-155423444D01*
X123899857Y-155604834D01*
X123899856Y-155604836D01*
X123806279Y-155805513D01*
X123806275Y-155805524D01*
X123748965Y-156019407D01*
X123748964Y-156019414D01*
X123729666Y-156239998D01*
X123729666Y-156240001D01*
X123748964Y-156460585D01*
X123748965Y-156460592D01*
X123806275Y-156674475D01*
X123806279Y-156674486D01*
X123841492Y-156750000D01*
X123899858Y-156875167D01*
X124026868Y-157056555D01*
X124183445Y-157213132D01*
X124364833Y-157340142D01*
X124426828Y-157369050D01*
X124488091Y-157397618D01*
X124540531Y-157443790D01*
X124559683Y-157510983D01*
X124539467Y-157577865D01*
X124488091Y-157622382D01*
X124364836Y-157679856D01*
X124364834Y-157679857D01*
X124183444Y-157806868D01*
X124026868Y-157963444D01*
X123899857Y-158144834D01*
X123899856Y-158144836D01*
X123806279Y-158345513D01*
X123806275Y-158345524D01*
X123748965Y-158559407D01*
X123748964Y-158559414D01*
X123729666Y-158779998D01*
X123729666Y-158780001D01*
X123748964Y-159000585D01*
X123748965Y-159000592D01*
X123806275Y-159214475D01*
X123806279Y-159214486D01*
X123899856Y-159415163D01*
X123899858Y-159415167D01*
X124026868Y-159596555D01*
X124183445Y-159753132D01*
X124364833Y-159880142D01*
X124482379Y-159934954D01*
X124565513Y-159973720D01*
X124565515Y-159973720D01*
X124565520Y-159973723D01*
X124779409Y-160031035D01*
X124936974Y-160044820D01*
X124999998Y-160050334D01*
X125000000Y-160050334D01*
X125000002Y-160050334D01*
X125055147Y-160045509D01*
X125220591Y-160031035D01*
X125434480Y-159973723D01*
X125635167Y-159880142D01*
X125816555Y-159753132D01*
X125973132Y-159596555D01*
X126100142Y-159415167D01*
X126193723Y-159214480D01*
X126251035Y-159000591D01*
X126270334Y-158780000D01*
X126251035Y-158559409D01*
X126193723Y-158345520D01*
X126100142Y-158144833D01*
X125973132Y-157963445D01*
X125816555Y-157806868D01*
X125635167Y-157679858D01*
X125511907Y-157622381D01*
X125459468Y-157576210D01*
X125440316Y-157509017D01*
X125460531Y-157442136D01*
X125511908Y-157397618D01*
X125512500Y-157397342D01*
X125635167Y-157340142D01*
X125816555Y-157213132D01*
X125973132Y-157056555D01*
X126100142Y-156875167D01*
X126193723Y-156674480D01*
X126251035Y-156460591D01*
X126270334Y-156240000D01*
X126251035Y-156019409D01*
X126193723Y-155805520D01*
X126100142Y-155604833D01*
X125973132Y-155423445D01*
X125816555Y-155266868D01*
X125635167Y-155139858D01*
X125511907Y-155082381D01*
X125459468Y-155036210D01*
X125440316Y-154969017D01*
X125460531Y-154902136D01*
X125511908Y-154857618D01*
X125635167Y-154800142D01*
X125816555Y-154673132D01*
X125973132Y-154516555D01*
X126100142Y-154335167D01*
X126193723Y-154134480D01*
X126251035Y-153920591D01*
X126270334Y-153700000D01*
X126251035Y-153479409D01*
X126193723Y-153265520D01*
X126100142Y-153064833D01*
X125973132Y-152883445D01*
X125816555Y-152726868D01*
X125635167Y-152599858D01*
X125511907Y-152542381D01*
X125459468Y-152496210D01*
X125440316Y-152429017D01*
X125460531Y-152362136D01*
X125511908Y-152317618D01*
X125537756Y-152305565D01*
X125635167Y-152260142D01*
X125816555Y-152133132D01*
X125973132Y-151976555D01*
X126100142Y-151795167D01*
X126193723Y-151594480D01*
X126251035Y-151380591D01*
X126270334Y-151160000D01*
X126251035Y-150939409D01*
X126193723Y-150725520D01*
X126188645Y-150714631D01*
X126100143Y-150524836D01*
X126100142Y-150524834D01*
X126100142Y-150524833D01*
X125973132Y-150343445D01*
X125816555Y-150186868D01*
X125635167Y-150059858D01*
X125511907Y-150002381D01*
X125459468Y-149956210D01*
X125440316Y-149889017D01*
X125460531Y-149822136D01*
X125511908Y-149777618D01*
X125635167Y-149720142D01*
X125816555Y-149593132D01*
X125973132Y-149436555D01*
X126100142Y-149255167D01*
X126193723Y-149054480D01*
X126251035Y-148840591D01*
X126270334Y-148620000D01*
X126251035Y-148399409D01*
X126193723Y-148185520D01*
X126100142Y-147984833D01*
X125973132Y-147803445D01*
X125816555Y-147646868D01*
X125635167Y-147519858D01*
X125511907Y-147462381D01*
X125459468Y-147416210D01*
X125440316Y-147349017D01*
X125460531Y-147282136D01*
X125511908Y-147237618D01*
X125635167Y-147180142D01*
X125816555Y-147053132D01*
X125973132Y-146896555D01*
X126100142Y-146715167D01*
X126193723Y-146514480D01*
X126251035Y-146300591D01*
X126270334Y-146080000D01*
X126251035Y-145859409D01*
X126193723Y-145645520D01*
X126100142Y-145444833D01*
X125973132Y-145263445D01*
X125816555Y-145106868D01*
X125635167Y-144979858D01*
X125511907Y-144922381D01*
X125459468Y-144876210D01*
X125440316Y-144809017D01*
X125460531Y-144742136D01*
X125511908Y-144697618D01*
X125635167Y-144640142D01*
X125816555Y-144513132D01*
X125973132Y-144356555D01*
X126100142Y-144175167D01*
X126193723Y-143974480D01*
X126251035Y-143760591D01*
X126270334Y-143540000D01*
X126251035Y-143319409D01*
X126193723Y-143105520D01*
X126100142Y-142904833D01*
X125973132Y-142723445D01*
X125816555Y-142566868D01*
X125635167Y-142439858D01*
X125511907Y-142382381D01*
X125459468Y-142336210D01*
X125440316Y-142269017D01*
X125460531Y-142202136D01*
X125511908Y-142157618D01*
X125635167Y-142100142D01*
X125816555Y-141973132D01*
X125973132Y-141816555D01*
X126100142Y-141635167D01*
X126193723Y-141434480D01*
X126251035Y-141220591D01*
X126270334Y-141000000D01*
X126251035Y-140779409D01*
X126193723Y-140565520D01*
X126100142Y-140364833D01*
X125973132Y-140183445D01*
X125816555Y-140026868D01*
X125635167Y-139899858D01*
X125511907Y-139842381D01*
X125459468Y-139796210D01*
X125440316Y-139729017D01*
X125460531Y-139662136D01*
X125511908Y-139617618D01*
X125635167Y-139560142D01*
X125816555Y-139433132D01*
X125973132Y-139276555D01*
X126100142Y-139095167D01*
X126193723Y-138894480D01*
X126251035Y-138680591D01*
X126270334Y-138460000D01*
X126251035Y-138239409D01*
X126193723Y-138025520D01*
X126100142Y-137824833D01*
X125973132Y-137643445D01*
X125816555Y-137486868D01*
X125635167Y-137359858D01*
X125511907Y-137302381D01*
X125459468Y-137256210D01*
X125440316Y-137189017D01*
X125460531Y-137122136D01*
X125511908Y-137077618D01*
X125635167Y-137020142D01*
X125816555Y-136893132D01*
X125973132Y-136736555D01*
X126100142Y-136555167D01*
X126193723Y-136354480D01*
X126251035Y-136140591D01*
X126270334Y-135920000D01*
X126251035Y-135699409D01*
X126193723Y-135485520D01*
X126100142Y-135284833D01*
X125973132Y-135103445D01*
X125816555Y-134946868D01*
X125635167Y-134819858D01*
X125511907Y-134762381D01*
X125459468Y-134716210D01*
X125440316Y-134649017D01*
X125460531Y-134582136D01*
X125511908Y-134537618D01*
X125635167Y-134480142D01*
X125816555Y-134353132D01*
X125973132Y-134196555D01*
X126100142Y-134015167D01*
X126193723Y-133814480D01*
X126251035Y-133600591D01*
X126270334Y-133380000D01*
X126251035Y-133159409D01*
X126193723Y-132945520D01*
X126100142Y-132744833D01*
X125973132Y-132563445D01*
X125816555Y-132406868D01*
X125635167Y-132279858D01*
X125511907Y-132222381D01*
X125459468Y-132176210D01*
X125440316Y-132109017D01*
X125460531Y-132042136D01*
X125511908Y-131997618D01*
X125635167Y-131940142D01*
X125816555Y-131813132D01*
X125973132Y-131656555D01*
X126100142Y-131475167D01*
X126193723Y-131274480D01*
X126251035Y-131060591D01*
X126270334Y-130840000D01*
X126251035Y-130619409D01*
X126193723Y-130405520D01*
X126100142Y-130204833D01*
X125973132Y-130023445D01*
X125816555Y-129866868D01*
X125635167Y-129739858D01*
X125511907Y-129682381D01*
X125459468Y-129636210D01*
X125440316Y-129569017D01*
X125460531Y-129502136D01*
X125511908Y-129457618D01*
X125635167Y-129400142D01*
X125816555Y-129273132D01*
X125973132Y-129116555D01*
X126100142Y-128935167D01*
X126193723Y-128734480D01*
X126251035Y-128520591D01*
X126270334Y-128300000D01*
X126251035Y-128079409D01*
X126193723Y-127865520D01*
X126100142Y-127664833D01*
X125973132Y-127483445D01*
X125816555Y-127326868D01*
X125635167Y-127199858D01*
X125511907Y-127142381D01*
X125459468Y-127096210D01*
X125440316Y-127029017D01*
X125460531Y-126962136D01*
X125511908Y-126917618D01*
X125635167Y-126860142D01*
X125816555Y-126733132D01*
X125973132Y-126576555D01*
X126100142Y-126395167D01*
X126193723Y-126194480D01*
X126251035Y-125980591D01*
X126270334Y-125760000D01*
X126251035Y-125539409D01*
X126193723Y-125325520D01*
X126100142Y-125124833D01*
X125973132Y-124943445D01*
X125816555Y-124786868D01*
X125635167Y-124659858D01*
X125511907Y-124602381D01*
X125459468Y-124556210D01*
X125440316Y-124489017D01*
X125460531Y-124422136D01*
X125511908Y-124377618D01*
X125635167Y-124320142D01*
X125816555Y-124193132D01*
X125973132Y-124036555D01*
X126100142Y-123855167D01*
X126193723Y-123654480D01*
X126251035Y-123440591D01*
X126270334Y-123220000D01*
X126251035Y-122999409D01*
X126193723Y-122785520D01*
X126100142Y-122584833D01*
X125973132Y-122403445D01*
X125816555Y-122246868D01*
X125635167Y-122119858D01*
X125511907Y-122062381D01*
X125459468Y-122016210D01*
X125440316Y-121949017D01*
X125460531Y-121882136D01*
X125511908Y-121837618D01*
X125635167Y-121780142D01*
X125816555Y-121653132D01*
X125973132Y-121496555D01*
X126100142Y-121315167D01*
X126193723Y-121114480D01*
X126251035Y-120900591D01*
X126270334Y-120680000D01*
X126251035Y-120459409D01*
X126193723Y-120245520D01*
X126100142Y-120044833D01*
X125973132Y-119863445D01*
X125816555Y-119706868D01*
X125635167Y-119579858D01*
X125626893Y-119576000D01*
X125511908Y-119522382D01*
X125459468Y-119476210D01*
X125440316Y-119409017D01*
X125460531Y-119342136D01*
X125511908Y-119297618D01*
X125635167Y-119240142D01*
X125816555Y-119113132D01*
X125973132Y-118956555D01*
X126100142Y-118775167D01*
X126193723Y-118574480D01*
X126251035Y-118360591D01*
X126270334Y-118140000D01*
X126251035Y-117919409D01*
X126193723Y-117705520D01*
X126100142Y-117504833D01*
X125973132Y-117323445D01*
X125816555Y-117166868D01*
X125635167Y-117039858D01*
X125511907Y-116982381D01*
X125459468Y-116936210D01*
X125440316Y-116869017D01*
X125460531Y-116802136D01*
X125511908Y-116757618D01*
X125635167Y-116700142D01*
X125816555Y-116573132D01*
X125973132Y-116416555D01*
X126100142Y-116235167D01*
X126193723Y-116034480D01*
X126251035Y-115820591D01*
X126270334Y-115600000D01*
X126251035Y-115379409D01*
X126193723Y-115165520D01*
X126100142Y-114964833D01*
X125973132Y-114783445D01*
X125816555Y-114626868D01*
X125635167Y-114499858D01*
X125511907Y-114442381D01*
X125459468Y-114396210D01*
X125440316Y-114329017D01*
X125460531Y-114262136D01*
X125511908Y-114217618D01*
X125635167Y-114160142D01*
X125816555Y-114033132D01*
X125973132Y-113876555D01*
X126100142Y-113695167D01*
X126193723Y-113494480D01*
X126251035Y-113280591D01*
X126270334Y-113060000D01*
X126251035Y-112839409D01*
X126193723Y-112625520D01*
X126100142Y-112424833D01*
X125973132Y-112243445D01*
X125816555Y-112086868D01*
X125635167Y-111959858D01*
X125511907Y-111902381D01*
X125459468Y-111856210D01*
X125440316Y-111789017D01*
X125460531Y-111722136D01*
X125511908Y-111677618D01*
X125635167Y-111620142D01*
X125816555Y-111493132D01*
X125973132Y-111336555D01*
X126100142Y-111155167D01*
X126193723Y-110954480D01*
X126251035Y-110740591D01*
X126270334Y-110520000D01*
X126267880Y-110491956D01*
X126264820Y-110456974D01*
X126251035Y-110299409D01*
X126193723Y-110085520D01*
X126100142Y-109884833D01*
X125973132Y-109703445D01*
X125816555Y-109546868D01*
X125635167Y-109419858D01*
X125511907Y-109362381D01*
X125459468Y-109316210D01*
X125440316Y-109249017D01*
X125460531Y-109182136D01*
X125511908Y-109137618D01*
X125635167Y-109080142D01*
X125816555Y-108953132D01*
X125973132Y-108796555D01*
X126100142Y-108615167D01*
X126193723Y-108414480D01*
X126248588Y-108209721D01*
X126284952Y-108150063D01*
X126347799Y-108119534D01*
X126366905Y-108117826D01*
X131066825Y-108063176D01*
X131134085Y-108082079D01*
G37*
%TD.AperFunction*%
%TD*%
D17*
X92500000Y-53500000D02*
G75*
G02*
X89500000Y-53500000I-1500000J0D01*
G01*
X89500000Y-53500000D02*
G75*
G02*
X92500000Y-53500000I1500000J0D01*
G01*
X136500000Y-53500000D02*
G75*
G02*
X133500000Y-53500000I-1500000J0D01*
G01*
X133500000Y-53500000D02*
G75*
G02*
X136500000Y-53500000I1500000J0D01*
G01*
X88000000Y-50500000D02*
X138000000Y-50500000D01*
X138000000Y-163500000D01*
X88000000Y-163500000D01*
X88000000Y-50500000D01*
X92500000Y-160500000D02*
G75*
G02*
X89500000Y-160500000I-1500000J0D01*
G01*
X89500000Y-160500000D02*
G75*
G02*
X92500000Y-160500000I1500000J0D01*
G01*
X136500000Y-160500000D02*
G75*
G02*
X133500000Y-160500000I-1500000J0D01*
G01*
X133500000Y-160500000D02*
G75*
G02*
X136500000Y-160500000I1500000J0D01*
G01*
M02*
